<?xml version="1.0" encoding="UTF-8"?>
<svg xmlns="http://www.w3.org/2000/svg" version="1.1" width="200" height="200" viewBox="0 0 200 200"><rect x="0" y="0" width="200" height="200" fill="#ffffff"/><g transform="scale(4.082)"><g transform="translate(0,0)"><path fill-rule="evenodd" d="M8 0L8 4L9 4L9 5L8 5L8 7L9 7L9 5L10 5L10 2L9 2L9 0ZM12 0L12 1L11 1L11 3L14 3L14 2L17 2L17 1L18 1L18 2L19 2L19 3L20 3L20 2L19 2L19 0L17 0L17 1L16 1L16 0L15 0L15 1L13 1L13 0ZM20 0L20 1L21 1L21 2L22 2L22 3L21 3L21 4L22 4L22 5L21 5L21 6L20 6L20 5L19 5L19 4L18 4L18 3L15 3L15 4L14 4L14 7L15 7L15 5L16 5L16 7L17 7L17 8L16 8L16 9L15 9L15 8L14 8L14 9L13 9L13 8L12 8L12 7L13 7L13 6L12 6L12 4L11 4L11 6L10 6L10 7L11 7L11 8L10 8L10 9L11 9L11 10L10 10L10 11L11 11L11 10L12 10L12 9L13 9L13 11L14 11L14 12L15 12L15 13L13 13L13 12L11 12L11 13L12 13L12 14L11 14L11 15L9 15L9 14L8 14L8 15L7 15L7 14L6 14L6 13L10 13L10 12L9 12L9 10L8 10L8 9L7 9L7 8L4 8L4 9L2 9L2 8L0 8L0 9L1 9L1 10L0 10L0 11L2 11L2 12L0 12L0 14L2 14L2 15L0 15L0 16L1 16L1 17L0 17L0 19L1 19L1 17L2 17L2 16L3 16L3 17L4 17L4 18L2 18L2 19L3 19L3 20L1 20L1 21L2 21L2 22L1 22L1 23L0 23L0 25L1 25L1 24L4 24L4 27L5 27L5 28L3 28L3 27L2 27L2 28L1 28L1 27L0 27L0 29L2 29L2 30L0 30L0 31L1 31L1 32L6 32L6 33L7 33L7 34L5 34L5 33L2 33L2 34L3 34L3 36L4 36L4 34L5 34L5 35L7 35L7 34L9 34L9 35L11 35L11 36L10 36L10 38L11 38L11 39L8 39L8 38L5 38L5 39L7 39L7 40L6 40L6 41L8 41L8 42L9 42L9 41L10 41L10 40L11 40L11 39L12 39L12 40L13 40L13 41L12 41L12 42L11 42L11 43L10 43L10 44L9 44L9 43L8 43L8 45L9 45L9 47L8 47L8 49L9 49L9 48L10 48L10 49L13 49L13 48L12 48L12 47L11 47L11 48L10 48L10 46L11 46L11 45L12 45L12 46L15 46L15 45L16 45L16 44L15 44L15 43L17 43L17 45L18 45L18 46L16 46L16 47L14 47L14 49L15 49L15 48L16 48L16 49L19 49L19 48L17 48L17 47L18 47L18 46L19 46L19 47L20 47L20 48L22 48L22 47L20 47L20 46L21 46L21 45L20 45L20 44L19 44L19 42L20 42L20 43L21 43L21 44L22 44L22 46L23 46L23 49L26 49L26 46L27 46L27 48L28 48L28 47L29 47L29 49L31 49L31 47L32 47L32 49L34 49L34 48L36 48L36 49L39 49L39 48L37 48L37 46L35 46L35 47L32 47L32 46L34 46L34 44L35 44L35 45L38 45L38 46L39 46L39 47L43 47L43 48L42 48L42 49L44 49L44 46L45 46L45 47L46 47L46 48L45 48L45 49L46 49L46 48L47 48L47 49L49 49L49 48L48 48L48 47L49 47L49 46L47 46L47 47L46 47L46 46L45 46L45 43L46 43L46 44L47 44L47 45L49 45L49 44L48 44L48 42L45 42L45 40L46 40L46 41L47 41L47 38L48 38L48 37L49 37L49 36L48 36L48 33L47 33L47 31L48 31L48 32L49 32L49 31L48 31L48 30L47 30L47 31L46 31L46 30L45 30L45 29L44 29L44 28L43 28L43 27L46 27L46 29L47 29L47 27L48 27L48 29L49 29L49 27L48 27L48 25L49 25L49 23L47 23L47 22L49 22L49 21L47 21L47 20L48 20L48 18L47 18L47 17L49 17L49 15L45 15L45 14L46 14L46 13L48 13L48 9L49 9L49 8L45 8L45 9L44 9L44 8L43 8L43 9L41 9L41 8L40 8L40 9L39 9L39 8L38 8L38 11L37 11L37 10L35 10L35 11L34 11L34 10L33 10L33 9L34 9L34 8L36 8L36 9L37 9L37 4L38 4L38 3L37 3L37 4L36 4L36 7L35 7L35 5L34 5L34 4L35 4L35 3L36 3L36 2L39 2L39 4L40 4L40 3L41 3L41 0L40 0L40 1L37 1L37 0L36 0L36 2L35 2L35 1L33 1L33 0L32 0L32 1L31 1L31 0L29 0L29 3L27 3L27 4L26 4L26 3L25 3L25 2L26 2L26 1L27 1L27 0L26 0L26 1L25 1L25 0L24 0L24 3L25 3L25 4L23 4L23 1L21 1L21 0ZM12 1L12 2L13 2L13 1ZM30 1L30 3L29 3L29 4L27 4L27 10L29 10L29 9L30 9L30 8L31 8L31 9L32 9L32 8L33 8L33 7L34 7L34 5L33 5L33 7L32 7L32 5L30 5L30 6L29 6L29 4L31 4L31 3L32 3L32 4L33 4L33 3L32 3L32 2L31 2L31 1ZM34 2L34 3L35 3L35 2ZM17 5L17 7L18 7L18 6L19 6L19 7L20 7L20 6L19 6L19 5ZM23 5L23 8L26 8L26 5ZM38 5L38 7L39 7L39 5ZM11 6L11 7L12 7L12 6ZM21 6L21 8L19 8L19 9L18 9L18 8L17 8L17 9L16 9L16 10L17 10L17 11L18 11L18 10L19 10L19 9L21 9L21 10L20 10L20 12L18 12L18 13L17 13L17 12L16 12L16 11L15 11L15 12L16 12L16 13L15 13L15 14L12 14L12 15L14 15L14 16L12 16L12 17L11 17L11 16L10 16L10 17L11 17L11 20L12 20L12 22L11 22L11 21L10 21L10 19L9 19L9 15L8 15L8 18L7 18L7 17L6 17L6 18L7 18L7 19L5 19L5 18L4 18L4 20L7 20L7 21L6 21L6 22L7 22L7 21L10 21L10 22L9 22L9 26L12 26L12 25L10 25L10 24L15 24L15 25L14 25L14 26L16 26L16 27L18 27L18 26L19 26L19 25L21 25L21 26L20 26L20 27L19 27L19 28L18 28L18 29L17 29L17 28L16 28L16 29L15 29L15 28L14 28L14 27L13 27L13 29L12 29L12 28L11 28L11 29L10 29L10 28L9 28L9 27L8 27L8 28L9 28L9 29L10 29L10 31L11 31L11 32L10 32L10 33L9 33L9 34L10 34L10 33L11 33L11 34L12 34L12 35L14 35L14 36L15 36L15 37L18 37L18 36L19 36L19 38L16 38L16 39L15 39L15 41L14 41L14 42L15 42L15 41L16 41L16 42L17 42L17 43L18 43L18 42L19 42L19 41L22 41L22 40L21 40L21 39L22 39L22 37L21 37L21 35L22 35L22 36L23 36L23 39L24 39L24 40L25 40L25 38L26 38L26 40L27 40L27 46L28 46L28 45L29 45L29 47L30 47L30 45L31 45L31 46L32 46L32 43L30 43L30 44L29 44L29 42L30 42L30 41L32 41L32 42L33 42L33 41L32 41L32 39L33 39L33 40L34 40L34 43L35 43L35 42L36 42L36 41L35 41L35 40L37 40L37 41L38 41L38 40L39 40L39 41L40 41L40 40L42 40L42 39L43 39L43 40L45 40L45 38L44 38L44 37L46 37L46 36L45 36L45 35L46 35L46 34L47 34L47 33L46 33L46 32L45 32L45 31L44 31L44 29L43 29L43 30L42 30L42 29L41 29L41 28L40 28L40 27L38 27L38 24L39 24L39 25L40 25L40 24L39 24L39 23L40 23L40 22L42 22L42 20L41 20L41 21L40 21L40 20L39 20L39 19L38 19L38 17L40 17L40 19L42 19L42 18L41 18L41 16L43 16L43 18L45 18L45 17L44 17L44 14L45 14L45 13L46 13L46 10L47 10L47 9L46 9L46 10L44 10L44 11L45 11L45 13L44 13L44 14L43 14L43 15L42 15L42 13L43 13L43 11L42 11L42 10L41 10L41 9L40 9L40 11L42 11L42 12L41 12L41 13L40 13L40 12L39 12L39 11L38 11L38 12L39 12L39 13L40 13L40 14L39 14L39 16L38 16L38 17L37 17L37 18L36 18L36 15L38 15L38 13L37 13L37 14L35 14L35 13L36 13L36 12L34 12L34 11L32 11L32 10L31 10L31 11L26 11L26 10L24 10L24 11L23 11L23 13L22 13L22 14L25 14L25 13L28 13L28 14L27 14L27 17L28 17L28 18L27 18L27 19L25 19L25 21L24 21L24 19L23 19L23 18L24 18L24 17L23 17L23 18L22 18L22 17L21 17L21 14L20 14L20 15L19 15L19 14L18 14L18 13L20 13L20 12L21 12L21 10L23 10L23 9L22 9L22 6ZM24 6L24 7L25 7L25 6ZM28 6L28 7L29 7L29 6ZM30 6L30 7L31 7L31 8L32 8L32 7L31 7L31 6ZM40 6L40 7L41 7L41 6ZM11 8L11 9L12 9L12 8ZM4 9L4 10L3 10L3 12L2 12L2 14L4 14L4 17L5 17L5 16L7 16L7 15L6 15L6 14L5 14L5 11L6 11L6 12L8 12L8 11L6 11L6 10L7 10L7 9L6 9L6 10L5 10L5 9ZM14 9L14 10L15 10L15 9ZM4 10L4 11L5 11L5 10ZM24 11L24 13L25 13L25 11ZM3 12L3 13L4 13L4 12ZM30 12L30 13L29 13L29 15L31 15L31 14L32 14L32 13L33 13L33 15L32 15L32 16L30 16L30 19L29 19L29 18L28 18L28 19L27 19L27 20L26 20L26 22L23 22L23 19L22 19L22 18L21 18L21 17L19 17L19 15L18 15L18 14L16 14L16 15L15 15L15 16L14 16L14 17L12 17L12 18L14 18L14 17L15 17L15 20L14 20L14 19L12 19L12 20L13 20L13 21L14 21L14 22L12 22L12 23L16 23L16 22L18 22L18 23L17 23L17 24L16 24L16 25L17 25L17 24L18 24L18 25L19 25L19 24L22 24L22 27L20 27L20 28L19 28L19 29L18 29L18 30L16 30L16 31L14 31L14 32L11 32L11 33L12 33L12 34L13 34L13 33L15 33L15 34L16 34L16 33L17 33L17 35L18 35L18 34L21 34L21 33L19 33L19 32L22 32L22 31L23 31L23 33L24 33L24 34L25 34L25 36L26 36L26 38L27 38L27 40L28 40L28 39L29 39L29 41L30 41L30 39L32 39L32 38L34 38L34 35L36 35L36 36L35 36L35 38L36 38L36 39L37 39L37 38L38 38L38 39L41 39L41 38L42 38L42 36L44 36L44 35L42 35L42 34L45 34L45 33L44 33L44 32L43 32L43 31L41 31L41 30L40 30L40 29L38 29L38 28L37 28L37 27L36 27L36 28L35 28L35 27L34 27L34 26L33 26L33 22L34 22L34 21L35 21L35 22L38 22L38 23L39 23L39 22L40 22L40 21L39 21L39 20L38 20L38 19L35 19L35 20L34 20L34 21L33 21L33 19L34 19L34 18L33 18L33 17L34 17L34 12L32 12L32 13L31 13L31 12ZM40 14L40 16L41 16L41 14ZM23 15L23 16L25 16L25 17L26 17L26 16L25 16L25 15ZM16 16L16 18L18 18L18 19L17 19L17 20L15 20L15 21L18 21L18 20L20 20L20 19L21 19L21 18L20 18L20 19L19 19L19 17L18 17L18 16ZM31 18L31 19L30 19L30 20L32 20L32 19L33 19L33 18ZM46 18L46 19L45 19L45 21L44 21L44 22L45 22L45 21L46 21L46 22L47 22L47 21L46 21L46 19L47 19L47 18ZM28 19L28 20L27 20L27 21L28 21L28 22L27 22L27 24L28 24L28 25L27 25L27 29L26 29L26 30L24 30L24 29L25 29L25 28L26 28L26 27L24 27L24 28L22 28L22 29L21 29L21 30L20 30L20 31L22 31L22 29L23 29L23 30L24 30L24 33L25 33L25 34L26 34L26 35L27 35L27 38L30 38L30 37L31 37L31 38L32 38L32 37L31 37L31 36L32 36L32 35L33 35L33 33L34 33L34 34L35 34L35 32L36 32L36 31L37 31L37 29L36 29L36 31L35 31L35 29L34 29L34 28L33 28L33 29L32 29L32 30L31 30L31 31L30 31L30 29L31 29L31 28L32 28L32 27L33 27L33 26L32 26L32 25L31 25L31 24L32 24L32 23L31 23L31 24L29 24L29 23L28 23L28 22L30 22L30 21L29 21L29 19ZM37 20L37 21L38 21L38 20ZM19 21L19 23L18 23L18 24L19 24L19 23L20 23L20 22L21 22L21 23L22 23L22 21ZM10 22L10 23L11 23L11 22ZM5 23L5 26L8 26L8 23ZM23 23L23 26L26 26L26 23ZM35 23L35 25L36 25L36 26L37 26L37 23ZM41 23L41 26L44 26L44 23ZM6 24L6 25L7 25L7 24ZM24 24L24 25L25 25L25 24ZM42 24L42 25L43 25L43 24ZM45 24L45 25L46 25L46 26L47 26L47 25L48 25L48 24L47 24L47 25L46 25L46 24ZM30 25L30 26L29 26L29 28L30 28L30 27L31 27L31 25ZM6 27L6 28L7 28L7 27ZM2 28L2 29L3 29L3 28ZM6 29L6 30L7 30L7 31L6 31L6 32L9 32L9 30L8 30L8 29ZM11 29L11 31L12 31L12 29ZM13 29L13 30L15 30L15 29ZM28 29L28 30L27 30L27 31L25 31L25 32L26 32L26 33L28 33L28 32L30 32L30 35L29 35L29 34L27 34L27 35L29 35L29 36L31 36L31 35L32 35L32 34L31 34L31 32L30 32L30 31L29 31L29 29ZM33 29L33 31L32 31L32 33L33 33L33 32L35 32L35 31L34 31L34 29ZM2 30L2 31L4 31L4 30ZM18 30L18 31L19 31L19 30ZM39 30L39 32L38 32L38 33L37 33L37 34L36 34L36 35L37 35L37 36L38 36L38 37L40 37L40 38L41 38L41 36L40 36L40 35L41 35L41 34L42 34L42 33L43 33L43 32L42 32L42 33L41 33L41 31L40 31L40 30ZM27 31L27 32L28 32L28 31ZM0 33L0 35L1 35L1 33ZM38 33L38 36L39 36L39 33ZM40 33L40 34L41 34L41 33ZM22 34L22 35L23 35L23 36L24 36L24 35L23 35L23 34ZM6 36L6 37L7 37L7 36ZM11 36L11 37L12 37L12 38L13 38L13 40L14 40L14 37L12 37L12 36ZM47 36L47 37L48 37L48 36ZM1 37L1 40L0 40L0 41L3 41L3 40L4 40L4 39L2 39L2 38L4 38L4 37ZM20 37L20 39L21 39L21 37ZM24 37L24 38L25 38L25 37ZM36 37L36 38L37 38L37 37ZM17 39L17 40L16 40L16 41L19 41L19 39ZM8 40L8 41L9 41L9 40ZM23 41L23 44L26 44L26 41ZM41 41L41 44L44 44L44 41ZM24 42L24 43L25 43L25 42ZM37 42L37 44L38 44L38 45L39 45L39 46L40 46L40 44L39 44L39 43L40 43L40 42L39 42L39 43L38 43L38 42ZM42 42L42 43L43 43L43 42ZM12 43L12 44L13 44L13 45L15 45L15 44L14 44L14 43ZM18 44L18 45L19 45L19 44ZM24 45L24 48L25 48L25 46L26 46L26 45ZM41 45L41 46L42 46L42 45ZM0 0L0 7L7 7L7 0ZM1 1L1 6L6 6L6 1ZM2 2L2 5L5 5L5 2ZM42 0L42 7L49 7L49 0ZM43 1L43 6L48 6L48 1ZM44 2L44 5L47 5L47 2ZM0 42L0 49L7 49L7 42ZM1 43L1 48L6 48L6 43ZM2 44L2 47L5 47L5 44Z" fill="#000000"/></g></g></svg>
