<?xml version="1.0" encoding="UTF-8"?>
<svg xmlns="http://www.w3.org/2000/svg" version="1.1" width="200" height="200" viewBox="0 0 200 200"><rect x="0" y="0" width="200" height="200" fill="#ffffff"/><g transform="scale(4.444)"><g transform="translate(0,0)"><path fill-rule="evenodd" d="M9 0L9 1L8 1L8 2L10 2L10 3L11 3L11 4L12 4L12 3L11 3L11 2L12 2L12 1L11 1L11 0ZM13 0L13 3L14 3L14 1L15 1L15 3L16 3L16 4L14 4L14 5L16 5L16 7L15 7L15 6L14 6L14 7L13 7L13 5L8 5L8 7L9 7L9 8L6 8L6 9L5 9L5 8L0 8L0 9L1 9L1 10L4 10L4 15L2 15L2 17L1 17L1 14L3 14L3 12L2 12L2 11L0 11L0 13L1 13L1 14L0 14L0 18L2 18L2 19L3 19L3 20L4 20L4 24L3 24L3 25L2 25L2 23L3 23L3 22L0 22L0 27L3 27L3 25L4 25L4 26L6 26L6 27L7 27L7 28L6 28L6 29L8 29L8 27L7 27L7 26L9 26L9 27L10 27L10 26L9 26L9 25L10 25L10 24L12 24L12 25L11 25L11 26L12 26L12 25L13 25L13 24L14 24L14 23L15 23L15 25L14 25L14 26L15 26L15 27L16 27L16 26L15 26L15 25L17 25L17 27L18 27L18 29L17 29L17 28L16 28L16 29L13 29L13 28L14 28L14 27L13 27L13 28L12 28L12 27L11 27L11 28L9 28L9 29L10 29L10 30L9 30L9 32L8 32L8 30L6 30L6 31L5 31L5 29L4 29L4 32L2 32L2 31L0 31L0 33L1 33L1 34L2 34L2 33L3 33L3 34L4 34L4 35L1 35L1 36L0 36L0 37L1 37L1 36L3 36L3 37L5 37L5 34L6 34L6 35L7 35L7 34L6 34L6 33L8 33L8 35L10 35L10 36L8 36L8 39L9 39L9 40L8 40L8 45L9 45L9 44L10 44L10 45L12 45L12 43L11 43L11 44L10 44L10 43L9 43L9 42L12 42L12 41L13 41L13 40L14 40L14 39L15 39L15 40L17 40L17 38L18 38L18 41L19 41L19 39L20 39L20 42L22 42L22 43L19 43L19 42L18 42L18 43L19 43L19 44L18 44L18 45L19 45L19 44L21 44L21 45L23 45L23 44L22 44L22 43L27 43L27 44L30 44L30 45L31 45L31 44L33 44L33 45L34 45L34 44L35 44L35 42L36 42L36 43L37 43L37 42L40 42L40 41L41 41L41 39L42 39L42 40L43 40L43 37L44 37L44 38L45 38L45 37L44 37L44 36L45 36L45 35L44 35L44 34L45 34L45 33L43 33L43 35L42 35L42 33L41 33L41 36L40 36L40 34L39 34L39 35L38 35L38 36L36 36L36 38L34 38L34 37L35 37L35 36L34 36L34 37L31 37L31 36L33 36L33 35L37 35L37 33L39 33L39 32L43 32L43 29L41 29L41 30L42 30L42 31L38 31L38 32L37 32L37 29L35 29L35 28L36 28L36 27L38 27L38 29L40 29L40 28L39 28L39 27L40 27L40 26L39 26L39 27L38 27L38 25L41 25L41 26L42 26L42 27L41 27L41 28L44 28L44 30L45 30L45 27L43 27L43 26L42 26L42 25L41 25L41 24L43 24L43 25L44 25L44 26L45 26L45 24L43 24L43 23L41 23L41 22L42 22L42 21L41 21L41 20L43 20L43 19L44 19L44 20L45 20L45 19L44 19L44 17L42 17L42 18L41 18L41 19L39 19L39 18L40 18L40 16L43 16L43 15L44 15L44 16L45 16L45 15L44 15L44 12L45 12L45 11L44 11L44 10L45 10L45 9L44 9L44 8L43 8L43 9L42 9L42 8L41 8L41 9L40 9L40 8L39 8L39 10L37 10L37 9L38 9L38 8L37 8L37 6L36 6L36 7L35 7L35 6L34 6L34 5L37 5L37 3L36 3L36 1L37 1L37 0L36 0L36 1L35 1L35 4L34 4L34 0L33 0L33 1L32 1L32 2L30 2L30 4L27 4L27 5L26 5L26 3L25 3L25 4L23 4L23 3L22 3L22 1L21 1L21 3L20 3L20 7L19 7L19 5L18 5L18 4L19 4L19 2L20 2L20 0L19 0L19 2L18 2L18 0L17 0L17 3L16 3L16 0ZM27 0L27 1L26 1L26 2L27 2L27 3L28 3L28 2L29 2L29 1L31 1L31 0ZM24 1L24 2L25 2L25 1ZM27 1L27 2L28 2L28 1ZM32 2L32 4L31 4L31 5L30 5L30 6L29 6L29 5L28 5L28 6L27 6L27 7L26 7L26 6L25 6L25 9L22 9L22 10L25 10L25 13L24 13L24 14L23 14L23 15L22 15L22 16L23 16L23 17L22 17L22 18L23 18L23 17L24 17L24 18L25 18L25 21L26 21L26 22L25 22L25 25L26 25L26 26L24 26L24 25L23 25L23 26L22 26L22 25L20 25L20 26L19 26L19 25L18 25L18 26L19 26L19 28L20 28L20 30L19 30L19 29L18 29L18 30L17 30L17 29L16 29L16 31L15 31L15 30L13 30L13 32L14 32L14 33L15 33L15 34L13 34L13 35L16 35L16 36L12 36L12 35L11 35L11 36L10 36L10 37L11 37L11 38L10 38L10 40L9 40L9 41L12 41L12 39L13 39L13 38L12 38L12 37L16 37L16 38L17 38L17 37L18 37L18 38L20 38L20 34L22 34L22 35L21 35L21 36L23 36L23 35L25 35L25 40L26 40L26 42L28 42L28 43L32 43L32 41L33 41L33 40L32 40L32 39L33 39L33 38L32 38L32 39L31 39L31 38L30 38L30 39L29 39L29 40L27 40L27 39L28 39L28 37L29 37L29 36L28 36L28 35L30 35L30 34L28 34L28 33L30 33L30 31L31 31L31 32L32 32L32 33L31 33L31 35L33 35L33 34L32 34L32 33L34 33L34 34L35 34L35 33L36 33L36 32L35 32L35 31L36 31L36 30L35 30L35 29L34 29L34 28L35 28L35 27L36 27L36 26L35 26L35 25L36 25L36 23L34 23L34 22L36 22L36 21L35 21L35 19L36 19L36 20L39 20L39 19L36 19L36 18L35 18L35 17L37 17L37 18L39 18L39 17L38 17L38 14L39 14L39 15L40 15L40 13L43 13L43 12L44 12L44 11L43 11L43 10L44 10L44 9L43 9L43 10L40 10L40 11L38 11L38 12L37 12L37 11L34 11L34 14L33 14L33 12L32 12L32 11L33 11L33 10L35 10L35 9L37 9L37 8L35 8L35 7L34 7L34 6L33 6L33 5L34 5L34 4L33 4L33 2ZM8 3L8 4L9 4L9 3ZM17 3L17 4L16 4L16 5L17 5L17 7L16 7L16 8L19 8L19 9L18 9L18 10L17 10L17 9L16 9L16 10L17 10L17 11L18 11L18 12L17 12L17 13L16 13L16 12L14 12L14 11L13 11L13 12L12 12L12 6L11 6L11 10L10 10L10 11L9 11L9 9L8 9L8 10L7 10L7 9L6 9L6 10L7 10L7 11L5 11L5 14L7 14L7 13L8 13L8 11L9 11L9 12L10 12L10 13L9 13L9 14L8 14L8 15L10 15L10 16L9 16L9 17L10 17L10 19L6 19L6 18L8 18L8 16L7 16L7 15L6 15L6 16L5 16L5 15L4 15L4 16L3 16L3 17L2 17L2 18L4 18L4 20L10 20L10 21L9 21L9 24L10 24L10 23L11 23L11 20L12 20L12 19L13 19L13 18L14 18L14 19L15 19L15 20L13 20L13 21L12 21L12 24L13 24L13 23L14 23L14 22L13 22L13 21L16 21L16 22L17 22L17 21L16 21L16 20L18 20L18 18L19 18L19 22L18 22L18 24L19 24L19 22L20 22L20 20L21 20L21 19L20 19L20 18L21 18L21 15L18 15L18 14L21 14L21 13L22 13L22 12L24 12L24 11L22 11L22 12L21 12L21 9L20 9L20 8L19 8L19 7L18 7L18 5L17 5L17 4L18 4L18 3ZM21 3L21 4L22 4L22 3ZM32 4L32 5L33 5L33 4ZM21 5L21 8L24 8L24 5ZM9 6L9 7L10 7L10 6ZM22 6L22 7L23 7L23 6ZM28 6L28 7L27 7L27 8L26 8L26 9L27 9L27 8L29 8L29 9L28 9L28 11L27 11L27 10L26 10L26 11L27 11L27 12L26 12L26 13L25 13L25 14L24 14L24 15L25 15L25 16L24 16L24 17L25 17L25 16L29 16L29 17L28 17L28 18L26 18L26 19L28 19L28 20L26 20L26 21L27 21L27 22L26 22L26 23L28 23L28 24L30 24L30 26L31 26L31 27L29 27L29 25L28 25L28 26L27 26L27 27L24 27L24 28L23 28L23 29L22 29L22 26L20 26L20 28L21 28L21 29L22 29L22 30L20 30L20 31L21 31L21 33L22 33L22 34L23 34L23 33L22 33L22 30L23 30L23 32L24 32L24 33L25 33L25 34L26 34L26 37L27 37L27 35L28 35L28 34L26 34L26 33L25 33L25 32L26 32L26 31L27 31L27 32L29 32L29 31L30 31L30 30L31 30L31 31L32 31L32 30L34 30L34 31L35 31L35 30L34 30L34 29L31 29L31 27L32 27L32 28L34 28L34 27L35 27L35 26L32 26L32 24L33 24L33 25L34 25L34 24L33 24L33 23L32 23L32 24L30 24L30 23L28 23L28 22L31 22L31 21L30 21L30 19L28 19L28 18L32 18L32 20L34 20L34 19L35 19L35 18L34 18L34 19L33 19L33 18L32 18L32 16L33 16L33 17L35 17L35 14L34 14L34 16L33 16L33 14L31 14L31 13L28 13L28 12L29 12L29 10L33 10L33 9L32 9L32 8L33 8L33 6L32 6L32 8L31 8L31 6L30 6L30 8L29 8L29 6ZM14 7L14 8L13 8L13 9L15 9L15 7ZM18 10L18 11L19 11L19 12L18 12L18 13L17 13L17 14L16 14L16 13L13 13L13 14L10 14L10 15L13 15L13 16L14 16L14 15L13 15L13 14L15 14L15 16L16 16L16 17L14 17L14 18L15 18L15 19L16 19L16 17L19 17L19 16L17 16L17 14L18 14L18 13L19 13L19 12L20 12L20 11L19 11L19 10ZM30 11L30 12L31 12L31 11ZM40 11L40 12L43 12L43 11ZM6 12L6 13L7 13L7 12ZM11 12L11 13L12 13L12 12ZM26 13L26 14L27 14L27 13ZM36 13L36 14L38 14L38 13ZM29 14L29 15L31 15L31 16L32 16L32 15L31 15L31 14ZM36 15L36 16L37 16L37 15ZM4 16L4 17L5 17L5 16ZM6 16L6 17L7 17L7 16ZM10 16L10 17L11 17L11 18L12 18L12 17L11 17L11 16ZM22 19L22 20L23 20L23 19ZM0 20L0 21L1 21L1 20ZM28 20L28 21L29 21L29 20ZM5 21L5 24L8 24L8 21ZM21 21L21 24L24 24L24 21ZM32 21L32 22L34 22L34 21ZM37 21L37 24L40 24L40 21ZM44 21L44 22L45 22L45 21ZM6 22L6 23L7 23L7 22ZM22 22L22 23L23 23L23 22ZM38 22L38 23L39 23L39 22ZM16 23L16 24L17 24L17 23ZM26 24L26 25L27 25L27 24ZM6 25L6 26L7 26L7 25ZM0 28L0 29L1 29L1 28ZM2 28L2 30L3 30L3 28ZM28 28L28 29L26 29L26 30L28 30L28 31L29 31L29 30L28 30L28 29L30 29L30 28ZM23 29L23 30L24 30L24 29ZM6 31L6 32L7 32L7 31ZM10 31L10 32L9 32L9 33L10 33L10 34L12 34L12 33L10 33L10 32L12 32L12 31ZM14 31L14 32L15 32L15 31ZM44 31L44 32L45 32L45 31ZM16 32L16 33L17 33L17 32ZM18 32L18 33L19 33L19 34L18 34L18 35L17 35L17 36L16 36L16 37L17 37L17 36L18 36L18 37L19 37L19 34L20 34L20 32ZM6 36L6 37L7 37L7 36ZM11 36L11 37L12 37L12 36ZM42 36L42 37L41 37L41 38L42 38L42 37L43 37L43 36ZM21 37L21 40L24 40L24 37ZM37 37L37 40L40 40L40 37ZM11 38L11 39L12 39L12 38ZM22 38L22 39L23 39L23 38ZM26 38L26 39L27 39L27 38ZM38 38L38 39L39 39L39 38ZM34 39L34 40L35 40L35 41L34 41L34 42L33 42L33 44L34 44L34 42L35 42L35 41L36 41L36 42L37 42L37 41L36 41L36 39ZM44 39L44 41L42 41L42 42L44 42L44 43L45 43L45 42L44 42L44 41L45 41L45 39ZM22 41L22 42L24 42L24 41ZM29 41L29 42L31 42L31 41ZM15 42L15 43L13 43L13 44L16 44L16 45L17 45L17 43L16 43L16 42ZM39 43L39 44L38 44L38 45L40 45L40 43ZM42 43L42 44L43 44L43 45L44 45L44 44L43 44L43 43ZM24 44L24 45L25 45L25 44ZM36 44L36 45L37 45L37 44ZM0 0L0 7L7 7L7 0ZM1 1L1 6L6 6L6 1ZM2 2L2 5L5 5L5 2ZM38 0L38 7L45 7L45 0ZM39 1L39 6L44 6L44 1ZM40 2L40 5L43 5L43 2ZM0 38L0 45L7 45L7 38ZM1 39L1 44L6 44L6 39ZM2 40L2 43L5 43L5 40Z" fill="#000000"/></g></g></svg>
