<?xml version="1.0" encoding="UTF-8"?>
<svg xmlns="http://www.w3.org/2000/svg" version="1.1" width="200" height="200" viewBox="0 0 200 200"><rect x="0" y="0" width="200" height="200" fill="#ffffff"/><g transform="scale(4.444)"><g transform="translate(0,0)"><path fill-rule="evenodd" d="M9 0L9 1L8 1L8 2L9 2L9 1L11 1L11 2L10 2L10 7L9 7L9 5L8 5L8 7L9 7L9 8L6 8L6 9L7 9L7 10L5 10L5 8L0 8L0 13L1 13L1 14L0 14L0 15L1 15L1 14L2 14L2 13L3 13L3 12L2 12L2 11L4 11L4 14L3 14L3 15L2 15L2 16L3 16L3 15L4 15L4 17L1 17L1 16L0 16L0 18L1 18L1 19L2 19L2 18L5 18L5 16L6 16L6 17L8 17L8 18L6 18L6 19L8 19L8 18L9 18L9 20L1 20L1 21L3 21L3 22L4 22L4 26L1 26L1 25L2 25L2 24L0 24L0 27L1 27L1 28L0 28L0 29L2 29L2 30L1 30L1 31L0 31L0 32L1 32L1 34L4 34L4 35L1 35L1 36L0 36L0 37L1 37L1 36L3 36L3 37L5 37L5 34L4 34L4 33L5 33L5 32L6 32L6 33L7 33L7 32L8 32L8 30L10 30L10 29L9 29L9 28L11 28L11 29L12 29L12 30L13 30L13 31L14 31L14 32L11 32L11 31L10 31L10 32L11 32L11 33L10 33L10 34L9 34L9 33L8 33L8 34L6 34L6 35L8 35L8 36L10 36L10 37L8 37L8 39L9 39L9 40L8 40L8 45L10 45L10 43L9 43L9 40L10 40L10 41L11 41L11 42L12 42L12 41L13 41L13 42L14 42L14 41L13 41L13 40L14 40L14 39L13 39L13 38L15 38L15 42L16 42L16 41L17 41L17 40L18 40L18 41L19 41L19 40L20 40L20 44L21 44L21 45L28 45L28 44L30 44L30 45L32 45L32 44L33 44L33 45L34 45L34 44L33 44L33 43L37 43L37 42L38 42L38 41L39 41L39 42L40 42L40 41L41 41L41 39L42 39L42 40L45 40L45 39L43 39L43 38L45 38L45 35L44 35L44 34L45 34L45 33L43 33L43 34L40 34L40 33L41 33L41 32L43 32L43 30L45 30L45 27L43 27L43 26L41 26L41 27L38 27L38 28L39 28L39 29L40 29L40 28L41 28L41 30L42 30L42 31L37 31L37 30L38 30L38 29L37 29L37 28L36 28L36 29L35 29L35 30L31 30L31 27L30 27L30 30L31 30L31 31L32 31L32 32L33 32L33 33L32 33L32 36L30 36L30 35L29 35L29 34L28 34L28 33L27 33L27 34L26 34L26 32L29 32L29 33L30 33L30 34L31 34L31 33L30 33L30 31L28 31L28 30L29 30L29 29L28 29L28 28L29 28L29 27L28 27L28 26L26 26L26 25L25 25L25 23L27 23L27 22L28 22L28 24L29 24L29 23L30 23L30 24L31 24L31 25L29 25L29 26L31 26L31 25L32 25L32 26L33 26L33 25L36 25L36 27L37 27L37 25L38 25L38 26L40 26L40 25L41 25L41 24L43 24L43 23L41 23L41 22L42 22L42 20L43 20L43 19L44 19L44 20L45 20L45 19L44 19L44 15L43 15L43 14L45 14L45 13L44 13L44 12L45 12L45 11L44 11L44 10L45 10L45 9L44 9L44 8L43 8L43 9L42 9L42 8L41 8L41 9L40 9L40 8L39 8L39 10L37 10L37 9L38 9L38 8L37 8L37 9L35 9L35 10L33 10L33 11L32 11L32 8L36 8L36 7L37 7L37 6L36 6L36 7L35 7L35 6L34 6L34 7L33 7L33 6L32 6L32 8L31 8L31 9L29 9L29 10L31 10L31 11L29 11L29 12L30 12L30 14L31 14L31 11L32 11L32 12L33 12L33 13L32 13L32 16L31 16L31 15L28 15L28 14L29 14L29 13L27 13L27 10L28 10L28 9L27 9L27 8L30 8L30 7L31 7L31 6L30 6L30 7L29 7L29 6L28 6L28 4L27 4L27 3L26 3L26 4L25 4L25 1L26 1L26 2L27 2L27 1L26 1L26 0L25 0L25 1L24 1L24 0L23 0L23 1L22 1L22 0L21 0L21 2L23 2L23 3L24 3L24 4L22 4L22 3L19 3L19 2L20 2L20 0L19 0L19 1L18 1L18 0L16 0L16 1L15 1L15 2L12 2L12 1L13 1L13 0L12 0L12 1L11 1L11 0ZM28 0L28 3L29 3L29 1L32 1L32 0ZM36 0L36 1L35 1L35 4L34 4L34 5L37 5L37 3L36 3L36 1L37 1L37 0ZM11 2L11 4L12 4L12 5L11 5L11 7L12 7L12 8L10 8L10 9L8 9L8 10L7 10L7 11L5 11L5 14L4 14L4 15L6 15L6 16L8 16L8 15L9 15L9 16L11 16L11 15L13 15L13 16L14 16L14 15L13 15L13 13L16 13L16 14L15 14L15 16L16 16L16 17L13 17L13 20L12 20L12 18L11 18L11 17L10 17L10 18L11 18L11 19L10 19L10 20L9 20L9 21L10 21L10 22L9 22L9 25L10 25L10 27L12 27L12 29L13 29L13 28L14 28L14 30L15 30L15 29L16 29L16 30L17 30L17 31L16 31L16 32L15 32L15 33L13 33L13 34L14 34L14 35L13 35L13 36L12 36L12 35L10 35L10 36L12 36L12 37L10 37L10 38L9 38L9 39L10 39L10 40L11 40L11 41L12 41L12 40L11 40L11 39L12 39L12 37L16 37L16 40L17 40L17 39L18 39L18 38L20 38L20 37L18 37L18 36L20 36L20 35L21 35L21 36L22 36L22 34L21 34L21 32L22 32L22 33L23 33L23 35L25 35L25 34L24 34L24 33L25 33L25 32L26 32L26 31L25 31L25 28L24 28L24 30L23 30L23 31L21 31L21 32L20 32L20 34L19 34L19 33L18 33L18 30L19 30L19 31L20 31L20 30L21 30L21 29L23 29L23 27L21 27L21 26L22 26L22 25L21 25L21 26L20 26L20 20L25 20L25 21L26 21L26 22L27 22L27 18L29 18L29 17L30 17L30 16L28 16L28 15L26 15L26 14L27 14L27 13L26 13L26 14L25 14L25 11L26 11L26 10L27 10L27 9L26 9L26 8L25 8L25 9L22 9L22 10L21 10L21 9L20 9L20 8L19 8L19 9L17 9L17 8L18 8L18 6L17 6L17 5L19 5L19 7L20 7L20 5L19 5L19 4L16 4L16 2L15 2L15 3L12 3L12 2ZM17 2L17 3L18 3L18 2ZM30 2L30 3L31 3L31 4L30 4L30 5L31 5L31 4L32 4L32 5L33 5L33 4L32 4L32 2ZM33 2L33 3L34 3L34 2ZM8 3L8 4L9 4L9 3ZM14 4L14 5L15 5L15 6L14 6L14 7L13 7L13 5L12 5L12 7L13 7L13 8L12 8L12 9L13 9L13 10L12 10L12 12L10 12L10 10L11 10L11 9L10 9L10 10L9 10L9 13L13 13L13 12L14 12L14 11L15 11L15 12L16 12L16 13L17 13L17 12L18 12L18 13L19 13L19 12L20 12L20 10L18 10L18 11L17 11L17 12L16 12L16 11L15 11L15 10L16 10L16 9L15 9L15 10L14 10L14 9L13 9L13 8L14 8L14 7L15 7L15 8L16 8L16 7L17 7L17 6L16 6L16 4ZM26 4L26 5L25 5L25 7L26 7L26 5L27 5L27 4ZM21 5L21 8L24 8L24 5ZM15 6L15 7L16 7L16 6ZM22 6L22 7L23 7L23 6ZM27 6L27 7L28 7L28 6ZM41 9L41 10L40 10L40 11L39 11L39 13L38 13L38 11L36 11L36 10L35 10L35 11L34 11L34 12L35 12L35 13L34 13L34 14L35 14L35 15L33 15L33 16L32 16L32 17L31 17L31 18L30 18L30 19L29 19L29 20L28 20L28 22L30 22L30 23L31 23L31 24L32 24L32 25L33 25L33 24L34 24L34 23L35 23L35 24L36 24L36 23L35 23L35 21L36 21L36 19L37 19L37 20L40 20L40 19L41 19L41 20L42 20L42 19L43 19L43 16L40 16L40 18L39 18L39 17L38 17L38 14L39 14L39 15L41 15L41 13L43 13L43 12L44 12L44 11L43 11L43 10L44 10L44 9L43 9L43 10L42 10L42 9ZM1 10L1 11L2 11L2 10ZM22 10L22 11L23 11L23 10ZM24 10L24 11L25 11L25 10ZM41 10L41 11L42 11L42 12L43 12L43 11L42 11L42 10ZM35 11L35 12L36 12L36 11ZM6 12L6 13L7 13L7 14L6 14L6 15L8 15L8 13L7 13L7 12ZM21 12L21 13L20 13L20 15L19 15L19 14L17 14L17 15L16 15L16 16L17 16L17 15L18 15L18 17L16 17L16 18L15 18L15 19L16 19L16 20L15 20L15 21L13 21L13 22L16 22L16 21L17 21L17 22L18 22L18 21L19 21L19 20L18 20L18 21L17 21L17 18L18 18L18 19L19 19L19 18L20 18L20 19L21 19L21 18L22 18L22 19L23 19L23 18L24 18L24 19L25 19L25 20L26 20L26 17L25 17L25 16L24 16L24 17L23 17L23 16L21 16L21 18L20 18L20 17L19 17L19 16L20 16L20 15L21 15L21 13L22 13L22 14L23 14L23 15L25 15L25 14L23 14L23 12ZM35 13L35 14L36 14L36 15L35 15L35 16L36 16L36 15L37 15L37 13ZM9 14L9 15L10 15L10 14ZM18 17L18 18L19 18L19 17ZM24 17L24 18L25 18L25 17ZM35 17L35 18L31 18L31 19L30 19L30 22L31 22L31 20L33 20L33 21L32 21L32 22L33 22L33 21L34 21L34 19L36 19L36 18L37 18L37 19L39 19L39 18L37 18L37 17ZM41 17L41 18L42 18L42 17ZM5 21L5 24L8 24L8 21ZM11 21L11 22L10 22L10 25L11 25L11 26L12 26L12 25L13 25L13 27L14 27L14 25L13 25L13 24L14 24L14 23L13 23L13 24L12 24L12 25L11 25L11 23L12 23L12 21ZM21 21L21 24L24 24L24 21ZM37 21L37 24L40 24L40 21ZM43 21L43 22L45 22L45 21ZM6 22L6 23L7 23L7 22ZM22 22L22 23L23 23L23 22ZM38 22L38 23L39 23L39 22ZM44 23L44 26L45 26L45 23ZM15 24L15 26L16 26L16 24ZM18 24L18 25L19 25L19 24ZM5 25L5 26L7 26L7 27L6 27L6 28L5 28L5 27L4 27L4 28L3 28L3 27L2 27L2 29L3 29L3 30L5 30L5 31L6 31L6 32L7 32L7 31L6 31L6 30L8 30L8 29L6 29L6 28L8 28L8 27L9 27L9 26L7 26L7 25ZM23 25L23 26L24 26L24 27L26 27L26 30L27 30L27 27L26 27L26 26L24 26L24 25ZM34 26L34 27L35 27L35 26ZM16 27L16 29L17 29L17 27ZM19 27L19 28L18 28L18 29L19 29L19 30L20 30L20 29L19 29L19 28L20 28L20 27ZM32 27L32 28L33 28L33 29L34 29L34 28L33 28L33 27ZM41 27L41 28L42 28L42 29L44 29L44 28L42 28L42 27ZM4 28L4 29L5 29L5 28ZM35 30L35 31L33 31L33 32L34 32L34 33L33 33L33 34L35 34L35 35L36 35L36 34L37 34L37 36L38 36L38 35L39 35L39 36L42 36L42 37L41 37L41 38L42 38L42 37L43 37L43 36L42 36L42 35L40 35L40 34L39 34L39 33L40 33L40 32L39 32L39 33L36 33L36 32L37 32L37 31L36 31L36 30ZM2 31L2 32L4 32L4 31ZM24 31L24 32L23 32L23 33L24 33L24 32L25 32L25 31ZM35 31L35 32L36 32L36 31ZM44 31L44 32L45 32L45 31ZM16 32L16 33L17 33L17 34L15 34L15 36L16 36L16 37L17 37L17 38L18 38L18 37L17 37L17 36L16 36L16 35L17 35L17 34L18 34L18 35L19 35L19 34L18 34L18 33L17 33L17 32ZM11 33L11 34L12 34L12 33ZM35 33L35 34L36 34L36 33ZM8 34L8 35L9 35L9 34ZM27 34L27 35L26 35L26 36L25 36L25 37L26 37L26 38L25 38L25 41L21 41L21 42L25 42L25 41L26 41L26 42L28 42L28 43L27 43L27 44L28 44L28 43L30 43L30 42L28 42L28 41L30 41L30 39L33 39L33 40L31 40L31 44L32 44L32 43L33 43L33 42L32 42L32 41L34 41L34 42L35 42L35 39L36 39L36 36L35 36L35 37L34 37L34 35L33 35L33 36L32 36L32 38L30 38L30 36L28 36L28 37L27 37L27 35L28 35L28 34ZM6 36L6 37L7 37L7 36ZM21 37L21 40L24 40L24 37ZM28 37L28 38L26 38L26 39L27 39L27 40L26 40L26 41L27 41L27 40L29 40L29 39L30 39L30 38L29 38L29 37ZM37 37L37 40L40 40L40 37ZM22 38L22 39L23 39L23 38ZM28 38L28 39L29 39L29 38ZM34 38L34 39L35 39L35 38ZM38 38L38 39L39 39L39 38ZM18 42L18 43L19 43L19 42ZM42 42L42 44L41 44L41 45L42 45L42 44L43 44L43 45L44 45L44 44L43 44L43 42ZM44 42L44 43L45 43L45 42ZM11 43L11 45L12 45L12 43ZM13 43L13 44L14 44L14 43ZM15 43L15 44L16 44L16 45L17 45L17 43ZM22 43L22 44L23 44L23 43ZM24 43L24 44L25 44L25 43ZM39 43L39 44L38 44L38 45L40 45L40 43ZM18 44L18 45L19 45L19 44ZM36 44L36 45L37 45L37 44ZM0 0L0 7L7 7L7 0ZM1 1L1 6L6 6L6 1ZM2 2L2 5L5 5L5 2ZM38 0L38 7L45 7L45 0ZM39 1L39 6L44 6L44 1ZM40 2L40 5L43 5L43 2ZM0 38L0 45L7 45L7 38ZM1 39L1 44L6 44L6 39ZM2 40L2 43L5 43L5 40Z" fill="#000000"/></g></g></svg>
