<?xml version="1.0" encoding="UTF-8"?>
<svg xmlns="http://www.w3.org/2000/svg" version="1.1" width="200" height="200" viewBox="0 0 200 200"><rect x="0" y="0" width="200" height="200" fill="#ffffff"/><g transform="scale(4.878)"><g transform="translate(0,0)"><path fill-rule="evenodd" d="M9 0L9 1L8 1L8 2L9 2L9 3L8 3L8 4L9 4L9 3L11 3L11 2L9 2L9 1L10 1L10 0ZM13 0L13 3L12 3L12 4L11 4L11 5L8 5L8 7L9 7L9 6L10 6L10 8L6 8L6 9L7 9L7 10L6 10L6 11L4 11L4 10L2 10L2 11L3 11L3 12L6 12L6 13L5 13L5 14L4 14L4 15L3 15L3 19L5 19L5 20L4 20L4 22L3 22L3 21L2 21L2 22L1 22L1 20L2 20L2 19L1 19L1 20L0 20L0 23L1 23L1 24L0 24L0 25L2 25L2 26L0 26L0 27L2 27L2 28L1 28L1 29L0 29L0 33L1 33L1 29L2 29L2 28L3 28L3 30L2 30L2 31L3 31L3 32L2 32L2 33L8 33L8 35L11 35L11 36L12 36L12 35L13 35L13 36L14 36L14 37L12 37L12 38L13 38L13 39L12 39L12 40L13 40L13 39L14 39L14 37L15 37L15 40L14 40L14 41L16 41L16 39L17 39L17 38L16 38L16 37L17 37L17 36L20 36L20 35L18 35L18 33L19 33L19 34L20 34L20 33L21 33L21 36L22 36L22 37L18 37L18 38L20 38L20 39L21 39L21 40L17 40L17 41L21 41L21 40L22 40L22 37L23 37L23 38L24 38L24 39L23 39L23 41L24 41L24 39L25 39L25 38L26 38L26 37L27 37L27 35L28 35L28 36L29 36L29 37L28 37L28 38L27 38L27 39L26 39L26 40L25 40L25 41L28 41L28 40L29 40L29 41L30 41L30 40L31 40L31 38L33 38L33 39L32 39L32 40L33 40L33 39L34 39L34 38L33 38L33 37L36 37L36 38L35 38L35 40L37 40L37 41L39 41L39 40L40 40L40 39L39 39L39 40L37 40L37 38L39 38L39 37L37 37L37 36L38 36L38 35L37 35L37 32L38 32L38 33L39 33L39 32L38 32L38 30L37 30L37 29L36 29L36 30L37 30L37 32L35 32L35 29L34 29L34 28L33 28L33 27L32 27L32 28L31 28L31 27L30 27L30 28L24 28L24 29L23 29L23 28L22 28L22 27L23 27L23 26L24 26L24 25L25 25L25 27L29 27L29 25L30 25L30 26L34 26L34 24L35 24L35 25L36 25L36 27L35 27L35 28L37 28L37 27L38 27L38 26L37 26L37 25L36 25L36 24L38 24L38 25L39 25L39 28L38 28L38 29L40 29L40 28L41 28L41 27L40 27L40 26L41 26L41 25L39 25L39 24L41 24L41 23L39 23L39 24L38 24L38 23L37 23L37 22L38 22L38 21L39 21L39 22L41 22L41 21L40 21L40 19L39 19L39 20L38 20L38 19L37 19L37 20L35 20L35 21L34 21L34 18L35 18L35 17L34 17L34 16L35 16L35 15L34 15L34 14L35 14L35 13L34 13L34 11L33 11L33 9L34 9L34 10L35 10L35 9L36 9L36 12L38 12L38 13L36 13L36 14L37 14L37 15L36 15L36 16L37 16L37 17L36 17L36 18L38 18L38 17L39 17L39 16L38 16L38 15L39 15L39 14L41 14L41 13L39 13L39 12L40 12L40 11L39 11L39 10L41 10L41 9L40 9L40 8L39 8L39 9L38 9L38 8L37 8L37 9L36 9L36 8L35 8L35 9L34 9L34 8L33 8L33 9L32 9L32 7L33 7L33 6L32 6L32 7L31 7L31 6L30 6L30 8L29 8L29 9L30 9L30 10L27 10L27 12L25 12L25 11L26 11L26 10L24 10L24 11L23 11L23 6L22 6L22 5L23 5L23 2L22 2L22 0L21 0L21 1L20 1L20 0L19 0L19 1L18 1L18 0L17 0L17 1L15 1L15 0ZM23 0L23 1L24 1L24 2L26 2L26 0L25 0L25 1L24 1L24 0ZM27 0L27 3L26 3L26 4L25 4L25 5L24 5L24 9L28 9L28 7L29 7L29 6L28 6L28 1L29 1L29 0ZM31 0L31 1L30 1L30 3L29 3L29 4L30 4L30 3L31 3L31 4L32 4L32 5L33 5L33 2L31 2L31 1L33 1L33 0ZM19 1L19 3L20 3L20 1ZM14 2L14 3L13 3L13 5L12 5L12 6L11 6L11 8L10 8L10 9L11 9L11 11L12 11L12 12L13 12L13 13L10 13L10 14L13 14L13 13L17 13L17 14L14 14L14 15L12 15L12 16L14 16L14 17L15 17L15 18L16 18L16 20L15 20L15 19L14 19L14 20L13 20L13 19L12 19L12 18L13 18L13 17L12 17L12 18L11 18L11 15L10 15L10 17L9 17L9 16L7 16L7 15L6 15L6 14L9 14L9 13L8 13L8 11L9 11L9 12L10 12L10 10L7 10L7 11L6 11L6 12L7 12L7 13L6 13L6 14L5 14L5 15L6 15L6 16L4 16L4 17L6 17L6 18L5 18L5 19L6 19L6 20L7 20L7 21L5 21L5 22L4 22L4 24L3 24L3 23L2 23L2 24L3 24L3 26L4 26L4 27L3 27L3 28L4 28L4 27L5 27L5 28L7 28L7 29L6 29L6 30L7 30L7 31L5 31L5 30L4 30L4 31L5 31L5 32L7 32L7 31L10 31L10 32L8 32L8 33L11 33L11 30L14 30L14 29L15 29L15 28L14 28L14 27L15 27L15 26L16 26L16 29L17 29L17 30L15 30L15 31L12 31L12 32L13 32L13 33L12 33L12 34L11 34L11 35L12 35L12 34L13 34L13 33L14 33L14 34L16 34L16 36L17 36L17 33L16 33L16 31L17 31L17 32L18 32L18 31L17 31L17 30L18 30L18 27L17 27L17 25L15 25L15 24L14 24L14 22L15 22L15 21L16 21L16 22L17 22L17 23L16 23L16 24L19 24L19 25L18 25L18 26L19 26L19 29L21 29L21 30L19 30L19 33L20 33L20 31L22 31L22 32L21 32L21 33L22 33L22 34L23 34L23 35L22 35L22 36L23 36L23 37L24 37L24 38L25 38L25 37L24 37L24 35L25 35L25 36L26 36L26 35L27 35L27 34L28 34L28 31L27 31L27 30L28 30L28 29L25 29L25 30L22 30L22 28L21 28L21 27L22 27L22 25L24 25L24 22L23 22L23 21L24 21L24 20L26 20L26 19L27 19L27 18L28 18L28 17L29 17L29 16L31 16L31 17L30 17L30 19L29 19L29 20L30 20L30 21L31 21L31 20L33 20L33 19L32 19L32 18L31 18L31 17L33 17L33 18L34 18L34 17L33 17L33 12L32 12L32 10L31 10L31 12L30 12L30 11L29 11L29 12L28 12L28 13L25 13L25 14L23 14L23 13L22 13L22 12L20 12L20 10L21 10L21 9L22 9L22 8L20 8L20 5L21 5L21 4L22 4L22 3L21 3L21 4L20 4L20 5L19 5L19 9L15 9L15 7L16 7L16 8L18 8L18 4L16 4L16 5L17 5L17 7L16 7L16 6L15 6L15 4L14 4L14 3L15 3L15 2ZM17 2L17 3L18 3L18 2ZM26 4L26 5L25 5L25 8L27 8L27 7L28 7L28 6L27 6L27 4ZM13 5L13 6L12 6L12 7L13 7L13 6L14 6L14 7L15 7L15 6L14 6L14 5ZM21 6L21 7L22 7L22 6ZM26 6L26 7L27 7L27 6ZM0 8L0 13L1 13L1 14L0 14L0 16L1 16L1 15L2 15L2 13L1 13L1 9L5 9L5 8ZM11 8L11 9L12 9L12 10L13 10L13 9L14 9L14 10L15 10L15 11L14 11L14 12L15 12L15 11L16 11L16 10L15 10L15 9L14 9L14 8L13 8L13 9L12 9L12 8ZM30 8L30 9L31 9L31 8ZM19 9L19 10L18 10L18 12L17 12L17 13L19 13L19 14L18 14L18 15L19 15L19 14L21 14L21 15L20 15L20 17L19 17L19 16L17 16L17 15L16 15L16 17L17 17L17 18L18 18L18 21L17 21L17 20L16 20L16 21L17 21L17 22L20 22L20 23L21 23L21 24L20 24L20 25L19 25L19 26L20 26L20 25L21 25L21 24L23 24L23 23L22 23L22 21L23 21L23 19L22 19L22 17L24 17L24 18L25 18L25 17L27 17L27 15L28 15L28 14L26 14L26 16L22 16L22 15L23 15L23 14L22 14L22 13L19 13L19 10L20 10L20 9ZM37 10L37 11L38 11L38 12L39 12L39 11L38 11L38 10ZM29 12L29 13L30 13L30 14L31 14L31 13L30 13L30 12ZM31 15L31 16L32 16L32 15ZM6 16L6 17L7 17L7 16ZM21 16L21 17L20 17L20 18L19 18L19 19L20 19L20 20L19 20L19 21L22 21L22 20L21 20L21 17L22 17L22 16ZM1 17L1 18L2 18L2 17ZM6 18L6 19L7 19L7 18ZM9 18L9 19L8 19L8 20L10 20L10 21L12 21L12 22L13 22L13 21L12 21L12 20L11 20L11 19L10 19L10 18ZM14 20L14 21L15 21L15 20ZM37 20L37 21L38 21L38 20ZM8 21L8 22L6 22L6 23L9 23L9 24L5 24L5 27L7 27L7 26L6 26L6 25L8 25L8 26L12 26L12 25L14 25L14 26L15 26L15 25L14 25L14 24L13 24L13 23L12 23L12 25L10 25L10 23L11 23L11 22L10 22L10 23L9 23L9 21ZM26 21L26 22L29 22L29 21ZM32 21L32 22L31 22L31 24L32 24L32 25L33 25L33 23L35 23L35 24L36 24L36 22L34 22L34 21ZM32 22L32 23L33 23L33 22ZM25 23L25 24L30 24L30 23ZM27 25L27 26L28 26L28 25ZM8 27L8 28L9 28L9 27ZM10 27L10 28L11 28L11 27ZM12 27L12 29L13 29L13 27ZM30 28L30 29L29 29L29 36L30 36L30 38L31 38L31 37L32 37L32 36L31 36L31 34L32 34L32 33L31 33L31 32L32 32L32 31L33 31L33 30L34 30L34 29L32 29L32 30L31 30L31 28ZM8 29L8 30L9 30L9 29ZM25 30L25 31L24 31L24 32L25 32L25 33L27 33L27 32L25 32L25 31L26 31L26 30ZM30 30L30 32L31 32L31 30ZM40 31L40 32L41 32L41 31ZM23 33L23 34L24 34L24 33ZM30 33L30 34L31 34L31 33ZM33 33L33 36L36 36L36 33ZM40 33L40 34L41 34L41 33ZM34 34L34 35L35 35L35 34ZM14 35L14 36L15 36L15 35ZM40 35L40 38L41 38L41 35ZM8 36L8 41L10 41L10 39L9 39L9 37L10 37L10 38L11 38L11 37L10 37L10 36ZM28 38L28 39L29 39L29 40L30 40L30 39L29 39L29 38ZM0 0L0 7L7 7L7 0ZM1 1L1 6L6 6L6 1ZM2 2L2 5L5 5L5 2ZM34 0L34 7L41 7L41 0ZM35 1L35 6L40 6L40 1ZM36 2L36 5L39 5L39 2ZM0 34L0 41L7 41L7 34ZM1 35L1 40L6 40L6 35ZM2 36L2 39L5 39L5 36Z" fill="#000000"/></g></g></svg>
