<?xml version="1.0" encoding="UTF-8"?>
<svg xmlns="http://www.w3.org/2000/svg" version="1.1" width="200" height="200" viewBox="0 0 200 200"><rect x="0" y="0" width="200" height="200" fill="#ffffff"/><g transform="scale(4.444)"><g transform="translate(0,0)"><path fill-rule="evenodd" d="M8 0L8 4L10 4L10 5L8 5L8 7L9 7L9 8L10 8L10 9L9 9L9 11L8 11L8 10L6 10L6 11L8 11L8 12L6 12L6 13L4 13L4 14L2 14L2 13L3 13L3 12L5 12L5 10L4 10L4 9L7 9L7 8L4 8L4 9L3 9L3 12L2 12L2 13L1 13L1 14L2 14L2 15L1 15L1 16L2 16L2 17L0 17L0 18L1 18L1 19L0 19L0 25L1 25L1 24L4 24L4 26L3 26L3 25L2 25L2 26L3 26L3 29L2 29L2 34L3 34L3 33L5 33L5 32L6 32L6 33L7 33L7 32L8 32L8 33L11 33L11 34L10 34L10 35L8 35L8 34L6 34L6 35L8 35L8 36L6 36L6 37L8 37L8 38L9 38L9 36L10 36L10 37L12 37L12 38L11 38L11 39L8 39L8 41L9 41L9 42L10 42L10 43L8 43L8 45L9 45L9 44L10 44L10 45L11 45L11 44L12 44L12 43L11 43L11 41L12 41L12 42L13 42L13 45L17 45L17 44L15 44L15 43L16 43L16 42L18 42L18 43L19 43L19 44L18 44L18 45L21 45L21 44L22 44L22 45L25 45L25 44L27 44L27 45L28 45L28 43L29 43L29 42L30 42L30 44L29 44L29 45L30 45L30 44L31 44L31 45L33 45L33 42L32 42L32 41L33 41L33 40L34 40L34 41L35 41L35 40L36 40L36 41L41 41L41 40L42 40L42 39L41 39L41 36L42 36L42 33L41 33L41 32L40 32L40 31L42 31L42 30L43 30L43 29L44 29L44 28L45 28L45 27L43 27L43 26L44 26L44 25L45 25L45 23L43 23L43 22L42 22L42 21L41 21L41 20L42 20L42 19L44 19L44 20L43 20L43 21L45 21L45 19L44 19L44 18L45 18L45 16L44 16L44 15L43 15L43 17L44 17L44 18L40 18L40 19L39 19L39 17L38 17L38 16L40 16L40 15L39 15L39 13L40 13L40 11L41 11L41 10L43 10L43 11L44 11L44 13L45 13L45 11L44 11L44 9L45 9L45 8L41 8L41 9L40 9L40 8L39 8L39 9L35 9L35 10L37 10L37 11L34 11L34 8L35 8L35 6L34 6L34 8L33 8L33 6L32 6L32 5L37 5L37 3L36 3L36 1L37 1L37 0L36 0L36 1L35 1L35 4L34 4L34 2L33 2L33 0L32 0L32 3L33 3L33 4L32 4L32 5L31 5L31 3L30 3L30 2L29 2L29 1L31 1L31 0L28 0L28 1L27 1L27 0L26 0L26 1L27 1L27 3L26 3L26 4L23 4L23 3L24 3L24 2L25 2L25 1L23 1L23 0L22 0L22 1L23 1L23 2L22 2L22 4L21 4L21 3L19 3L19 2L20 2L20 1L21 1L21 0L20 0L20 1L18 1L18 0L17 0L17 1L18 1L18 2L16 2L16 1L15 1L15 0L14 0L14 1L13 1L13 2L14 2L14 3L17 3L17 6L16 6L16 5L15 5L15 6L14 6L14 8L17 8L17 6L18 6L18 7L19 7L19 6L20 6L20 8L18 8L18 10L20 10L20 11L21 11L21 9L26 9L26 12L24 12L24 10L22 10L22 12L20 12L20 13L19 13L19 12L18 12L18 13L19 13L19 14L18 14L18 15L17 15L17 14L15 14L15 16L14 16L14 15L13 15L13 14L11 14L11 16L10 16L10 13L11 13L11 11L12 11L12 13L17 13L17 12L14 12L14 11L12 11L12 10L15 10L15 11L16 11L16 10L17 10L17 9L11 9L11 6L10 6L10 5L11 5L11 4L12 4L12 5L13 5L13 4L12 4L12 2L11 2L11 3L10 3L10 2L9 2L9 1L10 1L10 0ZM11 0L11 1L12 1L12 0ZM14 1L14 2L15 2L15 1ZM28 2L28 3L29 3L29 2ZM18 3L18 6L19 6L19 3ZM29 4L29 5L25 5L25 8L26 8L26 9L27 9L27 7L28 7L28 10L27 10L27 12L26 12L26 13L27 13L27 12L28 12L28 13L29 13L29 14L27 14L27 15L28 15L28 17L27 17L27 18L28 18L28 21L27 21L27 19L25 19L25 18L26 18L26 14L24 14L24 12L23 12L23 13L20 13L20 14L21 14L21 15L19 15L19 16L18 16L18 17L17 17L17 16L16 16L16 17L15 17L15 18L14 18L14 17L12 17L12 16L11 16L11 17L12 17L12 18L11 18L11 21L10 21L10 22L9 22L9 23L10 23L10 22L11 22L11 24L12 24L12 22L17 22L17 21L18 21L18 23L17 23L17 24L16 24L16 23L15 23L15 24L14 24L14 23L13 23L13 25L18 25L18 24L19 24L19 26L18 26L18 28L17 28L17 26L16 26L16 27L15 27L15 28L16 28L16 30L15 30L15 29L13 29L13 28L14 28L14 26L12 26L12 25L11 25L11 26L9 26L9 27L10 27L10 28L8 28L8 29L6 29L6 28L7 28L7 27L8 27L8 26L7 26L7 25L5 25L5 26L4 26L4 31L5 31L5 30L8 30L8 32L9 32L9 29L10 29L10 32L11 32L11 33L12 33L12 34L14 34L14 35L13 35L13 36L12 36L12 35L11 35L11 36L12 36L12 37L13 37L13 38L18 38L18 39L17 39L17 40L14 40L14 39L13 39L13 41L18 41L18 40L20 40L20 39L19 39L19 37L20 37L20 36L21 36L21 35L22 35L22 33L23 33L23 34L25 34L25 35L24 35L24 36L25 36L25 39L26 39L26 40L25 40L25 41L20 41L20 42L19 42L19 43L20 43L20 42L21 42L21 43L23 43L23 42L24 42L24 43L26 43L26 42L25 42L25 41L26 41L26 40L27 40L27 39L28 39L28 41L27 41L27 43L28 43L28 41L30 41L30 39L28 39L28 38L29 38L29 37L31 37L31 35L33 35L33 34L34 34L34 35L37 35L37 32L38 32L38 31L40 31L40 30L41 30L41 29L43 29L43 27L42 27L42 28L39 28L39 29L38 29L38 30L37 30L37 32L36 32L36 31L35 31L35 32L34 32L34 30L35 30L35 29L37 29L37 28L38 28L38 27L40 27L40 26L42 26L42 25L44 25L44 24L43 24L43 23L41 23L41 25L40 25L40 26L39 26L39 25L38 25L38 26L37 26L37 25L36 25L36 24L34 24L34 23L36 23L36 22L35 22L35 21L36 21L36 19L37 19L37 20L39 20L39 19L37 19L37 18L36 18L36 19L35 19L35 17L37 17L37 16L38 16L38 15L37 15L37 14L38 14L38 13L39 13L39 12L35 12L35 13L34 13L34 12L33 12L33 17L32 17L32 16L31 16L31 15L32 15L32 13L31 13L31 15L30 15L30 16L29 16L29 14L30 14L30 11L28 11L28 10L30 10L30 9L29 9L29 8L31 8L31 11L33 11L33 9L32 9L32 8L31 8L31 7L32 7L32 6L31 6L31 5L30 5L30 4ZM21 5L21 8L24 8L24 5ZM9 6L9 7L10 7L10 6ZM12 6L12 7L13 7L13 6ZM15 6L15 7L16 7L16 6ZM22 6L22 7L23 7L23 6ZM26 6L26 7L27 7L27 6ZM28 6L28 7L29 7L29 6ZM30 6L30 7L31 7L31 6ZM36 6L36 8L37 8L37 6ZM0 8L0 10L2 10L2 8ZM39 9L39 10L40 10L40 9ZM10 10L10 11L11 11L11 10ZM8 12L8 13L9 13L9 12ZM41 12L41 14L43 14L43 12ZM6 13L6 14L4 14L4 15L2 15L2 16L5 16L5 15L6 15L6 16L7 16L7 17L5 17L5 20L8 20L8 19L10 19L10 18L7 18L7 17L8 17L8 16L9 16L9 17L10 17L10 16L9 16L9 15L6 15L6 14L7 14L7 13ZM35 13L35 14L37 14L37 13ZM22 14L22 16L21 16L21 17L20 17L20 16L19 16L19 17L18 17L18 19L19 19L19 18L20 18L20 19L22 19L22 20L20 20L20 21L19 21L19 20L18 20L18 21L19 21L19 22L20 22L20 26L21 26L21 25L22 25L22 27L21 27L21 29L20 29L20 27L19 27L19 28L18 28L18 29L17 29L17 30L16 30L16 32L14 32L14 31L13 31L13 29L12 29L12 27L11 27L11 29L12 29L12 31L11 31L11 32L12 32L12 33L14 33L14 34L15 34L15 33L16 33L16 32L17 32L17 33L18 33L18 34L16 34L16 35L15 35L15 36L13 36L13 37L17 37L17 36L18 36L18 37L19 37L19 36L20 36L20 35L18 35L18 34L19 34L19 33L20 33L20 34L21 34L21 32L19 32L19 30L18 30L18 29L20 29L20 30L21 30L21 31L22 31L22 32L23 32L23 31L25 31L25 32L26 32L26 39L27 39L27 37L28 37L28 36L27 36L27 35L29 35L29 36L30 36L30 35L31 35L31 34L32 34L32 33L34 33L34 32L32 32L32 33L31 33L31 30L32 30L32 29L33 29L33 30L34 30L34 29L35 29L35 27L36 27L36 28L37 28L37 27L36 27L36 26L35 26L35 27L34 27L34 25L33 25L33 23L34 23L34 22L33 22L33 20L34 20L34 21L35 21L35 20L34 20L34 19L33 19L33 18L34 18L34 17L35 17L35 16L36 16L36 15L35 15L35 16L34 16L34 17L33 17L33 18L31 18L31 16L30 16L30 17L29 17L29 18L31 18L31 21L29 21L29 22L28 22L28 23L27 23L27 24L26 24L26 26L24 26L24 25L25 25L25 21L26 21L26 22L27 22L27 21L26 21L26 20L25 20L25 19L24 19L24 18L22 18L22 17L23 17L23 16L24 16L24 17L25 17L25 15L23 15L23 14ZM2 17L2 21L1 21L1 22L3 22L3 23L4 23L4 22L3 22L3 21L4 21L4 20L3 20L3 18L4 18L4 17ZM6 18L6 19L7 19L7 18ZM13 18L13 21L17 21L17 18L16 18L16 19L15 19L15 20L14 20L14 18ZM23 19L23 20L24 20L24 19ZM29 19L29 20L30 20L30 19ZM40 19L40 20L41 20L41 19ZM5 21L5 24L8 24L8 21ZM21 21L21 24L24 24L24 21ZM37 21L37 24L40 24L40 21ZM6 22L6 23L7 23L7 22ZM22 22L22 23L23 23L23 22ZM29 22L29 23L30 23L30 25L32 25L32 26L31 26L31 27L30 27L30 28L29 28L29 27L27 27L27 28L28 28L28 30L27 30L27 31L26 31L26 28L25 28L25 27L24 27L24 28L22 28L22 29L21 29L21 30L22 30L22 29L24 29L24 30L25 30L25 31L26 31L26 32L27 32L27 33L28 33L28 34L29 34L29 31L30 31L30 30L29 30L29 29L30 29L30 28L32 28L32 26L33 26L33 25L32 25L32 23L31 23L31 22ZM38 22L38 23L39 23L39 22ZM28 24L28 25L27 25L27 26L29 26L29 24ZM5 26L5 28L6 28L6 27L7 27L7 26ZM0 27L0 28L2 28L2 27ZM24 28L24 29L25 29L25 28ZM33 28L33 29L34 29L34 28ZM0 29L0 30L1 30L1 29ZM39 29L39 30L40 30L40 29ZM17 30L17 31L18 31L18 30ZM28 30L28 31L27 31L27 32L28 32L28 31L29 31L29 30ZM6 31L6 32L7 32L7 31ZM12 31L12 32L13 32L13 31ZM44 31L44 33L45 33L45 31ZM0 32L0 34L1 34L1 32ZM18 32L18 33L19 33L19 32ZM39 32L39 33L40 33L40 35L39 35L39 34L38 34L38 36L40 36L40 35L41 35L41 33L40 33L40 32ZM35 33L35 34L36 34L36 33ZM4 34L4 35L1 35L1 36L0 36L0 37L1 37L1 36L3 36L3 37L5 37L5 34ZM43 34L43 35L44 35L44 34ZM33 36L33 38L31 38L31 40L32 40L32 39L33 39L33 38L34 38L34 39L36 39L36 36L35 36L35 37L34 37L34 36ZM43 36L43 37L42 37L42 38L43 38L43 37L44 37L44 36ZM21 37L21 40L24 40L24 37ZM37 37L37 40L40 40L40 37ZM22 38L22 39L23 39L23 38ZM38 38L38 39L39 39L39 38ZM11 39L11 40L10 40L10 41L11 41L11 40L12 40L12 39ZM44 39L44 41L42 41L42 42L40 42L40 43L39 43L39 44L41 44L41 45L43 45L43 44L41 44L41 43L43 43L43 42L44 42L44 43L45 43L45 39ZM14 42L14 43L15 43L15 42ZM31 42L31 44L32 44L32 42ZM10 43L10 44L11 44L11 43ZM34 43L34 44L35 44L35 45L38 45L38 44L36 44L36 43ZM44 44L44 45L45 45L45 44ZM0 0L0 7L7 7L7 0ZM1 1L1 6L6 6L6 1ZM2 2L2 5L5 5L5 2ZM38 0L38 7L45 7L45 0ZM39 1L39 6L44 6L44 1ZM40 2L40 5L43 5L43 2ZM0 38L0 45L7 45L7 38ZM1 39L1 44L6 44L6 39ZM2 40L2 43L5 43L5 40Z" fill="#000000"/></g></g></svg>
