<?xml version="1.0" encoding="UTF-8"?>
<svg xmlns="http://www.w3.org/2000/svg" version="1.1" width="200" height="200" viewBox="0 0 200 200"><rect x="0" y="0" width="200" height="200" fill="#ffffff"/><g transform="scale(4.878)"><g transform="translate(0,0)"><path fill-rule="evenodd" d="M10 0L10 1L8 1L8 2L11 2L11 5L8 5L8 7L9 7L9 8L6 8L6 9L8 9L8 10L6 10L6 11L3 11L3 10L2 10L2 9L4 9L4 10L5 10L5 8L0 8L0 9L1 9L1 10L0 10L0 11L2 11L2 13L1 13L1 12L0 12L0 13L1 13L1 14L2 14L2 15L3 15L3 16L4 16L4 17L2 17L2 18L1 18L1 19L0 19L0 21L1 21L1 20L3 20L3 21L2 21L2 23L0 23L0 24L2 24L2 26L3 26L3 27L0 27L0 28L3 28L3 27L4 27L4 29L2 29L2 30L3 30L3 32L2 32L2 33L3 33L3 32L4 32L4 30L5 30L5 29L8 29L8 32L9 32L9 31L10 31L10 30L11 30L11 28L10 28L10 27L8 27L8 25L9 25L9 26L10 26L10 25L11 25L11 26L13 26L13 25L14 25L14 26L15 26L15 32L16 32L16 33L17 33L17 34L15 34L15 33L14 33L14 32L13 32L13 33L12 33L12 32L10 32L10 33L8 33L8 35L9 35L9 36L8 36L8 41L9 41L9 40L13 40L13 41L14 41L14 40L13 40L13 39L14 39L14 36L17 36L17 37L18 37L18 38L20 38L20 39L19 39L19 40L17 40L17 41L20 41L20 40L22 40L22 41L23 41L23 40L22 40L22 39L23 39L23 38L24 38L24 41L32 41L32 40L34 40L34 39L35 39L35 40L36 40L36 41L39 41L39 40L40 40L40 39L41 39L41 38L40 38L40 36L41 36L41 35L40 35L40 34L41 34L41 33L40 33L40 34L39 34L39 35L40 35L40 36L38 36L38 35L37 35L37 34L38 34L38 33L39 33L39 32L40 32L40 31L39 31L39 32L37 32L37 31L38 31L38 29L39 29L39 28L41 28L41 27L40 27L40 26L41 26L41 23L40 23L40 22L41 22L41 19L40 19L40 18L41 18L41 17L40 17L40 16L41 16L41 15L39 15L39 14L38 14L38 13L39 13L39 12L40 12L40 10L41 10L41 9L40 9L40 8L39 8L39 9L40 9L40 10L38 10L38 8L37 8L37 9L36 9L36 8L35 8L35 9L34 9L34 8L33 8L33 9L30 9L30 8L29 8L29 6L28 6L28 5L27 5L27 4L28 4L28 3L27 3L27 4L26 4L26 3L25 3L25 4L26 4L26 8L25 8L25 5L24 5L24 4L23 4L23 3L22 3L22 2L21 2L21 3L22 3L22 4L20 4L20 2L19 2L19 1L20 1L20 0L18 0L18 2L19 2L19 4L20 4L20 5L21 5L21 6L20 6L20 7L19 7L19 5L17 5L17 6L16 6L16 5L13 5L13 4L14 4L14 3L12 3L12 0ZM13 0L13 2L14 2L14 1L15 1L15 2L16 2L16 1L15 1L15 0ZM21 0L21 1L22 1L22 0ZM23 0L23 1L24 1L24 0ZM26 0L26 1L27 1L27 2L29 2L29 0L28 0L28 1L27 1L27 0ZM30 0L30 1L32 1L32 2L33 2L33 0ZM30 2L30 3L29 3L29 4L30 4L30 5L31 5L31 4L32 4L32 5L33 5L33 3L31 3L31 2ZM8 3L8 4L9 4L9 3ZM15 3L15 4L18 4L18 3ZM30 3L30 4L31 4L31 3ZM22 4L22 5L23 5L23 8L21 8L21 7L22 7L22 6L21 6L21 7L20 7L20 8L19 8L19 9L15 9L15 10L14 10L14 6L13 6L13 5L11 5L11 7L10 7L10 6L9 6L9 7L10 7L10 8L12 8L12 9L13 9L13 10L10 10L10 9L9 9L9 10L8 10L8 12L7 12L7 11L6 11L6 12L5 12L5 14L4 14L4 12L3 12L3 15L5 15L5 14L7 14L7 15L6 15L6 16L8 16L8 18L7 18L7 17L6 17L6 18L5 18L5 19L6 19L6 20L7 20L7 19L8 19L8 20L9 20L9 25L10 25L10 24L11 24L11 23L10 23L10 22L13 22L13 23L12 23L12 25L13 25L13 24L14 24L14 25L15 25L15 26L16 26L16 28L18 28L18 29L17 29L17 30L16 30L16 32L18 32L18 31L17 31L17 30L19 30L19 31L20 31L20 32L19 32L19 33L18 33L18 34L19 34L19 37L20 37L20 36L21 36L21 37L22 37L22 38L23 38L23 37L22 37L22 36L23 36L23 35L24 35L24 36L26 36L26 37L25 37L25 40L26 40L26 37L27 37L27 38L28 38L28 39L27 39L27 40L30 40L30 39L29 39L29 38L30 38L30 37L28 37L28 36L30 36L30 35L31 35L31 38L33 38L33 37L32 37L32 35L31 35L31 34L32 34L32 33L31 33L31 34L29 34L29 32L32 32L32 31L33 31L33 32L35 32L35 31L37 31L37 30L34 30L34 31L33 31L33 30L30 30L30 29L35 29L35 28L36 28L36 26L34 26L34 25L36 25L36 24L40 24L40 23L39 23L39 22L38 22L38 20L39 20L39 21L40 21L40 20L39 20L39 18L40 18L40 17L38 17L38 20L37 20L37 19L35 19L35 18L34 18L34 17L36 17L36 15L37 15L37 16L39 16L39 15L37 15L37 14L36 14L36 13L38 13L38 12L39 12L39 11L38 11L38 10L37 10L37 11L38 11L38 12L35 12L35 11L36 11L36 9L35 9L35 11L34 11L34 10L30 10L30 11L29 11L29 12L28 12L28 11L27 11L27 12L26 12L26 10L28 10L28 9L25 9L25 8L24 8L24 5L23 5L23 4ZM12 6L12 8L13 8L13 6ZM15 6L15 7L16 7L16 6ZM17 6L17 8L18 8L18 6ZM27 6L27 7L28 7L28 6ZM30 6L30 7L31 7L31 6ZM32 6L32 7L33 7L33 6ZM20 8L20 9L19 9L19 10L15 10L15 12L17 12L17 13L16 13L16 14L15 14L15 13L14 13L14 12L13 12L13 13L12 13L12 11L11 11L11 12L10 12L10 10L9 10L9 13L12 13L12 14L13 14L13 13L14 13L14 15L15 15L15 17L14 17L14 16L13 16L13 15L12 15L12 16L13 16L13 17L10 17L10 21L14 21L14 22L15 22L15 23L14 23L14 24L15 24L15 25L17 25L17 27L18 27L18 25L19 25L19 26L21 26L21 27L20 27L20 28L22 28L22 29L21 29L21 30L20 30L20 29L19 29L19 30L20 30L20 31L21 31L21 32L20 32L20 33L19 33L19 34L20 34L20 35L21 35L21 36L22 36L22 35L23 35L23 34L24 34L24 35L25 35L25 34L26 34L26 33L27 33L27 32L25 32L25 30L27 30L27 31L28 31L28 30L27 30L27 29L28 29L28 28L27 28L27 29L26 29L26 28L25 28L25 26L26 26L26 27L28 27L28 26L29 26L29 25L30 25L30 27L31 27L31 28L32 28L32 27L31 27L31 25L32 25L32 26L33 26L33 25L34 25L34 24L35 24L35 22L33 22L33 20L35 20L35 19L34 19L34 18L33 18L33 17L34 17L34 16L35 16L35 15L34 15L34 14L35 14L35 13L34 13L34 11L32 11L32 12L31 12L31 14L32 14L32 12L33 12L33 17L31 17L31 18L32 18L32 19L30 19L30 20L28 20L28 21L27 21L27 23L28 23L28 22L29 22L29 21L30 21L30 22L32 22L32 23L30 23L30 24L29 24L29 25L28 25L28 24L26 24L26 25L25 25L25 24L23 24L23 26L22 26L22 25L19 25L19 24L20 24L20 23L19 23L19 22L20 22L20 21L21 21L21 20L22 20L22 22L21 22L21 24L22 24L22 23L23 23L23 22L24 22L24 23L25 23L25 21L26 21L26 20L27 20L27 19L28 19L28 18L29 18L29 17L30 17L30 16L32 16L32 15L30 15L30 12L29 12L29 15L30 15L30 16L29 16L29 17L28 17L28 16L27 16L27 15L28 15L28 14L27 14L27 13L26 13L26 12L25 12L25 11L24 11L24 12L25 12L25 13L26 13L26 16L25 16L25 14L24 14L24 15L23 15L23 16L25 16L25 18L26 18L26 16L27 16L27 17L28 17L28 18L27 18L27 19L26 19L26 20L25 20L25 19L24 19L24 20L22 20L22 19L23 19L23 18L24 18L24 17L23 17L23 18L22 18L22 17L21 17L21 18L20 18L20 15L19 15L19 14L20 14L20 13L19 13L19 14L17 14L17 13L18 13L18 12L20 12L20 11L19 11L19 10L20 10L20 9L21 9L21 8ZM23 9L23 10L22 10L22 11L21 11L21 12L22 12L22 13L21 13L21 14L22 14L22 13L23 13L23 10L24 10L24 9ZM17 11L17 12L18 12L18 11ZM6 12L6 13L7 13L7 14L8 14L8 13L7 13L7 12ZM10 14L10 16L11 16L11 14ZM16 14L16 15L17 15L17 16L16 16L16 17L15 17L15 18L14 18L14 17L13 17L13 20L14 20L14 21L15 21L15 22L16 22L16 21L15 21L15 20L14 20L14 19L15 19L15 18L19 18L19 20L18 20L18 19L16 19L16 20L18 20L18 21L17 21L17 23L16 23L16 24L18 24L18 21L20 21L20 20L21 20L21 19L20 19L20 18L19 18L19 17L17 17L17 16L18 16L18 15L17 15L17 14ZM0 15L0 16L1 16L1 15ZM8 15L8 16L9 16L9 15ZM21 15L21 16L22 16L22 15ZM2 18L2 19L4 19L4 18ZM6 18L6 19L7 19L7 18ZM11 18L11 19L12 19L12 18ZM32 19L32 20L30 20L30 21L32 21L32 20L33 20L33 19ZM3 21L3 22L4 22L4 23L3 23L3 25L4 25L4 27L6 27L6 28L8 28L8 29L9 29L9 30L10 30L10 28L8 28L8 27L6 27L6 26L7 26L7 25L6 25L6 24L8 24L8 23L6 23L6 24L4 24L4 23L5 23L5 22L8 22L8 21L5 21L5 22L4 22L4 21ZM36 21L36 22L37 22L37 23L38 23L38 22L37 22L37 21ZM30 24L30 25L31 25L31 24ZM32 24L32 25L33 25L33 24ZM24 25L24 26L23 26L23 27L24 27L24 26L25 26L25 25ZM26 25L26 26L27 26L27 25ZM37 26L37 27L38 27L38 28L37 28L37 29L38 29L38 28L39 28L39 27L38 27L38 26ZM33 27L33 28L35 28L35 27ZM12 28L12 30L13 30L13 31L14 31L14 30L13 30L13 29L14 29L14 28ZM23 28L23 29L24 29L24 28ZM29 28L29 29L30 29L30 28ZM0 29L0 33L1 33L1 29ZM40 29L40 30L41 30L41 29ZM6 30L6 31L7 31L7 30ZM21 30L21 31L22 31L22 32L23 32L23 33L22 33L22 34L23 34L23 33L24 33L24 34L25 34L25 32L23 32L23 31L24 31L24 30ZM6 32L6 33L7 33L7 32ZM33 33L33 36L36 36L36 33ZM10 34L10 35L11 35L11 37L12 37L12 38L10 38L10 39L12 39L12 38L13 38L13 36L14 36L14 35L15 35L15 34L13 34L13 36L12 36L12 34ZM27 34L27 35L26 35L26 36L27 36L27 35L28 35L28 34ZM34 34L34 35L35 35L35 34ZM17 35L17 36L18 36L18 35ZM37 36L37 37L34 37L34 38L35 38L35 39L36 39L36 38L38 38L38 39L37 39L37 40L39 40L39 37L38 37L38 36ZM15 38L15 41L16 41L16 38ZM31 39L31 40L32 40L32 39ZM0 0L0 7L7 7L7 0ZM1 1L1 6L6 6L6 1ZM2 2L2 5L5 5L5 2ZM34 0L34 7L41 7L41 0ZM35 1L35 6L40 6L40 1ZM36 2L36 5L39 5L39 2ZM0 34L0 41L7 41L7 34ZM1 35L1 40L6 40L6 35ZM2 36L2 39L5 39L5 36Z" fill="#000000"/></g></g></svg>
