<?xml version="1.0" encoding="UTF-8"?>
<svg xmlns="http://www.w3.org/2000/svg" version="1.1" width="200" height="200" viewBox="0 0 200 200"><rect x="0" y="0" width="200" height="200" fill="#ffffff"/><g transform="scale(4.878)"><g transform="translate(0,0)"><path fill-rule="evenodd" d="M10 0L10 1L11 1L11 2L10 2L10 3L8 3L8 4L9 4L9 5L8 5L8 7L9 7L9 5L12 5L12 7L11 7L11 6L10 6L10 8L6 8L6 9L5 9L5 8L0 8L0 10L2 10L2 9L3 9L3 10L4 10L4 12L5 12L5 13L7 13L7 14L5 14L5 15L4 15L4 13L3 13L3 14L1 14L1 15L0 15L0 17L1 17L1 18L2 18L2 19L4 19L4 20L1 20L1 19L0 19L0 20L1 20L1 21L0 21L0 23L1 23L1 21L2 21L2 26L1 26L1 25L0 25L0 27L2 27L2 29L5 29L5 28L4 28L4 27L5 27L5 26L6 26L6 27L7 27L7 26L6 26L6 25L8 25L8 29L7 29L7 28L6 28L6 29L7 29L7 30L4 30L4 31L3 31L3 30L2 30L2 32L5 32L5 33L7 33L7 32L8 32L8 31L10 31L10 32L9 32L9 33L8 33L8 35L11 35L11 36L10 36L10 39L9 39L9 36L8 36L8 41L9 41L9 40L11 40L11 41L12 41L12 40L11 40L11 37L12 37L12 38L13 38L13 39L14 39L14 38L15 38L15 41L20 41L20 40L21 40L21 41L27 41L27 40L29 40L29 41L32 41L32 40L33 40L33 41L35 41L35 40L36 40L36 41L39 41L39 40L40 40L40 39L41 39L41 38L40 38L40 37L41 37L41 35L40 35L40 34L41 34L41 33L40 33L40 32L41 32L41 31L40 31L40 32L37 32L37 31L36 31L36 30L38 30L38 31L39 31L39 30L38 30L38 29L40 29L40 30L41 30L41 29L40 29L40 26L41 26L41 23L40 23L40 22L41 22L41 20L40 20L40 18L41 18L41 17L40 17L40 16L41 16L41 15L39 15L39 16L36 16L36 17L34 17L34 16L35 16L35 15L34 15L34 14L35 14L35 13L34 13L34 12L38 12L38 13L36 13L36 14L37 14L37 15L38 15L38 13L39 13L39 12L40 12L40 13L41 13L41 11L40 11L40 10L41 10L41 9L40 9L40 8L39 8L39 9L40 9L40 10L38 10L38 8L37 8L37 9L36 9L36 8L35 8L35 9L34 9L34 8L33 8L33 9L30 9L30 8L29 8L29 9L28 9L28 8L27 8L27 6L28 6L28 7L29 7L29 6L28 6L28 5L27 5L27 6L26 6L26 5L24 5L24 4L23 4L23 3L22 3L22 2L21 2L21 3L22 3L22 4L20 4L20 5L21 5L21 6L20 6L20 7L19 7L19 4L18 4L18 3L17 3L17 1L18 1L18 0L17 0L17 1L15 1L15 0L13 0L13 2L14 2L14 1L15 1L15 3L16 3L16 4L17 4L17 6L16 6L16 5L15 5L15 6L14 6L14 5L13 5L13 4L14 4L14 3L13 3L13 4L12 4L12 1L11 1L11 0ZM19 0L19 1L20 1L20 0ZM21 0L21 1L24 1L24 0ZM26 0L26 2L28 2L28 3L29 3L29 0L28 0L28 1L27 1L27 0ZM30 0L30 3L31 3L31 5L30 5L30 4L29 4L29 5L30 5L30 7L31 7L31 8L32 8L32 7L33 7L33 6L32 6L32 7L31 7L31 5L32 5L32 3L33 3L33 2L32 2L32 3L31 3L31 1L33 1L33 0ZM8 1L8 2L9 2L9 1ZM19 2L19 3L20 3L20 2ZM24 2L24 3L25 3L25 4L26 4L26 3L25 3L25 2ZM10 3L10 4L11 4L11 3ZM22 4L22 5L23 5L23 9L22 9L22 8L21 8L21 7L22 7L22 6L21 6L21 7L20 7L20 8L19 8L19 9L20 9L20 10L19 10L19 11L18 11L18 9L17 9L17 8L18 8L18 6L17 6L17 8L16 8L16 9L15 9L15 7L16 7L16 6L15 6L15 7L14 7L14 6L13 6L13 8L14 8L14 9L13 9L13 12L14 12L14 13L12 13L12 11L11 11L11 9L9 9L9 12L10 12L10 11L11 11L11 14L13 14L13 15L12 15L12 17L13 17L13 20L12 20L12 18L11 18L11 15L10 15L10 13L9 13L9 15L10 15L10 16L8 16L8 18L7 18L7 17L5 17L5 18L4 18L4 19L5 19L5 18L7 18L7 19L6 19L6 20L8 20L8 22L9 22L9 21L10 21L10 20L9 20L9 19L10 19L10 18L11 18L11 22L10 22L10 26L9 26L9 27L11 27L11 29L10 29L10 31L11 31L11 30L13 30L13 31L12 31L12 33L13 33L13 34L14 34L14 35L13 35L13 36L15 36L15 34L17 34L17 36L16 36L16 37L15 37L15 38L16 38L16 40L18 40L18 39L17 39L17 38L18 38L18 37L17 37L17 36L19 36L19 37L20 37L20 35L21 35L21 34L19 34L19 33L22 33L22 34L23 34L23 35L22 35L22 36L21 36L21 37L22 37L22 38L21 38L21 39L22 39L22 40L24 40L24 39L25 39L25 40L27 40L27 38L28 38L28 39L29 39L29 40L32 40L32 39L33 39L33 40L35 40L35 39L36 39L36 38L37 38L37 40L39 40L39 38L38 38L38 36L39 36L39 34L40 34L40 33L38 33L38 34L37 34L37 35L38 35L38 36L37 36L37 37L34 37L34 38L32 38L32 39L31 39L31 38L30 38L30 37L32 37L32 35L30 35L30 33L31 33L31 34L32 34L32 32L33 32L33 31L32 31L32 30L30 30L30 29L31 29L31 28L32 28L32 29L33 29L33 30L34 30L34 31L35 31L35 32L36 32L36 31L35 31L35 30L36 30L36 29L38 29L38 28L39 28L39 27L38 27L38 26L37 26L37 27L38 27L38 28L36 28L36 26L34 26L34 25L36 25L36 23L35 23L35 24L34 24L34 25L33 25L33 24L32 24L32 23L33 23L33 22L31 22L31 21L33 21L33 19L34 19L34 21L35 21L35 20L37 20L37 21L38 21L38 22L37 22L37 24L40 24L40 23L38 23L38 22L39 22L39 21L38 21L38 20L39 20L39 17L38 17L38 20L37 20L37 19L34 19L34 17L33 17L33 16L32 16L32 17L31 17L31 15L32 15L32 14L30 14L30 13L32 13L32 12L33 12L33 11L32 11L32 10L30 10L30 9L29 9L29 10L28 10L28 9L27 9L27 10L26 10L26 9L25 9L25 8L26 8L26 6L25 6L25 8L24 8L24 5L23 5L23 4ZM6 9L6 10L5 10L5 12L7 12L7 11L8 11L8 10L7 10L7 9ZM14 9L14 10L15 10L15 13L14 13L14 18L15 18L15 19L14 19L14 20L13 20L13 21L12 21L12 22L13 22L13 21L14 21L14 20L15 20L15 21L16 21L16 22L14 22L14 23L15 23L15 25L14 25L14 24L13 24L13 23L12 23L12 24L13 24L13 25L11 25L11 26L12 26L12 29L14 29L14 28L16 28L16 29L15 29L15 31L14 31L14 32L13 32L13 33L14 33L14 34L15 34L15 33L14 33L14 32L16 32L16 30L17 30L17 29L18 29L18 32L17 32L17 33L19 33L19 32L20 32L20 31L21 31L21 32L22 32L22 31L23 31L23 32L24 32L24 33L23 33L23 34L24 34L24 33L25 33L25 29L26 29L26 30L27 30L27 31L28 31L28 30L27 30L27 29L26 29L26 28L24 28L24 27L25 27L25 26L26 26L26 27L28 27L28 26L26 26L26 24L27 24L27 23L28 23L28 22L26 22L26 24L25 24L25 26L24 26L24 24L23 24L23 26L22 26L22 25L21 25L21 24L22 24L22 23L21 23L21 24L20 24L20 23L19 23L19 22L20 22L20 21L21 21L21 22L24 22L24 23L25 23L25 21L26 21L26 20L25 20L25 18L26 18L26 17L27 17L27 19L28 19L28 18L29 18L29 19L30 19L30 18L31 18L31 17L30 17L30 16L29 16L29 17L28 17L28 16L27 16L27 15L28 15L28 14L29 14L29 13L30 13L30 12L32 12L32 11L30 11L30 12L28 12L28 13L26 13L26 12L25 12L25 11L24 11L24 12L23 12L23 10L24 10L24 9L23 9L23 10L22 10L22 11L21 11L21 10L20 10L20 11L21 11L21 12L22 12L22 13L21 13L21 16L24 16L24 17L23 17L23 18L22 18L22 17L20 17L20 15L19 15L19 14L20 14L20 13L18 13L18 12L17 12L17 13L16 13L16 11L17 11L17 10L15 10L15 9ZM35 9L35 10L34 10L34 11L36 11L36 9ZM6 10L6 11L7 11L7 10ZM27 10L27 11L28 11L28 10ZM37 10L37 11L38 11L38 12L39 12L39 11L38 11L38 10ZM1 11L1 12L0 12L0 13L2 13L2 11ZM24 12L24 13L22 13L22 14L23 14L23 15L24 15L24 14L25 14L25 16L26 16L26 13L25 13L25 12ZM15 13L15 14L16 14L16 15L17 15L17 16L18 16L18 15L17 15L17 14L18 14L18 13L17 13L17 14L16 14L16 13ZM7 14L7 15L6 15L6 16L7 16L7 15L8 15L8 14ZM1 15L1 17L2 17L2 15ZM9 17L9 18L8 18L8 19L9 19L9 18L10 18L10 17ZM15 17L15 18L16 18L16 20L18 20L18 21L17 21L17 22L18 22L18 21L20 21L20 19L21 19L21 18L19 18L19 17L18 17L18 19L17 19L17 17ZM24 17L24 18L23 18L23 19L22 19L22 20L21 20L21 21L22 21L22 20L23 20L23 21L24 21L24 20L23 20L23 19L24 19L24 18L25 18L25 17ZM32 17L32 18L33 18L33 17ZM18 19L18 20L19 20L19 19ZM31 19L31 20L32 20L32 19ZM27 20L27 21L28 21L28 20ZM29 20L29 23L30 23L30 24L29 24L29 25L30 25L30 24L31 24L31 26L32 26L32 24L31 24L31 23L30 23L30 20ZM3 21L3 22L4 22L4 26L5 26L5 24L7 24L7 23L6 23L6 22L7 22L7 21L5 21L5 22L4 22L4 21ZM8 23L8 24L9 24L9 23ZM16 23L16 24L18 24L18 23ZM19 24L19 25L15 25L15 26L13 26L13 28L14 28L14 27L15 27L15 26L18 26L18 27L17 27L17 28L18 28L18 29L20 29L20 30L19 30L19 31L20 31L20 30L22 30L22 28L21 28L21 27L20 27L20 26L19 26L19 25L20 25L20 24ZM39 25L39 26L40 26L40 25ZM23 26L23 27L24 27L24 26ZM33 26L33 27L32 27L32 28L35 28L35 29L36 29L36 28L35 28L35 27L34 27L34 26ZM30 27L30 28L28 28L28 29L30 29L30 28L31 28L31 27ZM0 29L0 33L1 33L1 29ZM8 29L8 30L9 30L9 29ZM23 30L23 31L24 31L24 30ZM5 31L5 32L7 32L7 31ZM30 31L30 32L26 32L26 33L30 33L30 32L31 32L31 31ZM10 32L10 34L11 34L11 35L12 35L12 34L11 34L11 32ZM33 33L33 36L36 36L36 33ZM18 34L18 35L19 35L19 34ZM26 34L26 36L24 36L24 37L23 37L23 36L22 36L22 37L23 37L23 38L27 38L27 37L28 37L28 36L27 36L27 35L28 35L28 34ZM34 34L34 35L35 35L35 34ZM26 36L26 37L27 37L27 36ZM29 36L29 37L30 37L30 36ZM13 37L13 38L14 38L14 37ZM19 38L19 39L20 39L20 38ZM34 38L34 39L35 39L35 38ZM13 40L13 41L14 41L14 40ZM0 0L0 7L7 7L7 0ZM1 1L1 6L6 6L6 1ZM2 2L2 5L5 5L5 2ZM34 0L34 7L41 7L41 0ZM35 1L35 6L40 6L40 1ZM36 2L36 5L39 5L39 2ZM0 34L0 41L7 41L7 34ZM1 35L1 40L6 40L6 35ZM2 36L2 39L5 39L5 36Z" fill="#000000"/></g></g></svg>
