<?xml version="1.0" encoding="UTF-8"?>
<svg xmlns="http://www.w3.org/2000/svg" version="1.1" width="200" height="200" viewBox="0 0 200 200"><rect x="0" y="0" width="200" height="200" fill="#ffffff"/><g transform="scale(4.444)"><g transform="translate(0,0)"><path fill-rule="evenodd" d="M8 0L8 4L9 4L9 2L11 2L11 4L10 4L10 5L8 5L8 7L9 7L9 9L10 9L10 7L11 7L11 8L12 8L12 9L13 9L13 10L15 10L15 11L11 11L11 10L10 10L10 11L11 11L11 12L9 12L9 10L8 10L8 12L5 12L5 11L4 11L4 10L6 10L6 11L7 11L7 10L6 10L6 9L7 9L7 8L4 8L4 9L3 9L3 10L2 10L2 11L3 11L3 13L2 13L2 12L1 12L1 10L0 10L0 12L1 12L1 13L0 13L0 17L1 17L1 16L3 16L3 18L2 18L2 19L0 19L0 21L1 21L1 20L2 20L2 21L3 21L3 20L2 20L2 19L4 19L4 18L5 18L5 19L7 19L7 18L5 18L5 17L7 17L7 16L6 16L6 15L8 15L8 14L6 14L6 15L5 15L5 13L9 13L9 14L10 14L10 15L9 15L9 19L8 19L8 20L4 20L4 22L3 22L3 24L4 24L4 25L7 25L7 26L6 26L6 27L4 27L4 26L3 26L3 25L1 25L1 24L0 24L0 25L1 25L1 26L2 26L2 27L4 27L4 29L3 29L3 28L1 28L1 27L0 27L0 29L3 29L3 31L2 31L2 30L0 30L0 31L1 31L1 32L2 32L2 33L3 33L3 34L4 34L4 35L1 35L1 36L0 36L0 37L1 37L1 36L3 36L3 37L5 37L5 34L6 34L6 35L7 35L7 34L9 34L9 33L10 33L10 34L11 34L11 35L12 35L12 36L9 36L9 37L8 37L8 36L6 36L6 37L8 37L8 38L9 38L9 39L8 39L8 41L9 41L9 39L12 39L12 40L11 40L11 41L10 41L10 42L11 42L11 41L12 41L12 42L15 42L15 43L14 43L14 44L13 44L13 45L17 45L17 44L15 44L15 43L16 43L16 42L18 42L18 43L19 43L19 44L18 44L18 45L21 45L21 44L22 44L22 45L25 45L25 44L27 44L27 45L28 45L28 43L29 43L29 42L30 42L30 44L29 44L29 45L30 45L30 44L31 44L31 45L33 45L33 42L32 42L32 41L33 41L33 40L34 40L34 41L35 41L35 40L36 40L36 41L41 41L41 40L42 40L42 39L41 39L41 36L42 36L42 33L41 33L41 32L40 32L40 31L42 31L42 30L43 30L43 29L44 29L44 28L45 28L45 27L43 27L43 26L44 26L44 24L43 24L43 25L42 25L42 26L40 26L40 25L41 25L41 23L43 23L43 22L42 22L42 21L41 21L41 20L42 20L42 19L44 19L44 20L43 20L43 21L45 21L45 19L44 19L44 18L45 18L45 17L44 17L44 16L43 16L43 17L44 17L44 18L40 18L40 19L39 19L39 17L38 17L38 16L40 16L40 15L39 15L39 13L40 13L40 11L44 11L44 13L45 13L45 11L44 11L44 9L45 9L45 8L41 8L41 9L40 9L40 8L39 8L39 9L35 9L35 10L37 10L37 11L34 11L34 8L35 8L35 6L34 6L34 8L33 8L33 6L32 6L32 5L37 5L37 3L36 3L36 1L37 1L37 0L36 0L36 1L35 1L35 4L34 4L34 2L33 2L33 0L32 0L32 3L33 3L33 4L32 4L32 5L31 5L31 3L30 3L30 2L29 2L29 1L31 1L31 0L28 0L28 1L27 1L27 0L26 0L26 1L27 1L27 3L26 3L26 4L23 4L23 3L24 3L24 2L25 2L25 1L23 1L23 0L22 0L22 1L23 1L23 2L22 2L22 4L21 4L21 3L19 3L19 2L20 2L20 1L21 1L21 0L20 0L20 1L18 1L18 0L17 0L17 1L18 1L18 2L16 2L16 1L15 1L15 0L14 0L14 1L13 1L13 0L12 0L12 1L10 1L10 0ZM12 1L12 6L11 6L11 5L10 5L10 6L9 6L9 7L10 7L10 6L11 6L11 7L12 7L12 8L13 8L13 9L17 9L17 10L16 10L16 11L15 11L15 12L17 12L17 13L13 13L13 14L11 14L11 15L12 15L12 16L10 16L10 19L9 19L9 21L10 21L10 22L9 22L9 24L10 24L10 25L9 25L9 27L8 27L8 26L7 26L7 27L6 27L6 28L5 28L5 29L4 29L4 30L7 30L7 31L6 31L6 32L7 32L7 33L6 33L6 34L7 34L7 33L9 33L9 31L8 31L8 30L7 30L7 29L6 29L6 28L9 28L9 30L10 30L10 33L12 33L12 34L13 34L13 36L12 36L12 37L11 37L11 38L12 38L12 37L13 37L13 38L15 38L15 39L17 39L17 40L14 40L14 39L13 39L13 41L18 41L18 40L20 40L20 39L19 39L19 37L20 37L20 36L21 36L21 35L22 35L22 33L23 33L23 34L25 34L25 35L24 35L24 36L25 36L25 39L26 39L26 40L25 40L25 41L20 41L20 42L19 42L19 43L20 43L20 42L21 42L21 43L23 43L23 42L24 42L24 43L26 43L26 42L25 42L25 41L26 41L26 40L27 40L27 39L28 39L28 41L27 41L27 43L28 43L28 41L30 41L30 39L28 39L28 38L29 38L29 37L31 37L31 35L33 35L33 34L34 34L34 35L37 35L37 32L38 32L38 31L40 31L40 30L41 30L41 29L43 29L43 27L42 27L42 28L39 28L39 29L37 29L37 28L38 28L38 27L40 27L40 26L39 26L39 25L38 25L38 26L37 26L37 25L36 25L36 24L34 24L34 23L36 23L36 22L35 22L35 21L36 21L36 19L37 19L37 20L39 20L39 19L37 19L37 18L36 18L36 19L35 19L35 17L37 17L37 16L38 16L38 15L37 15L37 14L38 14L38 13L39 13L39 12L35 12L35 13L34 13L34 12L33 12L33 17L32 17L32 16L31 16L31 15L32 15L32 13L31 13L31 15L30 15L30 16L29 16L29 14L30 14L30 11L28 11L28 10L30 10L30 9L29 9L29 8L31 8L31 11L33 11L33 9L32 9L32 8L31 8L31 7L32 7L32 6L31 6L31 5L30 5L30 4L29 4L29 5L25 5L25 8L26 8L26 9L21 9L21 11L20 11L20 10L18 10L18 8L20 8L20 6L19 6L19 3L18 3L18 6L17 6L17 3L14 3L14 2L15 2L15 1L14 1L14 2L13 2L13 1ZM28 2L28 3L29 3L29 2ZM15 5L15 6L14 6L14 8L15 8L15 6L16 6L16 8L17 8L17 6L16 6L16 5ZM21 5L21 8L24 8L24 5ZM12 6L12 7L13 7L13 6ZM18 6L18 7L19 7L19 6ZM22 6L22 7L23 7L23 6ZM26 6L26 7L27 7L27 9L26 9L26 12L24 12L24 10L22 10L22 12L20 12L20 13L19 13L19 12L18 12L18 13L19 13L19 14L18 14L18 15L17 15L17 14L16 14L16 15L15 15L15 16L14 16L14 15L13 15L13 16L12 16L12 17L14 17L14 18L13 18L13 19L14 19L14 20L13 20L13 21L12 21L12 19L11 19L11 20L10 20L10 21L11 21L11 23L12 23L12 24L11 24L11 25L12 25L12 26L14 26L14 28L13 28L13 29L12 29L12 27L11 27L11 26L10 26L10 27L9 27L9 28L10 28L10 27L11 27L11 29L12 29L12 30L11 30L11 32L12 32L12 33L14 33L14 34L15 34L15 33L16 33L16 32L17 32L17 33L18 33L18 34L16 34L16 35L15 35L15 36L13 36L13 37L17 37L17 35L18 35L18 34L19 34L19 33L20 33L20 34L21 34L21 32L19 32L19 30L18 30L18 29L20 29L20 30L21 30L21 31L22 31L22 32L23 32L23 31L25 31L25 32L26 32L26 39L27 39L27 37L28 37L28 36L27 36L27 35L29 35L29 36L30 36L30 35L31 35L31 34L32 34L32 33L34 33L34 32L35 32L35 31L36 31L36 32L37 32L37 29L35 29L35 27L36 27L36 28L37 28L37 27L36 27L36 26L35 26L35 27L34 27L34 25L33 25L33 23L34 23L34 22L33 22L33 20L34 20L34 21L35 21L35 20L34 20L34 19L33 19L33 18L34 18L34 17L35 17L35 16L36 16L36 15L35 15L35 16L34 16L34 17L33 17L33 18L31 18L31 16L30 16L30 17L29 17L29 18L31 18L31 21L29 21L29 22L28 22L28 23L27 23L27 24L26 24L26 26L24 26L24 25L25 25L25 21L26 21L26 22L27 22L27 21L28 21L28 18L27 18L27 17L28 17L28 15L27 15L27 14L29 14L29 13L28 13L28 12L27 12L27 10L28 10L28 7L29 7L29 6L28 6L28 7L27 7L27 6ZM30 6L30 7L31 7L31 6ZM36 6L36 8L37 8L37 6ZM0 8L0 9L2 9L2 8ZM39 9L39 10L40 10L40 9ZM41 9L41 10L42 10L42 9ZM4 12L4 13L5 13L5 12ZM23 12L23 13L20 13L20 14L21 14L21 15L19 15L19 16L18 16L18 17L17 17L17 16L16 16L16 17L15 17L15 18L14 18L14 19L16 19L16 18L17 18L17 21L13 21L13 22L12 22L12 23L13 23L13 25L18 25L18 24L19 24L19 26L18 26L18 28L17 28L17 26L16 26L16 27L15 27L15 28L16 28L16 30L17 30L17 31L18 31L18 30L17 30L17 29L18 29L18 28L19 28L19 27L20 27L20 29L21 29L21 30L22 30L22 29L24 29L24 30L25 30L25 31L26 31L26 32L27 32L27 33L28 33L28 34L29 34L29 31L30 31L30 30L29 30L29 29L30 29L30 28L32 28L32 26L33 26L33 25L32 25L32 23L31 23L31 22L29 22L29 23L30 23L30 25L32 25L32 26L31 26L31 27L30 27L30 28L29 28L29 27L27 27L27 28L28 28L28 30L27 30L27 31L26 31L26 28L25 28L25 27L24 27L24 28L22 28L22 29L21 29L21 27L22 27L22 25L21 25L21 26L20 26L20 22L19 22L19 21L20 21L20 20L22 20L22 19L20 19L20 18L19 18L19 19L18 19L18 17L19 17L19 16L20 16L20 17L21 17L21 16L22 16L22 14L23 14L23 15L25 15L25 17L24 17L24 16L23 16L23 17L22 17L22 18L24 18L24 19L23 19L23 20L24 20L24 19L25 19L25 20L26 20L26 21L27 21L27 19L25 19L25 18L26 18L26 14L24 14L24 12ZM26 12L26 13L27 13L27 12ZM41 12L41 14L43 14L43 12ZM1 13L1 15L2 15L2 13ZM35 13L35 14L37 14L37 13ZM4 16L4 17L5 17L5 16ZM29 19L29 20L30 20L30 19ZM40 19L40 20L41 20L41 19ZM18 20L18 21L17 21L17 22L13 22L13 23L14 23L14 24L15 24L15 23L16 23L16 24L17 24L17 23L18 23L18 21L19 21L19 20ZM5 21L5 24L8 24L8 21ZM21 21L21 24L24 24L24 21ZM37 21L37 24L40 24L40 21ZM1 22L1 23L2 23L2 22ZM6 22L6 23L7 23L7 22ZM22 22L22 23L23 23L23 22ZM38 22L38 23L39 23L39 22ZM28 24L28 25L27 25L27 26L29 26L29 24ZM24 28L24 29L25 29L25 28ZM33 28L33 29L34 29L34 30L32 30L32 29L31 29L31 33L32 33L32 32L34 32L34 30L35 30L35 29L34 29L34 28ZM13 29L13 30L12 30L12 32L13 32L13 31L14 31L14 32L15 32L15 29ZM39 29L39 30L40 30L40 29ZM28 30L28 31L27 31L27 32L28 32L28 31L29 31L29 30ZM7 31L7 32L8 32L8 31ZM44 31L44 33L45 33L45 31ZM3 32L3 33L4 33L4 34L5 34L5 33L4 33L4 32ZM18 32L18 33L19 33L19 32ZM39 32L39 33L40 33L40 35L39 35L39 34L38 34L38 36L40 36L40 35L41 35L41 33L40 33L40 32ZM0 33L0 34L1 34L1 33ZM35 33L35 34L36 34L36 33ZM43 34L43 35L44 35L44 34ZM19 35L19 36L18 36L18 37L19 37L19 36L20 36L20 35ZM33 36L33 38L31 38L31 40L32 40L32 39L33 39L33 38L34 38L34 39L36 39L36 36L35 36L35 37L34 37L34 36ZM43 36L43 37L42 37L42 38L43 38L43 37L44 37L44 36ZM21 37L21 40L24 40L24 37ZM37 37L37 40L40 40L40 37ZM17 38L17 39L18 39L18 38ZM22 38L22 39L23 39L23 38ZM38 38L38 39L39 39L39 38ZM44 39L44 40L43 40L43 41L42 41L42 42L40 42L40 43L39 43L39 44L41 44L41 45L43 45L43 44L41 44L41 43L43 43L43 42L44 42L44 43L45 43L45 39ZM31 42L31 44L32 44L32 42ZM8 43L8 45L9 45L9 43ZM11 43L11 44L10 44L10 45L11 45L11 44L12 44L12 43ZM34 43L34 44L35 44L35 45L38 45L38 44L36 44L36 43ZM44 44L44 45L45 45L45 44ZM0 0L0 7L7 7L7 0ZM1 1L1 6L6 6L6 1ZM2 2L2 5L5 5L5 2ZM38 0L38 7L45 7L45 0ZM39 1L39 6L44 6L44 1ZM40 2L40 5L43 5L43 2ZM0 38L0 45L7 45L7 38ZM1 39L1 44L6 44L6 39ZM2 40L2 43L5 43L5 40Z" fill="#000000"/></g></g></svg>
