<?xml version="1.0" encoding="UTF-8"?>
<svg xmlns="http://www.w3.org/2000/svg" version="1.1" width="200" height="200" viewBox="0 0 200 200"><rect x="0" y="0" width="200" height="200" fill="#ffffff"/><g transform="scale(4.082)"><g transform="translate(0,0)"><path fill-rule="evenodd" d="M8 0L8 4L9 4L9 5L8 5L8 7L9 7L9 8L11 8L11 6L10 6L10 7L9 7L9 5L12 5L12 9L11 9L11 10L9 10L9 9L7 9L7 8L4 8L4 9L3 9L3 10L2 10L2 11L1 11L1 12L0 12L0 14L1 14L1 15L0 15L0 16L1 16L1 17L2 17L2 20L1 20L1 18L0 18L0 20L1 20L1 21L3 21L3 23L2 23L2 22L0 22L0 23L2 23L2 24L1 24L1 25L2 25L2 26L0 26L0 31L2 31L2 32L1 32L1 33L3 33L3 31L5 31L5 32L4 32L4 34L6 34L6 35L5 35L5 39L7 39L7 40L6 40L6 41L7 41L7 40L9 40L9 39L10 39L10 40L12 40L12 39L11 39L11 37L12 37L12 38L13 38L13 39L14 39L14 41L11 41L11 43L8 43L8 45L10 45L10 44L11 44L11 43L12 43L12 45L11 45L11 46L9 46L9 47L8 47L8 49L9 49L9 48L10 48L10 47L12 47L12 48L14 48L14 49L17 49L17 48L18 48L18 49L19 49L19 48L21 48L21 46L22 46L22 45L25 45L25 46L26 46L26 47L29 47L29 49L31 49L31 48L32 48L32 49L33 49L33 48L34 48L34 45L35 45L35 49L39 49L39 48L38 48L38 47L40 47L40 48L41 48L41 45L42 45L42 47L43 47L43 49L44 49L44 46L45 46L45 48L46 48L46 49L49 49L49 48L48 48L48 47L49 47L49 46L47 46L47 45L48 45L48 44L49 44L49 43L48 43L48 44L47 44L47 42L48 42L48 41L49 41L49 40L48 40L48 39L46 39L46 38L45 38L45 36L46 36L46 37L47 37L47 38L48 38L48 37L49 37L49 35L48 35L48 34L46 34L46 35L45 35L45 36L44 36L44 35L43 35L43 36L44 36L44 39L45 39L45 40L43 40L43 39L42 39L42 38L43 38L43 37L42 37L42 35L41 35L41 34L40 34L40 38L39 38L39 37L38 37L38 36L37 36L37 35L39 35L39 32L38 32L38 31L41 31L41 32L40 32L40 33L41 33L41 32L42 32L42 33L43 33L43 34L45 34L45 33L44 33L44 32L43 32L43 31L42 31L42 30L44 30L44 31L45 31L45 32L46 32L46 33L47 33L47 31L48 31L48 32L49 32L49 31L48 31L48 30L47 30L47 28L48 28L48 29L49 29L49 28L48 28L48 27L47 27L47 26L49 26L49 23L47 23L47 22L49 22L49 20L48 20L48 19L46 19L46 18L47 18L47 17L49 17L49 15L47 15L47 14L46 14L46 13L48 13L48 12L49 12L49 11L48 11L48 12L47 12L47 10L48 10L48 9L49 9L49 8L45 8L45 9L44 9L44 8L43 8L43 9L42 9L42 11L40 11L40 8L41 8L41 6L40 6L40 8L36 8L36 7L37 7L37 6L38 6L38 7L39 7L39 5L37 5L37 4L38 4L38 3L37 3L37 2L39 2L39 4L40 4L40 3L41 3L41 0L40 0L40 1L38 1L38 0L35 0L35 1L34 1L34 0L33 0L33 1L31 1L31 0L30 0L30 1L31 1L31 4L30 4L30 3L28 3L28 1L27 1L27 0L26 0L26 1L24 1L24 2L23 2L23 1L21 1L21 0L19 0L19 2L18 2L18 0L17 0L17 3L16 3L16 0L14 0L14 1L15 1L15 2L14 2L14 3L13 3L13 5L12 5L12 4L10 4L10 3L11 3L11 2L13 2L13 0L12 0L12 1L11 1L11 0ZM9 1L9 3L10 3L10 1ZM20 1L20 2L19 2L19 3L20 3L20 4L21 4L21 7L20 7L20 5L19 5L19 9L18 9L18 3L17 3L17 4L16 4L16 3L15 3L15 5L14 5L14 6L13 6L13 8L14 8L14 6L15 6L15 7L16 7L16 6L17 6L17 9L14 9L14 10L11 10L11 11L10 11L10 12L9 12L9 11L8 11L8 10L7 10L7 9L6 9L6 10L3 10L3 11L2 11L2 12L3 12L3 14L2 14L2 13L1 13L1 14L2 14L2 17L3 17L3 20L4 20L4 19L6 19L6 20L7 20L7 21L4 21L4 22L9 22L9 23L10 23L10 24L9 24L9 29L8 29L8 28L7 28L7 27L4 27L4 26L3 26L3 27L4 27L4 28L5 28L5 29L3 29L3 30L5 30L5 31L6 31L6 32L5 32L5 33L6 33L6 34L9 34L9 33L8 33L8 32L7 32L7 31L6 31L6 30L9 30L9 31L10 31L10 34L14 34L14 31L15 31L15 32L17 32L17 33L15 33L15 36L14 36L14 35L12 35L12 36L13 36L13 37L15 37L15 38L14 38L14 39L16 39L16 38L18 38L18 37L20 37L20 36L21 36L21 38L20 38L20 39L18 39L18 40L17 40L17 41L14 41L14 42L12 42L12 43L14 43L14 44L15 44L15 45L18 45L18 44L21 44L21 45L19 45L19 47L20 47L20 46L21 46L21 45L22 45L22 44L21 44L21 43L22 43L22 40L21 40L21 39L22 39L22 37L23 37L23 39L27 39L27 37L28 37L28 38L29 38L29 36L31 36L31 37L32 37L32 38L33 38L33 39L34 39L34 38L35 38L35 40L33 40L33 42L32 42L32 40L31 40L31 39L28 39L28 41L27 41L27 43L28 43L28 45L27 45L27 46L28 46L28 45L29 45L29 43L28 43L28 42L29 42L29 40L31 40L31 47L32 47L32 48L33 48L33 46L32 46L32 43L33 43L33 42L34 42L34 43L36 43L36 42L38 42L38 40L39 40L39 42L40 42L40 40L42 40L42 39L39 39L39 38L38 38L38 37L36 37L36 38L35 38L35 36L36 36L36 35L37 35L37 34L38 34L38 33L36 33L36 32L35 32L35 31L38 31L38 30L37 30L37 29L33 29L33 30L32 30L32 31L31 31L31 33L32 33L32 31L33 31L33 32L35 32L35 33L33 33L33 34L32 34L32 35L33 35L33 34L34 34L34 35L35 35L35 36L33 36L33 37L32 37L32 36L31 36L31 35L28 35L28 34L29 34L29 33L30 33L30 31L28 31L28 32L27 32L27 33L28 33L28 34L25 34L25 35L24 35L24 36L21 36L21 34L20 34L20 32L19 32L19 31L20 31L20 30L21 30L21 32L23 32L23 31L22 31L22 30L23 30L23 27L22 27L22 28L21 28L21 26L22 26L22 23L21 23L21 22L25 22L25 21L24 21L24 18L23 18L23 21L21 21L21 22L20 22L20 23L19 23L19 25L18 25L18 24L17 24L17 25L14 25L14 26L13 26L13 24L15 24L15 23L16 23L16 22L18 22L18 21L20 21L20 20L21 20L21 19L22 19L22 18L20 18L20 19L19 19L19 20L18 20L18 21L17 21L17 20L16 20L16 19L18 19L18 18L19 18L19 17L24 17L24 16L25 16L25 14L24 14L24 10L26 10L26 9L22 9L22 10L20 10L20 12L21 12L21 13L19 13L19 14L16 14L16 15L15 15L15 14L14 14L14 13L12 13L12 12L13 12L13 11L14 11L14 12L15 12L15 13L18 13L18 12L19 12L19 9L21 9L21 7L22 7L22 3L20 3L20 2L21 2L21 1ZM26 1L26 2L24 2L24 3L23 3L23 4L24 4L24 3L26 3L26 4L27 4L27 5L28 5L28 6L27 6L27 8L28 8L28 10L30 10L30 9L29 9L29 7L30 7L30 6L31 6L31 7L32 7L32 6L31 6L31 5L29 5L29 4L28 4L28 3L27 3L27 1ZM33 1L33 2L32 2L32 4L33 4L33 2L34 2L34 1ZM36 1L36 2L37 2L37 1ZM36 3L36 4L37 4L37 3ZM34 4L34 5L33 5L33 7L34 7L34 11L33 11L33 10L31 10L31 11L29 11L29 12L28 12L28 13L27 13L27 14L28 14L28 13L29 13L29 12L32 12L32 11L33 11L33 13L31 13L31 16L32 16L32 15L33 15L33 16L35 16L35 17L34 17L34 19L33 19L33 20L35 20L35 18L37 18L37 20L38 20L38 21L40 21L40 22L39 22L39 23L40 23L40 22L42 22L42 17L40 17L40 16L41 16L41 14L42 14L42 13L43 13L43 11L45 11L45 13L44 13L44 14L43 14L43 15L42 15L42 16L44 16L44 14L45 14L45 13L46 13L46 10L47 10L47 9L46 9L46 10L43 10L43 11L42 11L42 12L41 12L41 13L40 13L40 15L38 15L38 14L37 14L37 13L38 13L38 12L39 12L39 11L38 11L38 12L37 12L37 13L35 13L35 12L34 12L34 11L35 11L35 10L36 10L36 11L37 11L37 10L38 10L38 9L35 9L35 7L36 7L36 5L35 5L35 4ZM15 5L15 6L16 6L16 5ZM23 5L23 8L26 8L26 5ZM34 5L34 7L35 7L35 5ZM24 6L24 7L25 7L25 6ZM28 6L28 7L29 7L29 6ZM0 8L0 9L2 9L2 8ZM17 9L17 10L16 10L16 11L15 11L15 12L17 12L17 11L18 11L18 9ZM6 10L6 11L5 11L5 12L4 12L4 14L3 14L3 15L7 15L7 14L8 14L8 16L9 16L9 17L10 17L10 18L11 18L11 14L12 14L12 15L13 15L13 14L12 14L12 13L10 13L10 16L9 16L9 12L8 12L8 13L7 13L7 12L6 12L6 11L7 11L7 10ZM22 10L22 11L21 11L21 12L22 12L22 13L21 13L21 14L20 14L20 15L19 15L19 16L18 16L18 17L17 17L17 16L15 16L15 15L14 15L14 16L13 16L13 19L12 19L12 20L13 20L13 19L14 19L14 20L15 20L15 21L11 21L11 22L12 22L12 23L11 23L11 24L10 24L10 26L11 26L11 24L12 24L12 23L15 23L15 21L16 21L16 20L15 20L15 19L16 19L16 18L14 18L14 17L17 17L17 18L18 18L18 17L19 17L19 16L21 16L21 15L22 15L22 14L23 14L23 16L24 16L24 14L23 14L23 10ZM26 11L26 12L27 12L27 11ZM5 12L5 13L6 13L6 14L7 14L7 13L6 13L6 12ZM33 13L33 15L34 15L34 13ZM36 14L36 15L35 15L35 16L36 16L36 17L38 17L38 19L41 19L41 18L39 18L39 17L38 17L38 16L37 16L37 14ZM26 15L26 16L28 16L28 17L27 17L27 18L28 18L28 20L26 20L26 17L25 17L25 20L26 20L26 21L27 21L27 23L28 23L28 24L27 24L27 26L29 26L29 25L30 25L30 24L31 24L31 23L30 23L30 22L29 22L29 18L30 18L30 15L29 15L29 16L28 16L28 15ZM45 15L45 17L46 17L46 15ZM3 16L3 17L4 17L4 16ZM6 16L6 17L7 17L7 16ZM32 17L32 18L31 18L31 19L32 19L32 18L33 18L33 17ZM6 18L6 19L8 19L8 20L9 20L9 18ZM44 18L44 19L45 19L45 21L44 21L44 22L45 22L45 25L46 25L46 26L47 26L47 25L48 25L48 24L47 24L47 25L46 25L46 22L47 22L47 21L46 21L46 19L45 19L45 18ZM10 19L10 20L11 20L11 19ZM31 20L31 22L33 22L33 23L34 23L34 24L33 24L33 25L34 25L34 27L35 27L35 26L36 26L36 27L37 27L37 28L38 28L38 29L40 29L40 30L41 30L41 28L40 28L40 27L39 27L39 28L38 28L38 25L39 25L39 26L40 26L40 25L39 25L39 24L37 24L37 25L36 25L36 23L37 23L37 22L36 22L36 23L35 23L35 21L34 21L34 22L33 22L33 21L32 21L32 20ZM40 20L40 21L41 21L41 20ZM9 21L9 22L10 22L10 21ZM3 23L3 24L2 24L2 25L3 25L3 24L4 24L4 23ZM5 23L5 26L8 26L8 23ZM23 23L23 26L26 26L26 23ZM29 23L29 24L30 24L30 23ZM41 23L41 26L44 26L44 23ZM6 24L6 25L7 25L7 24ZM24 24L24 25L25 25L25 24ZM34 24L34 25L35 25L35 24ZM42 24L42 25L43 25L43 24ZM17 25L17 26L16 26L16 27L15 27L15 28L14 28L14 27L13 27L13 26L12 26L12 30L13 30L13 29L14 29L14 30L15 30L15 31L16 31L16 30L19 30L19 29L21 29L21 28L20 28L20 27L19 27L19 28L18 28L18 29L15 29L15 28L17 28L17 27L18 27L18 25ZM19 25L19 26L21 26L21 25ZM30 26L30 27L31 27L31 29L32 29L32 27L33 27L33 26L32 26L32 27L31 27L31 26ZM1 27L1 28L2 28L2 27ZM24 27L24 29L25 29L25 31L24 31L24 33L22 33L22 35L23 35L23 34L24 34L24 33L25 33L25 32L26 32L26 31L27 31L27 30L28 30L28 29L30 29L30 28L29 28L29 27L28 27L28 28L27 28L27 30L26 30L26 29L25 29L25 28L26 28L26 27ZM43 27L43 28L44 28L44 29L46 29L46 27ZM6 28L6 29L5 29L5 30L6 30L6 29L7 29L7 28ZM10 28L10 29L11 29L11 28ZM1 29L1 30L2 30L2 29ZM10 30L10 31L11 31L11 30ZM33 30L33 31L34 31L34 30ZM17 31L17 32L18 32L18 33L17 33L17 34L16 34L16 36L15 36L15 37L16 37L16 36L17 36L17 37L18 37L18 36L19 36L19 34L18 34L18 33L19 33L19 32L18 32L18 31ZM6 32L6 33L7 33L7 32ZM12 32L12 33L13 33L13 32ZM35 33L35 35L36 35L36 33ZM0 34L0 35L2 35L2 36L0 36L0 37L1 37L1 40L0 40L0 41L3 41L3 40L4 40L4 39L2 39L2 38L4 38L4 37L3 37L3 35L2 35L2 34ZM17 34L17 35L18 35L18 34ZM6 35L6 36L7 36L7 35ZM10 35L10 36L11 36L11 35ZM25 35L25 37L24 37L24 38L26 38L26 37L27 37L27 36L28 36L28 35ZM8 36L8 39L9 39L9 38L10 38L10 37L9 37L9 36ZM47 36L47 37L48 37L48 36ZM6 37L6 38L7 38L7 37ZM33 37L33 38L34 38L34 37ZM41 37L41 38L42 38L42 37ZM36 38L36 40L35 40L35 42L36 42L36 41L37 41L37 40L38 40L38 39L37 39L37 38ZM18 40L18 41L19 41L19 43L21 43L21 41L19 41L19 40ZM47 40L47 41L45 41L45 42L47 42L47 41L48 41L48 40ZM8 41L8 42L10 42L10 41ZM23 41L23 44L26 44L26 41ZM41 41L41 44L44 44L44 41ZM17 42L17 43L15 43L15 44L17 44L17 43L18 43L18 42ZM24 42L24 43L25 43L25 42ZM42 42L42 43L43 43L43 42ZM38 43L38 44L37 44L37 47L38 47L38 45L39 45L39 44L40 44L40 43ZM45 43L45 46L46 46L46 47L47 47L47 46L46 46L46 45L47 45L47 44L46 44L46 43ZM12 45L12 46L13 46L13 47L14 47L14 48L17 48L17 47L18 47L18 46L16 46L16 47L15 47L15 46L14 46L14 45ZM23 46L23 47L22 47L22 48L25 48L25 49L26 49L26 48L25 48L25 47L24 47L24 46ZM29 46L29 47L30 47L30 46ZM27 48L27 49L28 49L28 48ZM0 0L0 7L7 7L7 0ZM1 1L1 6L6 6L6 1ZM2 2L2 5L5 5L5 2ZM42 0L42 7L49 7L49 0ZM43 1L43 6L48 6L48 1ZM44 2L44 5L47 5L47 2ZM0 42L0 49L7 49L7 42ZM1 43L1 48L6 48L6 43ZM2 44L2 47L5 47L5 44Z" fill="#000000"/></g></g></svg>
