<?xml version="1.0" encoding="UTF-8"?>
<svg xmlns="http://www.w3.org/2000/svg" version="1.1" width="200" height="200" viewBox="0 0 200 200"><rect x="0" y="0" width="200" height="200" fill="#ffffff"/><g transform="scale(4.082)"><g transform="translate(0,0)"><path fill-rule="evenodd" d="M8 0L8 4L9 4L9 5L8 5L8 7L9 7L9 8L10 8L10 10L9 10L9 9L8 9L8 10L5 10L5 9L7 9L7 8L4 8L4 9L3 9L3 10L2 10L2 8L0 8L0 9L1 9L1 10L0 10L0 14L1 14L1 15L2 15L2 14L3 14L3 13L2 13L2 14L1 14L1 12L2 12L2 11L4 11L4 12L6 12L6 13L7 13L7 12L8 12L8 13L9 13L9 14L8 14L8 15L7 15L7 14L6 14L6 15L7 15L7 16L5 16L5 14L4 14L4 15L3 15L3 18L4 18L4 19L1 19L1 16L0 16L0 22L1 22L1 23L2 23L2 21L3 21L3 20L4 20L4 19L5 19L5 21L4 21L4 23L3 23L3 24L4 24L4 25L2 25L2 26L1 26L1 25L0 25L0 26L1 26L1 30L2 30L2 32L0 32L0 33L1 33L1 34L2 34L2 32L3 32L3 33L4 33L4 34L3 34L3 35L4 35L4 34L5 34L5 36L6 36L6 37L7 37L7 38L5 38L5 39L7 39L7 40L6 40L6 41L8 41L8 42L9 42L9 41L8 41L8 38L9 38L9 40L10 40L10 39L12 39L12 40L13 40L13 38L12 38L12 37L14 37L14 38L15 38L15 39L14 39L14 42L13 42L13 41L12 41L12 42L10 42L10 43L8 43L8 45L9 45L9 47L8 47L8 49L10 49L10 47L11 47L11 48L12 48L12 47L11 47L11 46L10 46L10 45L12 45L12 46L15 46L15 45L16 45L16 44L15 44L15 42L16 42L16 41L19 41L19 42L18 42L18 43L17 43L17 45L18 45L18 47L17 47L17 46L16 46L16 47L14 47L14 48L13 48L13 49L15 49L15 48L16 48L16 49L19 49L19 48L18 48L18 47L20 47L20 46L21 46L21 48L23 48L23 47L24 47L24 45L26 45L26 46L27 46L27 49L28 49L28 48L30 48L30 49L31 49L31 48L32 48L32 49L37 49L37 46L36 46L36 45L38 45L38 47L39 47L39 48L38 48L38 49L39 49L39 48L40 48L40 47L41 47L41 45L42 45L42 47L43 47L43 49L44 49L44 46L45 46L45 47L46 47L46 48L45 48L45 49L49 49L49 48L48 48L48 47L49 47L49 46L45 46L45 43L46 43L46 44L48 44L48 45L49 45L49 44L48 44L48 41L49 41L49 39L48 39L48 41L47 41L47 42L45 42L45 41L46 41L46 40L47 40L47 39L46 39L46 38L45 38L45 37L44 37L44 35L43 35L43 36L42 36L42 35L41 35L41 34L40 34L40 36L42 36L42 37L41 37L41 38L40 38L40 37L38 37L38 36L37 36L37 35L36 35L36 36L35 36L35 35L32 35L32 36L31 36L31 37L30 37L30 42L28 42L28 40L27 40L27 39L29 39L29 37L28 37L28 38L27 38L27 35L29 35L29 36L30 36L30 35L31 35L31 34L34 34L34 33L35 33L35 31L33 31L33 30L34 30L34 27L33 27L33 26L34 26L34 24L36 24L36 25L37 25L37 26L35 26L35 30L38 30L38 31L41 31L41 30L42 30L42 28L43 28L43 29L44 29L44 30L43 30L43 31L42 31L42 33L43 33L43 34L45 34L45 33L44 33L44 32L46 32L46 33L47 33L47 34L46 34L46 35L45 35L45 36L46 36L46 37L47 37L47 38L48 38L48 37L49 37L49 35L48 35L48 33L47 33L47 31L48 31L48 32L49 32L49 31L48 31L48 30L47 30L47 29L49 29L49 28L47 28L47 27L48 27L48 26L46 26L46 25L47 25L47 24L48 24L48 25L49 25L49 23L46 23L46 22L44 22L44 21L45 21L45 19L46 19L46 21L47 21L47 22L49 22L49 21L48 21L48 17L49 17L49 15L47 15L47 12L48 12L48 9L49 9L49 8L45 8L45 9L44 9L44 8L43 8L43 9L41 9L41 6L40 6L40 8L39 8L39 9L38 9L38 8L37 8L37 6L38 6L38 7L39 7L39 5L37 5L37 4L38 4L38 3L37 3L37 2L39 2L39 4L40 4L40 3L41 3L41 0L40 0L40 1L38 1L38 0L35 0L35 1L34 1L34 4L32 4L32 3L33 3L33 0L30 0L30 1L29 1L29 2L30 2L30 1L32 1L32 2L31 2L31 4L30 4L30 3L28 3L28 2L26 2L26 1L27 1L27 0L25 0L25 1L24 1L24 0L23 0L23 1L21 1L21 0L19 0L19 1L18 1L18 2L20 2L20 3L21 3L21 4L22 4L22 5L21 5L21 6L20 6L20 5L19 5L19 4L18 4L18 3L17 3L17 2L16 2L16 3L15 3L15 4L14 4L14 5L13 5L13 6L12 6L12 7L13 7L13 8L12 8L12 9L13 9L13 10L12 10L12 11L14 11L14 12L15 12L15 13L13 13L13 12L12 12L12 13L11 13L11 12L10 12L10 10L11 10L11 8L10 8L10 7L11 7L11 4L12 4L12 3L14 3L14 2L15 2L15 1L16 1L16 0L15 0L15 1L14 1L14 0L13 0L13 2L12 2L12 3L11 3L11 2L10 2L10 4L9 4L9 0ZM11 0L11 1L12 1L12 0ZM20 1L20 2L21 2L21 1ZM23 1L23 2L24 2L24 1ZM35 1L35 2L37 2L37 1ZM22 3L22 4L23 4L23 3ZM24 3L24 4L25 4L25 3ZM26 3L26 4L27 4L27 3ZM35 3L35 4L34 4L34 5L33 5L33 10L32 10L32 11L30 11L30 12L31 12L31 13L32 13L32 11L33 11L33 13L34 13L34 14L32 14L32 15L35 15L35 16L33 16L33 17L34 17L34 18L36 18L36 19L37 19L37 20L38 20L38 21L40 21L40 22L39 22L39 23L40 23L40 22L42 22L42 19L41 19L41 21L40 21L40 20L39 20L39 19L40 19L40 18L41 18L41 17L42 17L42 16L43 16L43 17L44 17L44 16L43 16L43 15L44 15L44 14L45 14L45 15L46 15L46 10L47 10L47 9L46 9L46 10L44 10L44 9L43 9L43 10L44 10L44 11L45 11L45 13L44 13L44 14L43 14L43 15L41 15L41 14L42 14L42 12L43 12L43 11L42 11L42 10L41 10L41 9L40 9L40 11L41 11L41 13L40 13L40 15L39 15L39 16L37 16L37 18L36 18L36 15L38 15L38 14L36 14L36 13L34 13L34 12L35 12L35 11L36 11L36 12L37 12L37 13L38 13L38 12L39 12L39 11L38 11L38 9L37 9L37 10L35 10L35 9L36 9L36 8L35 8L35 7L36 7L36 6L37 6L37 5L36 5L36 4L37 4L37 3ZM28 4L28 5L27 5L27 7L28 7L28 8L27 8L27 10L28 10L28 11L27 11L27 14L26 14L26 13L25 13L25 14L24 14L24 15L25 15L25 17L27 17L27 16L28 16L28 17L29 17L29 18L27 18L27 19L25 19L25 18L24 18L24 19L23 19L23 22L26 22L26 20L27 20L27 21L28 21L28 22L27 22L27 23L28 23L28 25L27 25L27 26L28 26L28 25L29 25L29 26L30 26L30 25L29 25L29 24L31 24L31 25L32 25L32 24L33 24L33 21L34 21L34 23L37 23L37 24L38 24L38 25L39 25L39 26L40 26L40 25L39 25L39 24L38 24L38 23L37 23L37 22L35 22L35 21L36 21L36 20L35 20L35 21L34 21L34 20L33 20L33 18L32 18L32 16L31 16L31 15L30 15L30 16L29 16L29 15L27 15L27 14L30 14L30 13L29 13L29 10L30 10L30 9L32 9L32 6L31 6L31 5L32 5L32 4L31 4L31 5L29 5L29 4ZM9 5L9 7L10 7L10 5ZM15 5L15 7L14 7L14 6L13 6L13 7L14 7L14 8L13 8L13 9L14 9L14 10L15 10L15 12L16 12L16 13L15 13L15 15L13 15L13 14L9 14L9 15L10 15L10 18L9 18L9 17L8 17L8 16L7 16L7 17L6 17L6 18L7 18L7 17L8 17L8 19L6 19L6 20L8 20L8 22L9 22L9 23L10 23L10 22L9 22L9 19L10 19L10 18L11 18L11 19L12 19L12 20L10 20L10 21L11 21L11 22L12 22L12 23L13 23L13 24L14 24L14 23L15 23L15 24L16 24L16 26L17 26L17 27L18 27L18 26L17 26L17 22L16 22L16 23L15 23L15 22L14 22L14 21L13 21L13 22L12 22L12 20L13 20L13 19L14 19L14 20L15 20L15 21L18 21L18 20L21 20L21 18L20 18L20 19L19 19L19 17L22 17L22 18L23 18L23 17L24 17L24 16L21 16L21 15L22 15L22 14L20 14L20 15L18 15L18 13L20 13L20 12L21 12L21 11L20 11L20 8L19 8L19 9L18 9L18 8L17 8L17 7L18 7L18 5L17 5L17 7L16 7L16 5ZM23 5L23 8L26 8L26 5ZM34 5L34 7L35 7L35 5ZM19 6L19 7L20 7L20 6ZM21 6L21 8L22 8L22 6ZM24 6L24 7L25 7L25 6ZM28 6L28 7L29 7L29 8L31 8L31 6L30 6L30 7L29 7L29 6ZM14 8L14 9L15 9L15 10L16 10L16 9L17 9L17 8ZM21 9L21 10L22 10L22 11L23 11L23 13L24 13L24 11L23 11L23 10L22 10L22 9ZM28 9L28 10L29 10L29 9ZM4 10L4 11L5 11L5 10ZM8 10L8 12L9 12L9 13L10 13L10 12L9 12L9 10ZM18 10L18 11L17 11L17 13L18 13L18 12L20 12L20 11L19 11L19 10ZM33 10L33 11L34 11L34 10ZM6 11L6 12L7 12L7 11ZM25 11L25 12L26 12L26 11ZM37 11L37 12L38 12L38 11ZM16 14L16 15L15 15L15 16L13 16L13 17L12 17L12 16L11 16L11 18L12 18L12 19L13 19L13 18L14 18L14 17L15 17L15 19L16 19L16 20L17 20L17 19L18 19L18 18L16 18L16 17L17 17L17 16L18 16L18 17L19 17L19 16L18 16L18 15L17 15L17 14ZM25 14L25 15L26 15L26 14ZM35 14L35 15L36 15L36 14ZM15 16L15 17L16 17L16 16ZM30 16L30 19L29 19L29 20L30 20L30 19L31 19L31 16ZM39 16L39 17L38 17L38 18L37 18L37 19L39 19L39 18L40 18L40 17L41 17L41 16ZM45 16L45 17L46 17L46 16ZM4 17L4 18L5 18L5 17ZM44 18L44 19L45 19L45 18ZM46 18L46 19L47 19L47 18ZM24 19L24 21L25 21L25 19ZM1 20L1 21L2 21L2 20ZM32 20L32 21L30 21L30 23L31 23L31 24L32 24L32 23L31 23L31 22L32 22L32 21L33 21L33 20ZM5 21L5 22L7 22L7 21ZM19 21L19 22L18 22L18 23L20 23L20 22L21 22L21 23L22 23L22 22L21 22L21 21ZM5 23L5 26L8 26L8 23ZM23 23L23 26L26 26L26 23ZM41 23L41 26L44 26L44 23ZM6 24L6 25L7 25L7 24ZM9 24L9 25L10 25L10 24ZM11 24L11 25L12 25L12 27L13 27L13 29L15 29L15 31L16 31L16 30L17 30L17 31L19 31L19 33L16 33L16 32L15 32L15 33L14 33L14 34L13 34L13 32L14 32L14 30L11 30L11 31L6 31L6 32L5 32L5 31L3 31L3 32L5 32L5 33L6 33L6 34L7 34L7 35L6 35L6 36L7 36L7 37L8 37L8 36L9 36L9 34L10 34L10 36L11 36L11 37L9 37L9 38L11 38L11 37L12 37L12 36L11 36L11 35L14 35L14 36L15 36L15 37L18 37L18 36L23 36L23 37L19 37L19 38L18 38L18 39L17 39L17 38L16 38L16 39L15 39L15 40L19 40L19 41L21 41L21 40L23 40L23 39L22 39L22 38L24 38L24 37L26 37L26 35L27 35L27 34L28 34L28 33L29 33L29 34L30 34L30 33L29 33L29 31L28 31L28 30L30 30L30 29L31 29L31 28L32 28L32 26L31 26L31 28L29 28L29 27L28 27L28 28L27 28L27 29L28 29L28 30L26 30L26 32L25 32L25 30L24 30L24 29L25 29L25 28L24 28L24 29L23 29L23 28L22 28L22 27L21 27L21 26L20 26L20 28L18 28L18 29L17 29L17 28L16 28L16 29L15 29L15 28L14 28L14 27L13 27L13 26L15 26L15 25L12 25L12 24ZM19 24L19 25L21 25L21 24ZM24 24L24 25L25 25L25 24ZM42 24L42 25L43 25L43 24ZM45 24L45 25L46 25L46 24ZM2 26L2 30L4 30L4 29L6 29L6 30L8 30L8 27L3 27L3 26ZM9 26L9 28L10 28L10 29L11 29L11 28L10 28L10 26ZM37 26L37 28L38 28L38 29L40 29L40 30L41 30L41 27L40 27L40 28L38 28L38 26ZM43 27L43 28L44 28L44 29L46 29L46 27ZM6 28L6 29L7 29L7 28ZM20 28L20 29L18 29L18 30L19 30L19 31L20 31L20 30L21 30L21 28ZM22 30L22 31L21 31L21 32L23 32L23 33L22 33L22 34L21 34L21 33L19 33L19 34L21 34L21 35L23 35L23 36L24 36L24 35L26 35L26 34L27 34L27 33L28 33L28 32L26 32L26 33L24 33L24 30ZM12 31L12 32L13 32L13 31ZM31 31L31 32L32 32L32 31ZM36 31L36 34L38 34L38 35L39 35L39 32L37 32L37 31ZM6 32L6 33L8 33L8 32ZM33 32L33 33L34 33L34 32ZM40 32L40 33L41 33L41 32ZM10 33L10 34L11 34L11 33ZM23 33L23 34L24 34L24 33ZM15 34L15 36L17 36L17 35L18 35L18 34L17 34L17 35L16 35L16 34ZM7 35L7 36L8 36L8 35ZM0 36L0 38L1 38L1 40L0 40L0 41L3 41L3 40L4 40L4 39L2 39L2 38L3 38L3 36ZM34 36L34 38L33 38L33 37L32 37L32 38L31 38L31 40L32 40L32 39L35 39L35 36ZM36 37L36 39L37 39L37 40L38 40L38 39L39 39L39 42L38 42L38 41L37 41L37 42L36 42L36 41L34 41L34 40L33 40L33 41L32 41L32 42L31 42L31 43L30 43L30 44L29 44L29 43L27 43L27 46L29 46L29 47L30 47L30 48L31 48L31 47L30 47L30 45L31 45L31 46L32 46L32 47L33 47L33 48L36 48L36 46L35 46L35 44L36 44L36 43L37 43L37 44L38 44L38 45L39 45L39 44L40 44L40 43L39 43L39 42L40 42L40 40L41 40L41 39L40 39L40 38L38 38L38 37ZM42 37L42 39L43 39L43 40L46 40L46 39L44 39L44 37ZM20 38L20 39L19 39L19 40L21 40L21 38ZM25 38L25 39L27 39L27 38ZM23 41L23 44L26 44L26 41ZM33 41L33 42L32 42L32 44L31 44L31 45L32 45L32 46L33 46L33 47L34 47L34 44L35 44L35 43L34 43L34 41ZM41 41L41 44L44 44L44 41ZM12 42L12 43L10 43L10 44L9 44L9 45L10 45L10 44L13 44L13 45L15 45L15 44L14 44L14 43L13 43L13 42ZM20 42L20 43L19 43L19 44L18 44L18 45L20 45L20 44L22 44L22 43L21 43L21 42ZM24 42L24 43L25 43L25 42ZM37 42L37 43L38 43L38 44L39 44L39 43L38 43L38 42ZM42 42L42 43L43 43L43 42ZM33 43L33 44L34 44L34 43ZM21 45L21 46L22 46L22 47L23 47L23 45ZM24 48L24 49L25 49L25 48ZM0 0L0 7L7 7L7 0ZM1 1L1 6L6 6L6 1ZM2 2L2 5L5 5L5 2ZM42 0L42 7L49 7L49 0ZM43 1L43 6L48 6L48 1ZM44 2L44 5L47 5L47 2ZM0 42L0 49L7 49L7 42ZM1 43L1 48L6 48L6 43ZM2 44L2 47L5 47L5 44Z" fill="#000000"/></g></g></svg>
