<?xml version="1.0" encoding="UTF-8"?>
<svg xmlns="http://www.w3.org/2000/svg" version="1.1" width="200" height="200" viewBox="0 0 200 200"><rect x="0" y="0" width="200" height="200" fill="#ffffff"/><g transform="scale(4.878)"><g transform="translate(0,0)"><path fill-rule="evenodd" d="M8 0L8 1L9 1L9 2L8 2L8 5L9 5L9 6L8 6L8 7L9 7L9 6L10 6L10 8L8 8L8 9L7 9L7 8L6 8L6 9L4 9L4 8L0 8L0 10L2 10L2 9L3 9L3 10L5 10L5 11L3 11L3 12L4 12L4 13L5 13L5 14L3 14L3 13L2 13L2 12L1 12L1 14L3 14L3 17L2 17L2 18L1 18L1 19L0 19L0 22L1 22L1 24L0 24L0 25L1 25L1 27L0 27L0 28L2 28L2 27L4 27L4 26L5 26L5 25L8 25L8 26L6 26L6 27L5 27L5 28L6 28L6 29L7 29L7 28L6 28L6 27L8 27L8 28L9 28L9 30L10 30L10 31L9 31L9 32L6 32L6 31L8 31L8 30L6 30L6 31L5 31L5 30L4 30L4 29L3 29L3 31L2 31L2 32L1 32L1 33L3 33L3 31L4 31L4 32L5 32L5 33L8 33L8 34L9 34L9 32L10 32L10 31L11 31L11 32L12 32L12 31L11 31L11 30L10 30L10 26L11 26L11 25L12 25L12 28L11 28L11 29L13 29L13 30L14 30L14 29L13 29L13 28L14 28L14 27L15 27L15 28L16 28L16 27L17 27L17 26L19 26L19 27L20 27L20 26L21 26L21 22L22 22L22 20L25 20L25 19L26 19L26 21L23 21L23 23L25 23L25 24L24 24L24 27L26 27L26 28L25 28L25 29L24 29L24 28L23 28L23 25L22 25L22 27L21 27L21 28L20 28L20 33L19 33L19 34L20 34L20 35L22 35L22 39L20 39L20 37L19 37L19 36L17 36L17 35L18 35L18 34L17 34L17 35L16 35L16 36L15 36L15 34L14 34L14 35L12 35L12 33L11 33L11 35L10 35L10 36L12 36L12 37L8 37L8 41L9 41L9 39L10 39L10 38L11 38L11 40L10 40L10 41L11 41L11 40L12 40L12 41L13 41L13 40L12 40L12 38L14 38L14 37L13 37L13 36L15 36L15 37L16 37L16 36L17 36L17 38L16 38L16 39L15 39L15 40L16 40L16 39L17 39L17 38L18 38L18 40L19 40L19 39L20 39L20 40L21 40L21 41L22 41L22 39L23 39L23 35L25 35L25 36L24 36L24 40L23 40L23 41L26 41L26 40L29 40L29 39L30 39L30 41L31 41L31 40L32 40L32 41L34 41L34 40L35 40L35 41L38 41L38 40L37 40L37 39L38 39L38 37L37 37L37 33L39 33L39 31L38 31L38 29L37 29L37 27L35 27L35 26L36 26L36 24L35 24L35 23L36 23L36 22L38 22L38 23L40 23L40 22L41 22L41 20L40 20L40 21L39 21L39 19L35 19L35 20L34 20L34 22L32 22L32 21L33 21L33 19L34 19L34 17L33 17L33 16L32 16L32 21L31 21L31 20L30 20L30 19L31 19L31 17L30 17L30 18L28 18L28 17L27 17L27 19L26 19L26 16L27 16L27 14L28 14L28 13L29 13L29 14L30 14L30 15L32 15L32 14L33 14L33 13L34 13L34 15L35 15L35 14L36 14L36 16L35 16L35 17L38 17L38 15L41 15L41 13L40 13L40 14L38 14L38 13L39 13L39 12L38 12L38 13L37 13L37 14L36 14L36 13L34 13L34 12L35 12L35 11L36 11L36 10L39 10L39 11L40 11L40 12L41 12L41 11L40 11L40 10L41 10L41 8L40 8L40 9L39 9L39 8L36 8L36 10L35 10L35 9L34 9L34 8L33 8L33 6L32 6L32 5L33 5L33 4L32 4L32 3L33 3L33 0L31 0L31 1L32 1L32 3L31 3L31 4L29 4L29 5L28 5L28 3L29 3L29 2L28 2L28 3L27 3L27 4L25 4L25 3L26 3L26 2L27 2L27 1L30 1L30 0L27 0L27 1L26 1L26 2L24 2L24 0L23 0L23 2L22 2L22 3L21 3L21 2L19 2L19 1L20 1L20 0L19 0L19 1L16 1L16 2L18 2L18 3L17 3L17 4L16 4L16 3L15 3L15 0L14 0L14 2L13 2L13 0L10 0L10 1L9 1L9 0ZM21 0L21 1L22 1L22 0ZM9 2L9 5L10 5L10 6L11 6L11 8L13 8L13 9L12 9L12 10L11 10L11 9L8 9L8 10L7 10L7 9L6 9L6 10L7 10L7 11L5 11L5 13L6 13L6 14L5 14L5 15L4 15L4 17L3 17L3 18L4 18L4 19L5 19L5 20L4 20L4 21L5 21L5 22L3 22L3 21L2 21L2 20L3 20L3 19L1 19L1 22L3 22L3 23L4 23L4 24L2 24L2 25L3 25L3 26L4 26L4 24L8 24L8 25L9 25L9 26L8 26L8 27L9 27L9 26L10 26L10 24L11 24L11 23L13 23L13 22L14 22L14 21L15 21L15 20L17 20L17 19L18 19L18 22L19 22L19 23L20 23L20 22L19 22L19 19L21 19L21 20L20 20L20 21L21 21L21 20L22 20L22 19L21 19L21 18L22 18L22 17L21 17L21 15L22 15L22 16L24 16L24 17L23 17L23 19L25 19L25 16L26 16L26 15L25 15L25 14L26 14L26 12L30 12L30 13L32 13L32 12L31 12L31 11L33 11L33 12L34 12L34 11L35 11L35 10L34 10L34 9L33 9L33 8L32 8L32 6L31 6L31 7L30 7L30 5L29 5L29 7L28 7L28 5L26 5L26 6L25 6L25 8L24 8L24 9L23 9L23 8L22 8L22 4L21 4L21 3L20 3L20 6L19 6L19 5L17 5L17 7L18 7L18 10L17 10L17 8L16 8L16 9L15 9L15 7L16 7L16 6L15 6L15 7L14 7L14 5L16 5L16 4L15 4L15 3L13 3L13 2L12 2L12 3L10 3L10 2ZM23 2L23 7L24 7L24 5L25 5L25 4L24 4L24 2ZM12 3L12 4L10 4L10 5L11 5L11 6L12 6L12 7L13 7L13 6L12 6L12 5L13 5L13 3ZM31 4L31 5L32 5L32 4ZM18 6L18 7L19 7L19 6ZM20 6L20 7L21 7L21 6ZM26 6L26 9L25 9L25 12L24 12L24 10L23 10L23 9L22 9L22 8L21 8L21 10L23 10L23 12L22 12L22 14L23 14L23 13L25 13L25 12L26 12L26 11L27 11L27 10L26 10L26 9L30 9L30 10L28 10L28 11L30 11L30 10L33 10L33 11L34 11L34 10L33 10L33 9L32 9L32 8L30 8L30 7L29 7L29 8L28 8L28 7L27 7L27 6ZM19 8L19 10L20 10L20 8ZM13 9L13 11L14 11L14 10L15 10L15 9ZM8 10L8 11L9 11L9 12L8 12L8 13L9 13L9 12L10 12L10 13L11 13L11 14L9 14L9 15L7 15L7 14L6 14L6 15L7 15L7 16L5 16L5 17L7 17L7 18L6 18L6 19L8 19L8 21L7 21L7 20L5 20L5 21L7 21L7 22L5 22L5 23L7 23L7 22L9 22L9 24L10 24L10 22L9 22L9 21L12 21L12 20L13 20L13 21L14 21L14 20L13 20L13 18L15 18L15 19L16 19L16 18L17 18L17 16L16 16L16 15L15 15L15 16L13 16L13 14L15 14L15 12L16 12L16 13L17 13L17 14L18 14L18 13L19 13L19 15L21 15L21 14L20 14L20 13L19 13L19 12L21 12L21 11L19 11L19 12L17 12L17 11L15 11L15 12L14 12L14 13L13 13L13 14L12 14L12 11L11 11L11 10L10 10L10 11L9 11L9 10ZM10 11L10 12L11 12L11 11ZM6 12L6 13L7 13L7 12ZM11 14L11 16L12 16L12 17L13 17L13 16L12 16L12 14ZM37 14L37 15L38 15L38 14ZM1 15L1 16L2 16L2 15ZM9 15L9 16L7 16L7 17L8 17L8 19L9 19L9 20L10 20L10 18L11 18L11 19L12 19L12 18L11 18L11 17L10 17L10 18L9 18L9 16L10 16L10 15ZM24 15L24 16L25 16L25 15ZM15 16L15 17L16 17L16 16ZM39 16L39 18L41 18L41 17L40 17L40 16ZM18 18L18 19L19 19L19 18ZM27 19L27 21L26 21L26 24L27 24L27 25L25 25L25 26L26 26L26 27L27 27L27 28L26 28L26 31L25 31L25 33L24 33L24 34L25 34L25 33L26 33L26 36L27 36L27 37L28 37L28 36L30 36L30 37L29 37L29 38L26 38L26 39L25 39L25 40L26 40L26 39L29 39L29 38L30 38L30 39L31 39L31 38L30 38L30 37L32 37L32 39L34 39L34 38L35 38L35 37L34 37L34 38L33 38L33 37L32 37L32 35L28 35L28 33L29 33L29 34L30 34L30 32L31 32L31 34L32 34L32 30L33 30L33 29L34 29L34 30L35 30L35 31L37 31L37 29L35 29L35 28L33 28L33 29L30 29L30 28L32 28L32 27L33 27L33 26L35 26L35 24L34 24L34 23L35 23L35 22L34 22L34 23L33 23L33 24L32 24L32 27L29 27L29 26L31 26L31 25L29 25L29 26L27 26L27 25L28 25L28 24L31 24L31 23L32 23L32 22L29 22L29 23L28 23L28 21L29 21L29 20L28 20L28 19ZM36 20L36 21L37 21L37 20ZM38 21L38 22L39 22L39 21ZM16 22L16 24L15 24L15 23L14 23L14 26L13 26L13 27L14 27L14 26L15 26L15 27L16 27L16 26L17 26L17 25L16 25L16 24L18 24L18 23L17 23L17 22ZM27 23L27 24L28 24L28 23ZM19 24L19 25L20 25L20 24ZM33 24L33 25L34 25L34 24ZM38 24L38 26L39 26L39 24ZM15 25L15 26L16 26L16 25ZM40 25L40 27L39 27L39 28L41 28L41 25ZM1 29L1 30L0 30L0 31L1 31L1 30L2 30L2 29ZM16 29L16 30L15 30L15 31L14 31L14 32L13 32L13 33L14 33L14 32L15 32L15 33L16 33L16 30L17 30L17 33L18 33L18 31L19 31L19 29L18 29L18 30L17 30L17 29ZM27 29L27 31L26 31L26 33L27 33L27 31L28 31L28 32L30 32L30 31L31 31L31 30L30 30L30 31L28 31L28 29ZM39 29L39 30L41 30L41 29ZM21 30L21 32L24 32L24 30ZM33 31L33 32L34 32L34 31ZM40 31L40 32L41 32L41 31ZM20 33L20 34L23 34L23 33ZM33 33L33 36L36 36L36 33ZM40 33L40 34L38 34L38 35L39 35L39 36L40 36L40 37L39 37L39 41L40 41L40 39L41 39L41 36L40 36L40 34L41 34L41 33ZM34 34L34 35L35 35L35 34ZM27 35L27 36L28 36L28 35ZM36 37L36 39L37 39L37 37ZM0 0L0 7L7 7L7 0ZM1 1L1 6L6 6L6 1ZM2 2L2 5L5 5L5 2ZM34 0L34 7L41 7L41 0ZM35 1L35 6L40 6L40 1ZM36 2L36 5L39 5L39 2ZM0 34L0 41L7 41L7 34ZM1 35L1 40L6 40L6 35ZM2 36L2 39L5 39L5 36Z" fill="#000000"/></g></g></svg>
