<?xml version="1.0" encoding="UTF-8"?>
<svg xmlns="http://www.w3.org/2000/svg" version="1.1" width="200" height="200" viewBox="0 0 200 200"><rect x="0" y="0" width="200" height="200" fill="#ffffff"/><g transform="scale(4.444)"><g transform="translate(0,0)"><path fill-rule="evenodd" d="M8 0L8 1L9 1L9 2L8 2L8 5L9 5L9 6L8 6L8 7L9 7L9 6L10 6L10 7L11 7L11 6L12 6L12 8L11 8L11 10L13 10L13 6L12 6L12 5L9 5L9 4L10 4L10 3L11 3L11 4L13 4L13 5L14 5L14 7L15 7L15 6L16 6L16 7L17 7L17 6L18 6L18 7L19 7L19 6L20 6L20 8L19 8L19 9L18 9L18 10L19 10L19 9L21 9L21 12L22 12L22 13L23 13L23 14L20 14L20 15L24 15L24 13L25 13L25 12L26 12L26 14L25 14L25 15L26 15L26 16L25 16L25 17L24 17L24 16L21 16L21 18L20 18L20 17L19 17L19 16L18 16L18 17L19 17L19 18L20 18L20 23L19 23L19 24L18 24L18 21L17 21L17 23L14 23L14 22L16 22L16 20L15 20L15 19L11 19L11 18L12 18L12 17L11 17L11 18L10 18L10 19L8 19L8 20L5 20L5 17L7 17L7 18L6 18L6 19L7 19L7 18L9 18L9 16L8 16L8 15L12 15L12 13L13 13L13 16L14 16L14 17L16 17L16 18L17 18L17 19L18 19L18 18L17 18L17 17L16 17L16 15L19 15L19 13L20 13L20 11L19 11L19 12L18 12L18 11L17 11L17 8L16 8L16 11L15 11L15 10L14 10L14 12L16 12L16 13L17 13L17 14L16 14L16 15L15 15L15 16L14 16L14 13L13 13L13 11L12 11L12 12L11 12L11 11L10 11L10 9L9 9L9 8L8 8L8 9L7 9L7 8L6 8L6 9L4 9L4 8L0 8L0 12L1 12L1 9L2 9L2 13L1 13L1 14L3 14L3 13L7 13L7 12L3 12L3 11L4 11L4 10L6 10L6 11L7 11L7 10L9 10L9 11L10 11L10 13L11 13L11 14L9 14L9 12L8 12L8 15L7 15L7 14L6 14L6 15L7 15L7 16L5 16L5 17L4 17L4 16L3 16L3 15L2 15L2 16L3 16L3 17L4 17L4 19L2 19L2 18L0 18L0 19L2 19L2 21L3 21L3 23L2 23L2 26L0 26L0 29L2 29L2 27L3 27L3 28L4 28L4 30L2 30L2 32L3 32L3 34L4 34L4 35L1 35L1 36L0 36L0 37L1 37L1 36L3 36L3 37L5 37L5 33L4 33L4 31L7 31L7 30L8 30L8 31L9 31L9 32L6 32L6 33L9 33L9 34L6 34L6 35L7 35L7 36L6 36L6 37L7 37L7 36L8 36L8 35L11 35L11 37L10 37L10 38L12 38L12 39L11 39L11 40L12 40L12 39L13 39L13 38L14 38L14 40L13 40L13 42L11 42L11 41L8 41L8 45L9 45L9 44L12 44L12 45L14 45L14 44L15 44L15 45L16 45L16 44L17 44L17 43L18 43L18 40L19 40L19 39L17 39L17 38L19 38L19 37L20 37L20 41L19 41L19 42L20 42L20 43L19 43L19 45L20 45L20 43L21 43L21 41L22 41L22 43L23 43L23 45L24 45L24 44L26 44L26 45L32 45L32 44L31 44L31 43L30 43L30 39L32 39L32 41L31 41L31 42L32 42L32 43L33 43L33 44L34 44L34 45L36 45L36 43L37 43L37 41L38 41L38 42L39 42L39 41L40 41L40 42L41 42L41 41L43 41L43 42L44 42L44 44L45 44L45 42L44 42L44 41L45 41L45 40L44 40L44 41L43 41L43 39L44 39L44 37L45 37L45 36L44 36L44 35L45 35L45 33L44 33L44 32L45 32L45 31L43 31L43 30L42 30L42 29L43 29L43 28L45 28L45 27L44 27L44 26L42 26L42 25L41 25L41 24L42 24L42 23L43 23L43 22L44 22L44 24L45 24L45 21L44 21L44 20L42 20L42 19L40 19L40 20L39 20L39 18L38 18L38 17L37 17L37 15L36 15L36 14L35 14L35 15L34 15L34 14L33 14L33 13L35 13L35 10L37 10L37 11L36 11L36 12L37 12L37 14L38 14L38 16L41 16L41 17L40 17L40 18L41 18L41 17L42 17L42 18L43 18L43 19L44 19L44 18L43 18L43 17L45 17L45 15L44 15L44 12L45 12L45 8L44 8L44 10L43 10L43 8L40 8L40 9L39 9L39 10L42 10L42 11L41 11L41 13L43 13L43 15L42 15L42 14L41 14L41 15L40 15L40 14L39 14L39 11L38 11L38 10L37 10L37 9L38 9L38 8L37 8L37 6L36 6L36 9L35 9L35 8L34 8L34 7L35 7L35 6L34 6L34 7L33 7L33 5L37 5L37 3L36 3L36 1L37 1L37 0L36 0L36 1L35 1L35 4L34 4L34 3L33 3L33 1L34 1L34 0L33 0L33 1L32 1L32 0L27 0L27 2L31 2L31 3L33 3L33 4L31 4L31 5L30 5L30 4L28 4L28 3L26 3L26 0L25 0L25 3L23 3L23 2L21 2L21 3L20 3L20 2L18 2L18 0L17 0L17 2L16 2L16 0L15 0L15 2L12 2L12 1L14 1L14 0L12 0L12 1L11 1L11 0L10 0L10 1L9 1L9 0ZM19 0L19 1L20 1L20 0ZM21 0L21 1L23 1L23 0ZM10 1L10 2L9 2L9 3L10 3L10 2L11 2L11 3L12 3L12 2L11 2L11 1ZM15 2L15 3L13 3L13 4L14 4L14 5L18 5L18 2L17 2L17 4L16 4L16 2ZM21 3L21 4L23 4L23 3ZM25 3L25 8L26 8L26 3ZM19 4L19 5L20 5L20 4ZM21 5L21 8L24 8L24 5ZM27 5L27 8L28 8L28 5ZM29 5L29 8L30 8L30 9L26 9L26 10L25 10L25 9L22 9L22 11L23 11L23 13L24 13L24 12L25 12L25 11L27 11L27 10L28 10L28 12L27 12L27 13L30 13L30 14L28 14L28 15L29 15L29 16L28 16L28 17L25 17L25 18L28 18L28 17L29 17L29 16L30 16L30 18L32 18L32 17L31 17L31 16L30 16L30 14L31 14L31 13L33 13L33 12L34 12L34 10L35 10L35 9L33 9L33 7L32 7L32 6L31 6L31 7L30 7L30 5ZM22 6L22 7L23 7L23 6ZM31 7L31 8L32 8L32 7ZM14 8L14 9L15 9L15 8ZM6 9L6 10L7 10L7 9ZM30 9L30 10L29 10L29 12L30 12L30 13L31 13L31 10L32 10L32 12L33 12L33 9ZM23 10L23 11L24 11L24 10ZM16 11L16 12L17 12L17 13L18 13L18 12L17 12L17 11ZM37 11L37 12L38 12L38 11ZM42 11L42 12L43 12L43 11ZM4 14L4 15L5 15L5 14ZM0 15L0 17L1 17L1 15ZM33 15L33 17L34 17L34 15ZM35 15L35 16L36 16L36 15ZM43 15L43 16L44 16L44 15ZM23 17L23 18L22 18L22 20L24 20L24 17ZM36 17L36 18L35 18L35 20L34 20L34 18L33 18L33 19L32 19L32 21L31 21L31 22L29 22L29 21L30 21L30 20L31 20L31 19L30 19L30 20L29 20L29 21L28 21L28 23L26 23L26 22L27 22L27 21L26 21L26 22L25 22L25 23L26 23L26 25L27 25L27 28L28 28L28 29L29 29L29 28L30 28L30 31L31 31L31 32L30 32L30 33L31 33L31 35L29 35L29 33L28 33L28 31L29 31L29 30L27 30L27 29L25 29L25 28L24 28L24 25L23 25L23 27L22 27L22 29L21 29L21 26L22 26L22 25L21 25L21 26L20 26L20 28L18 28L18 27L19 27L19 25L18 25L18 24L16 24L16 25L17 25L17 26L15 26L15 28L16 28L16 29L17 29L17 28L18 28L18 29L19 29L19 30L18 30L18 31L19 31L19 32L20 32L20 34L18 34L18 33L16 33L16 35L15 35L15 36L14 36L14 34L15 34L15 32L14 32L14 34L13 34L13 32L11 32L11 31L12 31L12 30L13 30L13 31L16 31L16 32L17 32L17 30L14 30L14 27L13 27L13 26L14 26L14 25L12 25L12 27L9 27L9 29L8 29L8 30L10 30L10 32L9 32L9 33L12 33L12 34L13 34L13 36L12 36L12 38L13 38L13 37L14 37L14 38L15 38L15 39L16 39L16 40L14 40L14 43L12 43L12 44L14 44L14 43L15 43L15 41L16 41L16 42L17 42L17 39L16 39L16 38L17 38L17 37L18 37L18 35L19 35L19 36L22 36L22 35L23 35L23 36L25 36L25 35L28 35L28 36L26 36L26 37L27 37L27 38L29 38L29 39L30 39L30 38L32 38L32 39L34 39L34 40L33 40L33 43L34 43L34 44L35 44L35 43L34 43L34 40L36 40L36 39L35 39L35 37L36 37L36 35L37 35L37 36L39 36L39 35L40 35L40 34L41 34L41 33L42 33L42 35L41 35L41 37L42 37L42 39L41 39L41 40L42 40L42 39L43 39L43 37L44 37L44 36L43 36L43 33L42 33L42 32L43 32L43 31L42 31L42 30L38 30L38 27L39 27L39 25L37 25L37 26L35 26L35 25L36 25L36 22L35 22L35 21L36 21L36 18L37 18L37 17ZM25 19L25 20L26 20L26 19ZM27 19L27 20L28 20L28 19ZM37 19L37 20L38 20L38 19ZM0 20L0 23L1 23L1 20ZM3 20L3 21L4 21L4 20ZM10 20L10 21L11 21L11 22L12 22L12 24L13 24L13 22L12 22L12 20ZM14 20L14 21L15 21L15 20ZM41 20L41 21L42 21L42 22L43 22L43 21L42 21L42 20ZM5 21L5 24L8 24L8 21ZM21 21L21 24L24 24L24 21ZM33 21L33 22L34 22L34 23L32 23L32 22L31 22L31 25L32 25L32 24L33 24L33 26L30 26L30 28L31 28L31 27L32 27L32 29L31 29L31 30L36 30L36 29L37 29L37 28L36 28L36 27L35 27L35 28L34 28L34 27L33 27L33 26L34 26L34 24L35 24L35 22L34 22L34 21ZM37 21L37 24L40 24L40 21ZM6 22L6 23L7 23L7 22ZM22 22L22 23L23 23L23 22ZM38 22L38 23L39 23L39 22ZM3 23L3 26L5 26L5 25L4 25L4 23ZM10 23L10 24L11 24L11 23ZM28 23L28 24L29 24L29 25L30 25L30 24L29 24L29 23ZM6 25L6 26L7 26L7 27L6 27L6 28L5 28L5 27L4 27L4 28L5 28L5 30L7 30L7 29L6 29L6 28L8 28L8 26L7 26L7 25ZM10 25L10 26L11 26L11 25ZM40 25L40 26L41 26L41 27L40 27L40 28L39 28L39 29L41 29L41 28L42 28L42 26L41 26L41 25ZM25 26L25 27L26 27L26 26ZM28 26L28 28L29 28L29 26ZM37 26L37 27L38 27L38 26ZM12 27L12 29L13 29L13 27ZM16 27L16 28L17 28L17 27ZM23 28L23 30L25 30L25 29L24 29L24 28ZM33 28L33 29L34 29L34 28ZM44 29L44 30L45 30L45 29ZM0 30L0 31L1 31L1 30ZM21 30L21 31L20 31L20 32L22 32L22 33L21 33L21 34L20 34L20 35L22 35L22 34L23 34L23 35L25 35L25 34L26 34L26 33L25 33L25 32L27 32L27 30L26 30L26 31L25 31L25 32L24 32L24 33L25 33L25 34L23 34L23 32L22 32L22 30ZM32 31L32 32L33 32L33 33L32 33L32 36L33 36L33 37L32 37L32 38L33 38L33 37L35 37L35 34L36 34L36 33L38 33L38 32L37 32L37 31L36 31L36 33L35 33L35 32L34 32L34 31ZM40 31L40 32L41 32L41 31ZM0 33L0 34L1 34L1 33ZM34 33L34 34L33 34L33 36L34 36L34 34L35 34L35 33ZM17 34L17 35L16 35L16 37L17 37L17 35L18 35L18 34ZM37 34L37 35L39 35L39 34ZM8 37L8 38L9 38L9 37ZM21 37L21 40L24 40L24 37ZM37 37L37 40L40 40L40 37ZM22 38L22 39L23 39L23 38ZM38 38L38 39L39 39L39 38ZM26 39L26 40L27 40L27 39ZM28 40L28 41L26 41L26 42L25 42L25 43L26 43L26 44L28 44L28 43L29 43L29 44L30 44L30 43L29 43L29 40ZM23 41L23 43L24 43L24 41ZM35 41L35 42L36 42L36 41ZM9 42L9 43L10 43L10 42ZM26 42L26 43L27 43L27 42ZM38 43L38 44L37 44L37 45L39 45L39 43ZM40 44L40 45L42 45L42 44ZM0 0L0 7L7 7L7 0ZM1 1L1 6L6 6L6 1ZM2 2L2 5L5 5L5 2ZM38 0L38 7L45 7L45 0ZM39 1L39 6L44 6L44 1ZM40 2L40 5L43 5L43 2ZM0 38L0 45L7 45L7 38ZM1 39L1 44L6 44L6 39ZM2 40L2 43L5 43L5 40Z" fill="#000000"/></g></g></svg>
