<?xml version="1.0" encoding="UTF-8"?>
<svg xmlns="http://www.w3.org/2000/svg" version="1.1" width="200" height="200" viewBox="0 0 200 200"><rect x="0" y="0" width="200" height="200" fill="#ffffff"/><g transform="scale(4.444)"><g transform="translate(0,0)"><path fill-rule="evenodd" d="M8 0L8 4L10 4L10 5L8 5L8 7L9 7L9 6L10 6L10 7L11 7L11 8L9 8L9 9L8 9L8 10L10 10L10 11L9 11L9 12L8 12L8 11L7 11L7 10L6 10L6 9L7 9L7 8L4 8L4 9L2 9L2 8L0 8L0 10L1 10L1 11L0 11L0 17L1 17L1 16L2 16L2 15L4 15L4 17L2 17L2 18L1 18L1 19L0 19L0 21L1 21L1 22L0 22L0 23L1 23L1 24L2 24L2 25L0 25L0 27L1 27L1 28L0 28L0 29L1 29L1 30L0 30L0 32L1 32L1 33L0 33L0 34L3 34L3 33L5 33L5 32L6 32L6 33L7 33L7 32L6 32L6 31L7 31L7 30L6 30L6 29L7 29L7 28L6 28L6 29L5 29L5 28L4 28L4 26L2 26L2 25L3 25L3 24L4 24L4 25L9 25L9 24L10 24L10 23L9 23L9 20L10 20L10 22L11 22L11 21L12 21L12 23L11 23L11 24L12 24L12 25L11 25L11 27L12 27L12 28L11 28L11 29L10 29L10 26L8 26L8 29L10 29L10 31L9 31L9 30L8 30L8 32L9 32L9 34L8 34L8 35L9 35L9 36L6 36L6 37L8 37L8 38L9 38L9 39L8 39L8 41L9 41L9 42L10 42L10 45L11 45L11 44L12 44L12 43L13 43L13 45L17 45L17 44L16 44L16 41L19 41L19 42L18 42L18 43L19 43L19 44L18 44L18 45L21 45L21 44L22 44L22 45L25 45L25 43L24 43L24 42L23 42L23 43L22 43L22 41L25 41L25 42L26 42L26 45L28 45L28 43L29 43L29 44L30 44L30 43L31 43L31 42L32 42L32 44L31 44L31 45L33 45L33 42L32 42L32 41L33 41L33 40L34 40L34 41L35 41L35 40L36 40L36 41L41 41L41 40L42 40L42 39L41 39L41 36L42 36L42 33L41 33L41 32L40 32L40 31L42 31L42 30L43 30L43 29L44 29L44 28L45 28L45 27L43 27L43 26L44 26L44 25L45 25L45 24L44 24L44 23L43 23L43 22L42 22L42 21L41 21L41 20L42 20L42 19L44 19L44 20L43 20L43 21L45 21L45 19L44 19L44 18L45 18L45 15L44 15L44 18L40 18L40 19L39 19L39 17L38 17L38 16L40 16L40 15L39 15L39 13L40 13L40 11L41 11L41 9L42 9L42 11L44 11L44 13L45 13L45 11L44 11L44 9L45 9L45 8L41 8L41 9L40 9L40 8L39 8L39 9L35 9L35 10L37 10L37 11L34 11L34 8L35 8L35 6L34 6L34 8L33 8L33 6L32 6L32 5L37 5L37 3L36 3L36 1L37 1L37 0L36 0L36 1L35 1L35 4L34 4L34 2L33 2L33 0L32 0L32 2L31 2L31 3L33 3L33 4L32 4L32 5L31 5L31 4L30 4L30 5L31 5L31 6L30 6L30 7L31 7L31 8L29 8L29 9L30 9L30 10L28 10L28 7L29 7L29 3L28 3L28 4L27 4L27 3L25 3L25 4L22 4L22 3L24 3L24 2L25 2L25 1L23 1L23 2L21 2L21 0L19 0L19 1L18 1L18 2L16 2L16 3L17 3L17 6L16 6L16 5L14 5L14 7L15 7L15 8L13 8L13 2L14 2L14 3L15 3L15 2L14 2L14 0L13 0L13 1L12 1L12 4L10 4L10 3L11 3L11 2L10 2L10 3L9 3L9 1L11 1L11 0ZM15 0L15 1L16 1L16 0ZM26 0L26 1L27 1L27 2L29 2L29 1L31 1L31 0L28 0L28 1L27 1L27 0ZM19 1L19 3L18 3L18 6L17 6L17 7L18 7L18 8L17 8L17 9L16 9L16 10L15 10L15 9L13 9L13 10L11 10L11 12L12 12L12 13L10 13L10 12L9 12L9 13L6 13L6 12L7 12L7 11L6 11L6 10L4 10L4 11L5 11L5 13L4 13L4 12L2 12L2 11L3 11L3 10L2 10L2 11L1 11L1 14L2 14L2 13L3 13L3 14L4 14L4 15L5 15L5 17L4 17L4 18L2 18L2 21L3 21L3 22L4 22L4 21L3 21L3 19L4 19L4 20L7 20L7 19L6 19L6 18L8 18L8 16L11 16L11 14L13 14L13 15L12 15L12 19L11 19L11 18L10 18L10 20L12 20L12 21L13 21L13 24L15 24L15 25L12 25L12 26L13 26L13 28L12 28L12 29L11 29L11 30L12 30L12 29L13 29L13 31L12 31L12 32L11 32L11 33L10 33L10 34L11 34L11 35L10 35L10 36L9 36L9 38L10 38L10 37L11 37L11 38L12 38L12 37L13 37L13 39L14 39L14 40L15 40L15 41L14 41L14 42L13 42L13 43L14 43L14 44L15 44L15 41L16 41L16 40L15 40L15 39L14 39L14 38L17 38L17 40L18 40L18 38L20 38L20 36L21 36L21 35L22 35L22 33L23 33L23 32L24 32L24 34L25 34L25 35L24 35L24 36L25 36L25 39L26 39L26 40L25 40L25 41L26 41L26 40L27 40L27 39L28 39L28 41L27 41L27 43L28 43L28 41L30 41L30 38L27 38L27 39L26 39L26 36L25 36L25 35L26 35L26 32L27 32L27 33L28 33L28 34L29 34L29 31L31 31L31 33L32 33L32 34L31 34L31 35L30 35L30 36L29 36L29 35L28 35L28 37L30 37L30 36L31 36L31 35L33 35L33 34L34 34L34 35L37 35L37 32L38 32L38 31L40 31L40 30L41 30L41 29L43 29L43 27L42 27L42 28L39 28L39 29L40 29L40 30L38 30L38 29L37 29L37 28L38 28L38 27L40 27L40 26L42 26L42 25L44 25L44 24L43 24L43 23L41 23L41 25L40 25L40 26L39 26L39 25L38 25L38 26L37 26L37 25L36 25L36 24L34 24L34 23L36 23L36 22L35 22L35 21L36 21L36 19L37 19L37 20L39 20L39 19L37 19L37 18L36 18L36 19L35 19L35 17L37 17L37 16L38 16L38 15L37 15L37 14L38 14L38 13L39 13L39 12L35 12L35 13L34 13L34 12L33 12L33 17L32 17L32 16L31 16L31 15L30 15L30 16L29 16L29 15L28 15L28 14L30 14L30 13L31 13L31 11L33 11L33 9L32 9L32 8L31 8L31 11L30 11L30 12L29 12L29 11L28 11L28 10L27 10L27 11L26 11L26 9L27 9L27 7L28 7L28 6L27 6L27 5L26 5L26 6L25 6L25 8L26 8L26 9L21 9L21 11L20 11L20 10L19 10L19 9L18 9L18 8L20 8L20 6L19 6L19 3L20 3L20 1ZM10 5L10 6L11 6L11 7L12 7L12 6L11 6L11 5ZM21 5L21 8L24 8L24 5ZM15 6L15 7L16 7L16 6ZM18 6L18 7L19 7L19 6ZM22 6L22 7L23 7L23 6ZM26 6L26 7L27 7L27 6ZM31 6L31 7L32 7L32 6ZM36 6L36 8L37 8L37 6ZM39 9L39 10L40 10L40 9ZM16 10L16 11L15 11L15 12L14 12L14 11L12 11L12 12L13 12L13 13L17 13L17 10ZM22 10L22 12L21 12L21 13L19 13L19 12L18 12L18 13L19 13L19 15L22 15L22 16L21 16L21 17L20 17L20 16L18 16L18 14L14 14L14 16L13 16L13 18L14 18L14 17L15 17L15 20L14 20L14 19L12 19L12 20L13 20L13 21L17 21L17 22L15 22L15 23L16 23L16 25L19 25L19 24L17 24L17 22L18 22L18 23L19 23L19 22L20 22L20 26L21 26L21 27L22 27L22 28L20 28L20 27L19 27L19 28L18 28L18 26L14 26L14 28L13 28L13 29L15 29L15 30L16 30L16 33L19 33L19 32L20 32L20 34L21 34L21 32L20 32L20 31L19 31L19 30L18 30L18 29L20 29L20 30L21 30L21 31L22 31L22 32L23 32L23 31L25 31L25 32L26 32L26 31L25 31L25 30L24 30L24 29L26 29L26 30L27 30L27 29L28 29L28 28L27 28L27 29L26 29L26 28L24 28L24 27L29 27L29 28L30 28L30 27L31 27L31 29L29 29L29 30L28 30L28 31L27 31L27 32L28 32L28 31L29 31L29 30L31 30L31 29L32 29L32 30L34 30L34 32L32 32L32 33L34 33L34 32L35 32L35 31L36 31L36 32L37 32L37 29L35 29L35 27L36 27L36 28L37 28L37 27L36 27L36 26L35 26L35 27L34 27L34 25L33 25L33 23L34 23L34 22L33 22L33 20L34 20L34 21L35 21L35 20L34 20L34 19L33 19L33 18L34 18L34 17L35 17L35 16L36 16L36 15L35 15L35 16L34 16L34 17L33 17L33 18L31 18L31 16L30 16L30 17L29 17L29 18L31 18L31 19L30 19L30 22L28 22L28 20L27 20L27 19L28 19L28 18L27 18L27 17L28 17L28 15L27 15L27 13L28 13L28 11L27 11L27 13L26 13L26 12L25 12L25 11L24 11L24 10ZM23 11L23 12L24 12L24 13L23 13L23 15L25 15L25 17L24 17L24 16L22 16L22 18L23 18L23 19L25 19L25 20L26 20L26 21L27 21L27 20L26 20L26 19L25 19L25 18L26 18L26 15L25 15L25 14L24 14L24 13L25 13L25 12L24 12L24 11ZM41 12L41 14L43 14L43 12ZM5 13L5 14L6 14L6 15L7 15L7 16L6 16L6 17L7 17L7 16L8 16L8 15L10 15L10 13L9 13L9 14L8 14L8 15L7 15L7 14L6 14L6 13ZM21 13L21 14L22 14L22 13ZM35 13L35 14L37 14L37 13ZM16 16L16 18L17 18L17 19L16 19L16 20L17 20L17 21L18 21L18 22L19 22L19 21L18 21L18 20L22 20L22 19L18 19L18 17L17 17L17 16ZM8 19L8 20L9 20L9 19ZM31 19L31 20L32 20L32 19ZM40 19L40 20L41 20L41 19ZM5 21L5 24L8 24L8 21ZM21 21L21 24L24 24L24 21ZM37 21L37 24L40 24L40 21ZM6 22L6 23L7 23L7 22ZM22 22L22 23L23 23L23 22ZM25 22L25 25L23 25L23 26L26 26L26 24L27 24L27 23L28 23L28 22L27 22L27 23L26 23L26 22ZM32 22L32 23L30 23L30 25L32 25L32 26L31 26L31 27L32 27L32 26L33 26L33 25L32 25L32 23L33 23L33 22ZM38 22L38 23L39 23L39 22ZM28 24L28 25L27 25L27 26L29 26L29 24ZM21 25L21 26L22 26L22 25ZM1 26L1 27L2 27L2 29L3 29L3 30L1 30L1 31L2 31L2 32L3 32L3 30L4 30L4 31L6 31L6 30L5 30L5 29L3 29L3 27L2 27L2 26ZM5 26L5 27L7 27L7 26ZM16 28L16 30L17 30L17 29L18 29L18 28ZM22 28L22 29L24 29L24 28ZM33 28L33 29L34 29L34 30L35 30L35 29L34 29L34 28ZM14 31L14 32L12 32L12 34L14 34L14 33L15 33L15 31ZM17 31L17 32L19 32L19 31ZM43 31L43 32L44 32L44 33L45 33L45 31ZM39 32L39 33L40 33L40 35L39 35L39 34L38 34L38 36L40 36L40 35L41 35L41 33L40 33L40 32ZM35 33L35 34L36 34L36 33ZM4 34L4 35L1 35L1 36L0 36L0 37L1 37L1 36L3 36L3 37L5 37L5 34ZM6 34L6 35L7 35L7 34ZM17 34L17 36L14 36L14 35L12 35L12 36L11 36L11 37L12 37L12 36L13 36L13 37L17 37L17 36L18 36L18 37L19 37L19 36L20 36L20 35L18 35L18 34ZM43 34L43 37L42 37L42 38L43 38L43 37L44 37L44 34ZM33 36L33 38L31 38L31 40L32 40L32 39L33 39L33 38L34 38L34 39L36 39L36 36L35 36L35 37L34 37L34 36ZM21 37L21 40L24 40L24 37ZM37 37L37 40L40 40L40 37ZM22 38L22 39L23 39L23 38ZM38 38L38 39L39 39L39 38ZM10 39L10 40L12 40L12 41L13 41L13 40L12 40L12 39ZM19 39L19 40L20 40L20 39ZM43 40L43 41L42 41L42 42L40 42L40 43L39 43L39 44L41 44L41 45L43 45L43 44L41 44L41 43L43 43L43 41L44 41L44 43L45 43L45 41L44 41L44 40ZM10 41L10 42L11 42L11 41ZM20 42L20 43L21 43L21 42ZM29 42L29 43L30 43L30 42ZM8 43L8 45L9 45L9 43ZM34 43L34 44L35 44L35 45L38 45L38 44L36 44L36 43ZM44 44L44 45L45 45L45 44ZM0 0L0 7L7 7L7 0ZM1 1L1 6L6 6L6 1ZM2 2L2 5L5 5L5 2ZM38 0L38 7L45 7L45 0ZM39 1L39 6L44 6L44 1ZM40 2L40 5L43 5L43 2ZM0 38L0 45L7 45L7 38ZM1 39L1 44L6 44L6 39ZM2 40L2 43L5 43L5 40Z" fill="#000000"/></g></g></svg>
