<?xml version="1.0" encoding="UTF-8"?>
<svg xmlns="http://www.w3.org/2000/svg" version="1.1" width="200" height="200" viewBox="0 0 200 200"><rect x="0" y="0" width="200" height="200" fill="#ffffff"/><g transform="scale(4.878)"><g transform="translate(0,0)"><path fill-rule="evenodd" d="M11 0L11 1L8 1L8 2L10 2L10 3L8 3L8 4L9 4L9 5L8 5L8 7L9 7L9 5L10 5L10 7L11 7L11 9L10 9L10 8L6 8L6 9L5 9L5 8L0 8L0 13L1 13L1 14L0 14L0 15L1 15L1 14L2 14L2 12L1 12L1 11L2 11L2 10L1 10L1 9L3 9L3 14L5 14L5 15L3 15L3 16L5 16L5 15L8 15L8 16L6 16L6 17L2 17L2 16L1 16L1 17L0 17L0 21L2 21L2 24L0 24L0 25L2 25L2 27L3 27L3 30L4 30L4 31L5 31L5 32L6 32L6 33L8 33L8 35L9 35L9 36L8 36L8 41L9 41L9 40L10 40L10 41L12 41L12 39L14 39L14 38L17 38L17 37L16 37L16 34L15 34L15 35L14 35L14 36L15 36L15 37L13 37L13 36L12 36L12 35L13 35L13 34L12 34L12 33L13 33L13 31L12 31L12 33L11 33L11 34L10 34L10 33L9 33L9 30L10 30L10 29L11 29L11 28L10 28L10 27L11 27L11 26L12 26L12 25L13 25L13 27L12 27L12 28L14 28L14 29L15 29L15 33L17 33L17 35L18 35L18 38L20 38L20 39L21 39L21 40L17 40L17 39L16 39L16 40L17 40L17 41L21 41L21 40L22 40L22 37L23 37L23 38L24 38L24 39L23 39L23 41L24 41L24 39L25 39L25 38L26 38L26 37L27 37L27 35L28 35L28 36L29 36L29 37L28 37L28 38L27 38L27 39L26 39L26 40L25 40L25 41L28 41L28 40L29 40L29 41L30 41L30 40L31 40L31 38L33 38L33 39L32 39L32 40L34 40L34 41L35 41L35 40L37 40L37 41L39 41L39 40L40 40L40 39L39 39L39 40L37 40L37 38L39 38L39 37L37 37L37 36L38 36L38 35L37 35L37 32L38 32L38 33L40 33L40 34L41 34L41 32L40 32L40 31L39 31L39 32L38 32L38 30L37 30L37 29L36 29L36 30L37 30L37 32L35 32L35 29L34 29L34 27L35 27L35 28L37 28L37 27L38 27L38 26L37 26L37 25L36 25L36 24L38 24L38 25L39 25L39 28L38 28L38 29L40 29L40 28L41 28L41 27L40 27L40 26L41 26L41 25L39 25L39 24L41 24L41 23L39 23L39 24L38 24L38 23L37 23L37 22L38 22L38 21L39 21L39 22L41 22L41 21L40 21L40 19L39 19L39 20L38 20L38 19L37 19L37 20L35 20L35 21L34 21L34 18L35 18L35 17L34 17L34 16L35 16L35 15L34 15L34 14L35 14L35 13L34 13L34 11L33 11L33 9L34 9L34 10L35 10L35 9L36 9L36 12L38 12L38 13L36 13L36 14L37 14L37 15L36 15L36 16L37 16L37 17L36 17L36 18L38 18L38 17L39 17L39 16L38 16L38 15L39 15L39 14L41 14L41 13L39 13L39 12L40 12L40 11L39 11L39 10L41 10L41 9L40 9L40 8L39 8L39 9L38 9L38 8L37 8L37 9L36 9L36 8L35 8L35 9L34 9L34 8L33 8L33 9L32 9L32 7L33 7L33 6L32 6L32 7L31 7L31 6L30 6L30 8L29 8L29 9L30 9L30 10L27 10L27 12L25 12L25 11L26 11L26 10L24 10L24 11L23 11L23 6L22 6L22 5L23 5L23 2L22 2L22 0L21 0L21 1L20 1L20 0L19 0L19 1L18 1L18 0L17 0L17 2L16 2L16 1L15 1L15 0L14 0L14 1L15 1L15 2L14 2L14 3L15 3L15 4L14 4L14 5L17 5L17 4L18 4L18 8L17 8L17 6L16 6L16 9L19 9L19 10L18 10L18 12L16 12L16 13L15 13L15 12L14 12L14 11L16 11L16 10L15 10L15 9L14 9L14 8L13 8L13 4L12 4L12 3L13 3L13 2L11 2L11 1L12 1L12 0ZM23 0L23 1L24 1L24 2L26 2L26 0L25 0L25 1L24 1L24 0ZM27 0L27 3L26 3L26 4L25 4L25 5L24 5L24 9L28 9L28 7L29 7L29 6L28 6L28 1L29 1L29 0ZM31 0L31 1L30 1L30 3L29 3L29 4L30 4L30 3L31 3L31 4L32 4L32 5L33 5L33 2L31 2L31 1L33 1L33 0ZM19 1L19 3L20 3L20 1ZM17 2L17 3L16 3L16 4L17 4L17 3L18 3L18 2ZM10 3L10 4L11 4L11 3ZM21 3L21 4L20 4L20 5L19 5L19 9L20 9L20 10L19 10L19 13L16 13L16 14L17 14L17 15L16 15L16 16L19 16L19 17L20 17L20 18L19 18L19 19L18 19L18 17L15 17L15 13L14 13L14 12L12 12L12 11L11 11L11 12L10 12L10 11L9 11L9 9L8 9L8 10L7 10L7 9L6 9L6 10L7 10L7 11L6 11L6 12L5 12L5 11L4 11L4 12L5 12L5 14L7 14L7 13L6 13L6 12L9 12L9 15L10 15L10 16L11 16L11 17L12 17L12 18L11 18L11 20L13 20L13 21L10 21L10 20L9 20L9 19L10 19L10 17L9 17L9 16L8 16L8 17L6 17L6 18L8 18L8 17L9 17L9 19L8 19L8 20L9 20L9 21L8 21L8 22L7 22L7 21L6 21L6 22L5 22L5 21L3 21L3 20L7 20L7 19L4 19L4 18L3 18L3 19L2 19L2 17L1 17L1 20L2 20L2 21L3 21L3 22L4 22L4 24L5 24L5 25L3 25L3 27L4 27L4 28L5 28L5 30L7 30L7 31L6 31L6 32L7 32L7 31L8 31L8 30L9 30L9 29L10 29L10 28L8 28L8 30L7 30L7 29L6 29L6 28L7 28L7 27L4 27L4 26L7 26L7 25L8 25L8 26L9 26L9 27L10 27L10 26L9 26L9 25L8 25L8 24L9 24L9 23L11 23L11 22L13 22L13 23L12 23L12 24L14 24L14 25L15 25L15 26L16 26L16 28L17 28L17 29L16 29L16 30L18 30L18 27L17 27L17 26L19 26L19 29L21 29L21 30L19 30L19 33L18 33L18 34L19 34L19 35L20 35L20 36L19 36L19 37L22 37L22 36L23 36L23 37L24 37L24 38L25 38L25 37L24 37L24 35L25 35L25 36L26 36L26 35L27 35L27 34L28 34L28 31L27 31L27 30L28 30L28 29L25 29L25 30L22 30L22 28L23 28L23 29L24 29L24 28L30 28L30 29L29 29L29 36L30 36L30 38L31 38L31 37L32 37L32 36L31 36L31 34L32 34L32 33L31 33L31 32L32 32L32 31L33 31L33 30L34 30L34 29L32 29L32 30L31 30L31 28L32 28L32 27L33 27L33 26L30 26L30 25L29 25L29 27L25 27L25 25L24 25L24 22L23 22L23 21L24 21L24 20L26 20L26 19L27 19L27 18L28 18L28 17L29 17L29 16L32 16L32 17L33 17L33 18L34 18L34 17L33 17L33 12L32 12L32 10L31 10L31 12L30 12L30 11L29 11L29 12L28 12L28 13L25 13L25 14L23 14L23 13L22 13L22 12L20 12L20 10L21 10L21 9L22 9L22 8L20 8L20 5L21 5L21 4L22 4L22 3ZM26 4L26 5L25 5L25 8L27 8L27 7L28 7L28 6L27 6L27 4ZM11 5L11 7L12 7L12 5ZM14 6L14 7L15 7L15 6ZM21 6L21 7L22 7L22 6ZM26 6L26 7L27 7L27 6ZM30 8L30 9L31 9L31 8ZM4 9L4 10L5 10L5 9ZM11 9L11 10L13 10L13 9ZM37 10L37 11L38 11L38 12L39 12L39 11L38 11L38 10ZM29 12L29 13L30 13L30 14L31 14L31 13L30 13L30 12ZM10 13L10 15L11 15L11 13ZM12 13L12 14L13 14L13 15L12 15L12 17L14 17L14 18L15 18L15 19L14 19L14 20L16 20L16 18L15 18L15 17L14 17L14 16L13 16L13 15L14 15L14 13ZM19 13L19 14L18 14L18 15L19 15L19 14L21 14L21 15L20 15L20 17L21 17L21 20L22 20L22 21L19 21L19 20L20 20L20 19L19 19L19 20L17 20L17 21L14 21L14 22L18 22L18 21L19 21L19 22L20 22L20 23L21 23L21 24L20 24L20 25L19 25L19 24L17 24L17 23L16 23L16 25L19 25L19 26L20 26L20 25L21 25L21 24L23 24L23 23L22 23L22 21L23 21L23 19L22 19L22 17L24 17L24 18L25 18L25 17L27 17L27 15L28 15L28 14L26 14L26 16L22 16L22 15L23 15L23 14L22 14L22 13ZM21 16L21 17L22 17L22 16ZM30 17L30 19L29 19L29 20L30 20L30 21L31 21L31 20L33 20L33 19L32 19L32 18L31 18L31 17ZM12 18L12 19L13 19L13 18ZM37 20L37 21L38 21L38 20ZM26 21L26 22L29 22L29 21ZM32 21L32 22L31 22L31 24L32 24L32 25L33 25L33 24L34 24L34 26L35 26L35 27L36 27L36 25L35 25L35 24L36 24L36 22L34 22L34 21ZM0 22L0 23L1 23L1 22ZM6 22L6 23L7 23L7 24L6 24L6 25L7 25L7 24L8 24L8 23L9 23L9 22L8 22L8 23L7 23L7 22ZM33 22L33 23L34 23L34 24L35 24L35 23L34 23L34 22ZM14 23L14 24L15 24L15 23ZM25 23L25 24L30 24L30 23ZM10 24L10 25L11 25L11 24ZM22 25L22 27L21 27L21 28L22 28L22 27L23 27L23 26L24 26L24 25ZM27 25L27 26L28 26L28 25ZM14 27L14 28L15 28L15 27ZM30 27L30 28L31 28L31 27ZM0 28L0 33L1 33L1 30L2 30L2 29L1 29L1 28ZM12 29L12 30L13 30L13 29ZM25 30L25 31L24 31L24 32L25 32L25 33L27 33L27 32L25 32L25 31L26 31L26 30ZM30 30L30 32L31 32L31 30ZM10 31L10 32L11 32L11 31ZM16 31L16 32L18 32L18 31ZM20 31L20 33L19 33L19 34L20 34L20 33L21 33L21 36L22 36L22 35L23 35L23 34L24 34L24 33L23 33L23 34L22 34L22 33L21 33L21 32L22 32L22 31ZM2 32L2 33L3 33L3 32ZM30 33L30 34L31 34L31 33ZM33 33L33 36L36 36L36 33ZM9 34L9 35L10 35L10 34ZM11 34L11 35L12 35L12 34ZM34 34L34 35L35 35L35 34ZM40 35L40 38L41 38L41 35ZM11 36L11 37L9 37L9 39L10 39L10 40L11 40L11 39L10 39L10 38L13 38L13 37L12 37L12 36ZM33 37L33 38L34 38L34 40L35 40L35 38L36 38L36 37ZM28 38L28 39L29 39L29 40L30 40L30 39L29 39L29 38ZM14 40L14 41L15 41L15 40ZM0 0L0 7L7 7L7 0ZM1 1L1 6L6 6L6 1ZM2 2L2 5L5 5L5 2ZM34 0L34 7L41 7L41 0ZM35 1L35 6L40 6L40 1ZM36 2L36 5L39 5L39 2ZM0 34L0 41L7 41L7 34ZM1 35L1 40L6 40L6 35ZM2 36L2 39L5 39L5 36Z" fill="#000000"/></g></g></svg>
