<?xml version="1.0" encoding="UTF-8"?>
<svg xmlns="http://www.w3.org/2000/svg" version="1.1" width="200" height="200" viewBox="0 0 200 200"><rect x="0" y="0" width="200" height="200" fill="#ffffff"/><g transform="scale(4.082)"><g transform="translate(0,0)"><path fill-rule="evenodd" d="M8 0L8 1L10 1L10 2L8 2L8 5L9 5L9 3L11 3L11 1L10 1L10 0ZM14 0L14 1L12 1L12 3L13 3L13 4L14 4L14 7L13 7L13 5L12 5L12 4L11 4L11 5L10 5L10 7L11 7L11 8L12 8L12 7L13 7L13 8L14 8L14 7L15 7L15 6L16 6L16 7L17 7L17 8L19 8L19 9L22 9L22 10L23 10L23 11L19 11L19 12L18 12L18 10L17 10L17 11L16 11L16 12L15 12L15 13L13 13L13 12L12 12L12 13L11 13L11 15L10 15L10 16L11 16L11 15L12 15L12 16L13 16L13 17L14 17L14 18L13 18L13 19L16 19L16 20L14 20L14 21L15 21L15 22L13 22L13 21L12 21L12 20L10 20L10 19L11 19L11 18L12 18L12 17L11 17L11 18L10 18L10 19L9 19L9 18L6 18L6 17L8 17L8 15L7 15L7 14L9 14L9 13L10 13L10 11L12 11L12 10L13 10L13 9L12 9L12 10L11 10L11 9L10 9L10 10L9 10L9 12L8 12L8 10L5 10L5 9L4 9L4 8L0 8L0 12L1 12L1 13L2 13L2 17L1 17L1 14L0 14L0 19L1 19L1 18L5 18L5 19L9 19L9 20L5 20L5 21L7 21L7 22L4 22L4 21L3 21L3 20L4 20L4 19L3 19L3 20L1 20L1 21L2 21L2 22L4 22L4 24L2 24L2 25L1 25L1 27L0 27L0 28L1 28L1 29L0 29L0 30L1 30L1 31L0 31L0 32L1 32L1 33L3 33L3 31L4 31L4 29L7 29L7 28L8 28L8 29L9 29L9 30L5 30L5 32L4 32L4 34L3 34L3 35L4 35L4 36L5 36L5 37L2 37L2 34L1 34L1 35L0 35L0 36L1 36L1 37L0 37L0 38L1 38L1 40L0 40L0 41L3 41L3 40L4 40L4 39L2 39L2 38L5 38L5 39L7 39L7 40L6 40L6 41L7 41L7 40L8 40L8 42L10 42L10 43L9 43L9 44L13 44L13 46L12 46L12 45L11 45L11 47L10 47L10 45L8 45L8 49L9 49L9 48L11 48L11 49L12 49L12 48L13 48L13 46L14 46L14 48L15 48L15 49L17 49L17 48L18 48L18 49L19 49L19 48L18 48L18 47L17 47L17 46L21 46L21 47L20 47L20 49L21 49L21 47L22 47L22 48L23 48L23 49L25 49L25 48L24 48L24 45L25 45L25 46L26 46L26 47L31 47L31 48L29 48L29 49L32 49L32 48L33 48L33 49L34 49L34 48L35 48L35 49L36 49L36 48L37 48L37 49L38 49L38 47L36 47L36 48L35 48L35 46L38 46L38 45L35 45L35 44L40 44L40 45L39 45L39 47L40 47L40 48L42 48L42 47L40 47L40 46L41 46L41 45L44 45L44 47L43 47L43 48L44 48L44 49L49 49L49 48L47 48L47 47L49 47L49 46L47 46L47 45L46 45L46 44L45 44L45 43L46 43L46 42L47 42L47 40L46 40L46 39L48 39L48 40L49 40L49 39L48 39L48 38L46 38L46 39L45 39L45 40L41 40L41 39L42 39L42 38L40 38L40 41L39 41L39 37L41 37L41 36L40 36L40 34L41 34L41 33L42 33L42 34L43 34L43 31L44 31L44 33L45 33L45 34L44 34L44 35L42 35L42 36L43 36L43 39L44 39L44 38L45 38L45 37L46 37L46 36L47 36L47 35L46 35L46 34L47 34L47 33L48 33L48 34L49 34L49 33L48 33L48 32L49 32L49 29L48 29L48 28L47 28L47 29L46 29L46 30L47 30L47 33L45 33L45 31L44 31L44 30L37 30L37 31L35 31L35 32L34 32L34 30L35 30L35 29L34 29L34 28L33 28L33 27L34 27L34 25L35 25L35 26L36 26L36 25L37 25L37 24L38 24L38 23L36 23L36 25L35 25L35 24L34 24L34 23L35 23L35 22L38 22L38 21L39 21L39 20L40 20L40 19L39 19L39 18L38 18L38 17L40 17L40 18L41 18L41 22L40 22L40 28L41 28L41 27L45 27L45 25L47 25L47 26L46 26L46 27L48 27L48 26L49 26L49 24L48 24L48 23L47 23L47 21L46 21L46 23L45 23L45 22L44 22L44 18L43 18L43 20L42 20L42 17L45 17L45 15L48 15L48 14L49 14L49 13L48 13L48 12L49 12L49 11L48 11L48 12L47 12L47 11L45 11L45 10L44 10L44 9L47 9L47 8L44 8L44 9L42 9L42 8L41 8L41 6L40 6L40 8L41 8L41 10L40 10L40 9L39 9L39 10L40 10L40 11L42 11L42 12L44 12L44 11L45 11L45 13L47 13L47 14L45 14L45 15L44 15L44 16L42 16L42 15L41 15L41 14L39 14L39 13L37 13L37 12L38 12L38 10L37 10L37 9L38 9L38 8L39 8L39 5L38 5L38 4L37 4L37 3L38 3L38 2L39 2L39 4L40 4L40 3L41 3L41 0L40 0L40 1L38 1L38 0L35 0L35 1L33 1L33 2L32 2L32 3L33 3L33 2L36 2L36 3L35 3L35 5L37 5L37 6L36 6L36 7L37 7L37 6L38 6L38 8L37 8L37 9L36 9L36 8L34 8L34 7L35 7L35 6L34 6L34 4L33 4L33 6L32 6L32 5L30 5L30 4L31 4L31 3L30 3L30 4L29 4L29 6L28 6L28 8L27 8L27 4L28 4L28 2L24 2L24 1L26 1L26 0L23 0L23 1L22 1L22 3L21 3L21 4L20 4L20 2L21 2L21 1L20 1L20 0L17 0L17 1L16 1L16 3L17 3L17 5L15 5L15 2L14 2L14 1L15 1L15 0ZM30 0L30 1L29 1L29 2L30 2L30 1L32 1L32 0ZM17 1L17 3L18 3L18 5L17 5L17 7L18 7L18 6L19 6L19 8L20 8L20 6L21 6L21 7L22 7L22 4L24 4L24 2L23 2L23 3L22 3L22 4L21 4L21 5L20 5L20 4L19 4L19 3L18 3L18 1ZM19 1L19 2L20 2L20 1ZM36 1L36 2L38 2L38 1ZM25 3L25 4L26 4L26 3ZM23 5L23 8L26 8L26 5ZM8 6L8 7L9 7L9 6ZM11 6L11 7L12 7L12 6ZM24 6L24 7L25 7L25 6ZM29 6L29 7L30 7L30 6ZM31 6L31 7L32 7L32 9L31 9L31 10L30 10L30 11L29 11L29 9L30 9L30 8L29 8L29 9L23 9L23 10L26 10L26 11L25 11L25 13L26 13L26 11L27 11L27 10L28 10L28 13L27 13L27 15L26 15L26 14L24 14L24 18L25 18L25 15L26 15L26 16L28 16L28 17L30 17L30 18L28 18L28 19L29 19L29 20L30 20L30 21L28 21L28 20L26 20L26 22L27 22L27 23L29 23L29 24L27 24L27 27L28 27L28 26L29 26L29 27L30 27L30 28L27 28L27 30L26 30L26 29L24 29L24 30L22 30L22 29L23 29L23 28L26 28L26 27L22 27L22 25L21 25L21 26L18 26L18 24L19 24L19 25L20 25L20 24L22 24L22 23L20 23L20 24L19 24L19 22L21 22L21 19L22 19L22 21L23 21L23 22L25 22L25 19L22 19L22 18L23 18L23 15L22 15L22 16L20 16L20 18L18 18L18 17L19 17L19 16L18 16L18 15L19 15L19 13L20 13L20 14L23 14L23 13L21 13L21 12L19 12L19 13L18 13L18 12L16 12L16 13L17 13L17 14L13 14L13 13L12 13L12 15L13 15L13 16L16 16L16 17L17 17L17 18L18 18L18 19L20 19L20 20L19 20L19 22L18 22L18 21L16 21L16 23L9 23L9 25L10 25L10 26L11 26L11 27L10 27L10 28L11 28L11 27L12 27L12 28L13 28L13 29L12 29L12 30L11 30L11 32L12 32L12 33L13 33L13 34L9 34L9 35L11 35L11 36L13 36L13 34L14 34L14 35L15 35L15 34L14 34L14 33L15 33L15 32L14 32L14 31L15 31L15 29L16 29L16 30L17 30L17 27L19 27L19 28L18 28L18 30L19 30L19 31L17 31L17 32L16 32L16 34L17 34L17 36L15 36L15 38L17 38L17 39L16 39L16 40L18 40L18 41L19 41L19 42L21 42L21 43L20 43L20 45L21 45L21 46L22 46L22 47L23 47L23 45L22 45L22 40L21 40L21 39L23 39L23 40L24 40L24 39L25 39L25 38L26 38L26 39L28 39L28 37L30 37L30 38L31 38L31 40L32 40L32 39L34 39L34 38L35 38L35 40L34 40L34 41L37 41L37 43L38 43L38 42L39 42L39 41L37 41L37 39L38 39L38 38L37 38L37 37L36 37L36 38L35 38L35 37L34 37L34 38L32 38L32 37L33 37L33 36L37 36L37 35L38 35L38 36L39 36L39 35L38 35L38 34L40 34L40 32L39 32L39 31L37 31L37 32L35 32L35 33L34 33L34 32L33 32L33 30L34 30L34 29L32 29L32 28L31 28L31 27L33 27L33 26L31 26L31 25L33 25L33 24L32 24L32 23L34 23L34 22L35 22L35 21L33 21L33 19L32 19L32 18L31 18L31 17L32 17L32 15L33 15L33 14L32 14L32 13L34 13L34 17L35 17L35 16L36 16L36 19L37 19L37 20L36 20L36 21L37 21L37 20L39 20L39 19L37 19L37 17L38 17L38 15L39 15L39 16L41 16L41 15L39 15L39 14L38 14L38 15L35 15L35 12L34 12L34 10L36 10L36 11L37 11L37 10L36 10L36 9L33 9L33 7L34 7L34 6L33 6L33 7L32 7L32 6ZM6 8L6 9L7 9L7 8ZM8 8L8 9L9 9L9 8ZM15 8L15 9L14 9L14 11L15 11L15 9L16 9L16 8ZM48 8L48 9L49 9L49 8ZM1 9L1 12L2 12L2 13L3 13L3 14L5 14L5 11L3 11L3 10L4 10L4 9L3 9L3 10L2 10L2 9ZM32 10L32 12L33 12L33 10ZM43 10L43 11L44 11L44 10ZM2 11L2 12L3 12L3 11ZM6 11L6 12L7 12L7 13L6 13L6 14L7 14L7 13L8 13L8 12L7 12L7 11ZM23 11L23 12L24 12L24 11ZM40 12L40 13L41 13L41 12ZM29 13L29 14L28 14L28 16L30 16L30 15L32 15L32 14L30 14L30 13ZM17 14L17 15L16 15L16 16L17 16L17 17L18 17L18 16L17 16L17 15L18 15L18 14ZM5 15L5 16L3 16L3 17L6 17L6 16L7 16L7 15ZM46 16L46 18L47 18L47 19L49 19L49 16L48 16L48 18L47 18L47 16ZM21 17L21 18L22 18L22 17ZM26 17L26 18L27 18L27 17ZM34 19L34 20L35 20L35 19ZM9 20L9 21L8 21L8 22L9 22L9 21L10 21L10 22L11 22L11 21L10 21L10 20ZM23 20L23 21L24 21L24 20ZM31 20L31 21L30 21L30 22L29 22L29 23L31 23L31 21L32 21L32 22L33 22L33 21L32 21L32 20ZM27 21L27 22L28 22L28 21ZM0 22L0 24L1 24L1 22ZM17 22L17 23L16 23L16 24L15 24L15 25L16 25L16 24L17 24L17 23L18 23L18 22ZM5 23L5 26L8 26L8 23ZM23 23L23 26L26 26L26 23ZM41 23L41 26L44 26L44 23ZM6 24L6 25L7 25L7 24ZM10 24L10 25L11 25L11 26L12 26L12 27L13 27L13 28L14 28L14 29L15 29L15 28L16 28L16 27L17 27L17 26L16 26L16 27L15 27L15 28L14 28L14 24L12 24L12 25L11 25L11 24ZM24 24L24 25L25 25L25 24ZM29 24L29 25L31 25L31 24ZM42 24L42 25L43 25L43 24ZM12 25L12 26L13 26L13 25ZM38 25L38 26L37 26L37 29L38 29L38 28L39 28L39 27L38 27L38 26L39 26L39 25ZM30 26L30 27L31 27L31 26ZM1 27L1 28L2 28L2 27ZM3 27L3 29L4 29L4 28L7 28L7 27ZM8 27L8 28L9 28L9 27ZM21 27L21 28L20 28L20 31L19 31L19 34L18 34L18 33L17 33L17 34L18 34L18 36L17 36L17 38L18 38L18 40L19 40L19 41L20 41L20 40L19 40L19 38L18 38L18 36L19 36L19 37L20 37L20 38L21 38L21 37L22 37L22 36L24 36L24 35L25 35L25 36L26 36L26 37L28 37L28 35L31 35L31 36L30 36L30 37L32 37L32 36L33 36L33 34L31 34L31 31L30 31L30 30L29 30L29 29L28 29L28 30L29 30L29 31L28 31L28 33L29 33L29 34L26 34L26 33L27 33L27 32L26 32L26 31L25 31L25 30L24 30L24 31L25 31L25 33L24 33L24 35L23 35L23 34L22 34L22 36L21 36L21 37L20 37L20 36L19 36L19 34L20 34L20 35L21 35L21 34L20 34L20 33L22 33L22 31L21 31L21 29L22 29L22 27ZM43 28L43 29L44 29L44 28ZM1 29L1 30L2 30L2 31L1 31L1 32L2 32L2 31L3 31L3 30L2 30L2 29ZM47 29L47 30L48 30L48 29ZM13 30L13 31L14 31L14 30ZM6 31L6 32L5 32L5 34L4 34L4 35L6 35L6 36L7 36L7 37L6 37L6 38L7 38L7 39L8 39L8 36L7 36L7 35L6 35L6 34L7 34L7 33L8 33L8 31ZM9 31L9 32L10 32L10 31ZM20 31L20 32L21 32L21 31ZM29 31L29 33L30 33L30 31ZM6 32L6 33L7 33L7 32ZM37 32L37 33L35 33L35 34L34 34L34 35L36 35L36 34L38 34L38 33L39 33L39 32ZM44 35L44 37L45 37L45 35ZM48 35L48 36L49 36L49 35ZM9 37L9 39L10 39L10 38L11 38L11 37ZM12 37L12 39L11 39L11 40L9 40L9 41L11 41L11 43L15 43L15 42L16 42L16 43L17 43L17 45L19 45L19 43L18 43L18 42L16 42L16 41L15 41L15 42L14 42L14 41L11 41L11 40L12 40L12 39L14 39L14 37ZM23 38L23 39L24 39L24 38ZM27 40L27 42L28 42L28 43L30 43L30 45L28 45L28 44L27 44L27 45L26 45L26 46L30 46L30 45L32 45L32 46L31 46L31 47L32 47L32 46L33 46L33 47L34 47L34 46L35 46L35 45L34 45L34 44L35 44L35 43L34 43L34 44L33 44L33 41L30 41L30 40ZM45 40L45 41L46 41L46 40ZM23 41L23 44L26 44L26 41ZM28 41L28 42L30 42L30 41ZM41 41L41 44L44 44L44 41ZM24 42L24 43L25 43L25 42ZM42 42L42 43L43 43L43 42ZM48 42L48 43L47 43L47 44L48 44L48 43L49 43L49 42ZM31 43L31 44L32 44L32 43ZM14 44L14 46L15 46L15 47L16 47L16 48L17 48L17 47L16 47L16 44ZM45 45L45 46L46 46L46 47L45 47L45 48L46 48L46 47L47 47L47 46L46 46L46 45ZM26 48L26 49L28 49L28 48ZM0 0L0 7L7 7L7 0ZM1 1L1 6L6 6L6 1ZM2 2L2 5L5 5L5 2ZM42 0L42 7L49 7L49 0ZM43 1L43 6L48 6L48 1ZM44 2L44 5L47 5L47 2ZM0 42L0 49L7 49L7 42ZM1 43L1 48L6 48L6 43ZM2 44L2 47L5 47L5 44Z" fill="#000000"/></g></g></svg>
