<?xml version="1.0" encoding="UTF-8"?>
<svg xmlns="http://www.w3.org/2000/svg" version="1.1" width="200" height="200" viewBox="0 0 200 200"><rect x="0" y="0" width="200" height="200" fill="#ffffff"/><g transform="scale(4.878)"><g transform="translate(0,0)"><path fill-rule="evenodd" d="M9 0L9 1L8 1L8 2L9 2L9 3L8 3L8 4L10 4L10 3L12 3L12 4L14 4L14 5L13 5L13 6L12 6L12 5L11 5L11 6L10 6L10 7L9 7L9 5L8 5L8 7L9 7L9 8L6 8L6 9L5 9L5 8L0 8L0 11L3 11L3 12L6 12L6 13L5 13L5 15L4 15L4 14L3 14L3 17L2 17L2 19L1 19L1 18L0 18L0 19L1 19L1 21L0 21L0 22L2 22L2 23L3 23L3 22L4 22L4 24L3 24L3 25L0 25L0 26L2 26L2 27L3 27L3 28L1 28L1 27L0 27L0 28L1 28L1 29L0 29L0 33L1 33L1 30L2 30L2 29L3 29L3 31L2 31L2 32L4 32L4 31L5 31L5 30L6 30L6 31L8 31L8 35L9 35L9 36L8 36L8 41L9 41L9 40L10 40L10 39L11 39L11 40L13 40L13 41L14 41L14 40L13 40L13 39L14 39L14 38L12 38L12 36L13 36L13 37L14 37L14 36L15 36L15 37L16 37L16 36L17 36L17 37L18 37L18 36L17 36L17 35L18 35L18 33L19 33L19 34L21 34L21 35L20 35L20 36L22 36L22 37L19 37L19 38L17 38L17 39L18 39L18 40L16 40L16 41L19 41L19 38L25 38L25 37L26 37L26 38L27 38L27 40L26 40L26 41L27 41L27 40L28 40L28 41L32 41L32 40L33 40L33 41L35 41L35 40L36 40L36 41L39 41L39 40L40 40L40 39L41 39L41 38L40 38L40 37L41 37L41 35L40 35L40 34L41 34L41 33L40 33L40 34L39 34L39 36L38 36L38 35L37 35L37 34L38 34L38 33L39 33L39 32L40 32L40 31L39 31L39 30L38 30L38 29L40 29L40 30L41 30L41 29L40 29L40 28L41 28L41 27L40 27L40 26L41 26L41 23L40 23L40 22L41 22L41 21L39 21L39 20L38 20L38 17L39 17L39 19L40 19L40 20L41 20L41 19L40 19L40 18L41 18L41 17L40 17L40 16L41 16L41 15L39 15L39 16L36 16L36 17L34 17L34 16L35 16L35 15L34 15L34 14L35 14L35 13L34 13L34 12L38 12L38 14L39 14L39 12L40 12L40 13L41 13L41 11L40 11L40 10L41 10L41 9L40 9L40 8L39 8L39 9L40 9L40 10L38 10L38 8L37 8L37 9L36 9L36 8L35 8L35 9L34 9L34 8L33 8L33 9L30 9L30 8L29 8L29 9L28 9L28 8L25 8L25 5L26 5L26 3L25 3L25 2L23 2L23 3L22 3L22 0L21 0L21 3L22 3L22 7L21 7L21 6L20 6L20 7L19 7L19 5L20 5L20 4L16 4L16 5L15 5L15 4L14 4L14 3L13 3L13 1L11 1L11 0ZM14 0L14 2L15 2L15 3L17 3L17 2L18 2L18 3L20 3L20 2L19 2L19 1L20 1L20 0L19 0L19 1L15 1L15 0ZM23 0L23 1L24 1L24 0ZM28 0L28 1L26 1L26 2L29 2L29 0ZM30 0L30 3L31 3L31 5L32 5L32 3L31 3L31 1L32 1L32 2L33 2L33 0ZM9 1L9 2L10 2L10 1ZM23 3L23 7L24 7L24 5L25 5L25 3ZM27 3L27 4L28 4L28 3ZM14 5L14 6L13 6L13 7L12 7L12 6L11 6L11 7L10 7L10 8L14 8L14 9L15 9L15 10L14 10L14 11L13 11L13 9L11 9L11 10L10 10L10 11L9 11L9 12L8 12L8 11L6 11L6 10L9 10L9 9L6 9L6 10L5 10L5 11L6 11L6 12L7 12L7 13L6 13L6 14L7 14L7 13L8 13L8 14L10 14L10 16L9 16L9 15L6 15L6 16L5 16L5 17L3 17L3 19L2 19L2 21L4 21L4 22L5 22L5 25L3 25L3 26L5 26L5 27L4 27L4 28L3 28L3 29L4 29L4 28L5 28L5 29L6 29L6 30L8 30L8 31L9 31L9 30L10 30L10 31L11 31L11 32L9 32L9 34L11 34L11 35L12 35L12 34L11 34L11 32L12 32L12 33L13 33L13 32L14 32L14 33L15 33L15 34L13 34L13 36L14 36L14 35L15 35L15 34L17 34L17 32L18 32L18 29L20 29L20 28L21 28L21 30L22 30L22 28L23 28L23 29L24 29L24 27L25 27L25 28L26 28L26 30L25 30L25 32L26 32L26 34L25 34L25 33L24 33L24 34L23 34L23 32L24 32L24 30L23 30L23 31L22 31L22 32L20 32L20 33L22 33L22 34L23 34L23 35L24 35L24 34L25 34L25 36L24 36L24 37L25 37L25 36L26 36L26 37L27 37L27 38L28 38L28 39L29 39L29 40L30 40L30 39L29 39L29 38L30 38L30 37L31 37L31 38L33 38L33 37L32 37L32 35L30 35L30 33L29 33L29 32L31 32L31 34L32 34L32 32L33 32L33 31L35 31L35 32L36 32L36 29L38 29L38 28L40 28L40 27L38 27L38 26L37 26L37 27L38 27L38 28L36 28L36 26L34 26L34 25L36 25L36 24L34 24L34 25L33 25L33 24L32 24L32 23L33 23L33 22L31 22L31 21L33 21L33 19L34 19L34 21L35 21L35 20L37 20L37 21L38 21L38 22L39 22L39 21L38 21L38 20L37 20L37 19L34 19L34 17L33 17L33 16L32 16L32 17L33 17L33 19L32 19L32 18L31 18L31 16L30 16L30 15L32 15L32 14L30 14L30 15L29 15L29 14L28 14L28 15L27 15L27 14L26 14L26 13L28 13L28 12L30 12L30 13L31 13L31 12L32 12L32 11L33 11L33 10L30 10L30 9L29 9L29 11L28 11L28 12L27 12L27 10L28 10L28 9L25 9L25 8L23 8L23 9L22 9L22 8L21 8L21 7L20 7L20 10L19 10L19 11L18 11L18 9L17 9L17 8L18 8L18 6L17 6L17 5L16 5L16 6L15 6L15 5ZM27 5L27 6L26 6L26 7L27 7L27 6L28 6L28 7L29 7L29 6L28 6L28 5ZM14 6L14 8L15 8L15 9L16 9L16 8L17 8L17 6L16 6L16 7L15 7L15 6ZM30 6L30 7L31 7L31 8L32 8L32 7L33 7L33 6L32 6L32 7L31 7L31 6ZM1 9L1 10L2 10L2 9ZM3 9L3 10L4 10L4 9ZM21 9L21 10L20 10L20 11L21 11L21 12L20 12L20 13L19 13L19 14L17 14L17 13L18 13L18 12L16 12L16 11L17 11L17 10L15 10L15 13L16 13L16 14L15 14L15 16L14 16L14 18L15 18L15 21L14 21L14 20L13 20L13 17L11 17L11 16L10 16L10 18L12 18L12 19L10 19L10 21L9 21L9 23L10 23L10 22L11 22L11 24L8 24L8 21L7 21L7 20L5 20L5 18L6 18L6 19L8 19L8 20L9 20L9 18L8 18L8 17L7 17L7 16L6 16L6 17L5 17L5 18L4 18L4 19L3 19L3 20L5 20L5 21L7 21L7 22L6 22L6 23L7 23L7 24L6 24L6 25L7 25L7 24L8 24L8 26L9 26L9 28L8 28L8 27L7 27L7 26L6 26L6 27L7 27L7 28L6 28L6 29L7 29L7 28L8 28L8 29L11 29L11 28L12 28L12 30L13 30L13 29L14 29L14 28L13 28L13 27L14 27L14 26L15 26L15 28L17 28L17 29L18 29L18 28L19 28L19 26L20 26L20 27L21 27L21 28L22 28L22 27L23 27L23 26L24 26L24 25L27 25L27 27L26 27L26 28L27 28L27 29L30 29L30 30L32 30L32 31L33 31L33 29L30 29L30 28L32 28L32 27L30 27L30 28L27 28L27 27L28 27L28 26L29 26L29 25L30 25L30 26L31 26L31 25L32 25L32 26L33 26L33 28L35 28L35 29L36 29L36 28L35 28L35 27L34 27L34 26L33 26L33 25L32 25L32 24L31 24L31 23L30 23L30 24L29 24L29 25L27 25L27 23L28 23L28 22L27 22L27 21L26 21L26 20L29 20L29 21L30 21L30 20L29 20L29 19L30 19L30 16L29 16L29 17L28 17L28 16L27 16L27 15L26 15L26 16L23 16L23 18L22 18L22 19L20 19L20 20L22 20L22 21L21 21L21 22L20 22L20 21L19 21L19 22L17 22L17 21L18 21L18 20L19 20L19 18L21 18L21 17L19 17L19 16L20 16L20 15L19 15L19 14L20 14L20 13L21 13L21 12L22 12L22 13L23 13L23 14L22 14L22 15L21 15L21 16L22 16L22 15L23 15L23 14L24 14L24 15L25 15L25 13L26 13L26 12L25 12L25 11L23 11L23 12L22 12L22 11L21 11L21 10L22 10L22 9ZM23 9L23 10L24 10L24 9ZM35 9L35 10L34 10L34 11L36 11L36 9ZM37 10L37 11L38 11L38 12L39 12L39 11L38 11L38 10ZM10 11L10 12L11 12L11 13L10 13L10 14L11 14L11 13L12 13L12 14L13 14L13 13L14 13L14 12L13 12L13 11L12 11L12 12L11 12L11 11ZM30 11L30 12L31 12L31 11ZM0 12L0 15L1 15L1 16L2 16L2 15L1 15L1 13L2 13L2 12ZM12 12L12 13L13 13L13 12ZM36 13L36 14L37 14L37 13ZM12 15L12 16L13 16L13 15ZM16 15L16 16L18 16L18 15ZM6 17L6 18L7 18L7 17ZM15 17L15 18L16 18L16 20L18 20L18 19L17 19L17 18L19 18L19 17ZM24 17L24 18L23 18L23 19L25 19L25 20L26 20L26 19L27 19L27 18L28 18L28 17ZM31 19L31 20L32 20L32 19ZM11 20L11 22L13 22L13 23L12 23L12 25L13 25L13 26L10 26L10 27L13 27L13 26L14 26L14 25L15 25L15 26L19 26L19 25L20 25L20 24L21 24L21 25L22 25L22 26L23 26L23 25L24 25L24 24L23 24L23 23L24 23L24 22L23 22L23 21L24 21L24 20L23 20L23 21L22 21L22 22L21 22L21 23L20 23L20 22L19 22L19 23L20 23L20 24L19 24L19 25L16 25L16 24L18 24L18 23L17 23L17 22L16 22L16 24L15 24L15 23L14 23L14 21L12 21L12 20ZM25 21L25 24L26 24L26 21ZM21 23L21 24L22 24L22 23ZM37 23L37 24L40 24L40 23ZM13 24L13 25L14 25L14 24ZM30 24L30 25L31 25L31 24ZM39 25L39 26L40 26L40 25ZM17 27L17 28L18 28L18 27ZM15 30L15 31L14 31L14 32L15 32L15 33L16 33L16 30ZM19 30L19 31L20 31L20 30ZM26 30L26 31L28 31L28 30ZM37 31L37 32L39 32L39 31ZM5 32L5 33L7 33L7 32ZM27 32L27 33L28 33L28 32ZM33 33L33 36L36 36L36 33ZM26 34L26 35L28 35L28 34ZM34 34L34 35L35 35L35 34ZM10 36L10 38L11 38L11 39L12 39L12 38L11 38L11 36ZM29 36L29 37L30 37L30 36ZM37 36L37 37L34 37L34 38L35 38L35 39L33 39L33 40L35 40L35 39L36 39L36 38L37 38L37 40L39 40L39 38L38 38L38 36ZM15 38L15 39L16 39L16 38ZM20 39L20 40L21 40L21 41L25 41L25 39L24 39L24 40L22 40L22 39ZM31 39L31 40L32 40L32 39ZM0 0L0 7L7 7L7 0ZM1 1L1 6L6 6L6 1ZM2 2L2 5L5 5L5 2ZM34 0L34 7L41 7L41 0ZM35 1L35 6L40 6L40 1ZM36 2L36 5L39 5L39 2ZM0 34L0 41L7 41L7 34ZM1 35L1 40L6 40L6 35ZM2 36L2 39L5 39L5 36Z" fill="#000000"/></g></g></svg>
