<?xml version="1.0" encoding="UTF-8"?>
<svg xmlns="http://www.w3.org/2000/svg" version="1.1" width="200" height="200" viewBox="0 0 200 200"><rect x="0" y="0" width="200" height="200" fill="#ffffff"/><g transform="scale(5.405)"><g transform="translate(0,0)"><path fill-rule="evenodd" d="M9 0L9 1L8 1L8 3L9 3L9 4L8 4L8 8L6 8L6 9L5 9L5 10L6 10L6 11L5 11L5 12L3 12L3 13L4 13L4 14L3 14L3 15L2 15L2 14L1 14L1 15L0 15L0 18L1 18L1 15L2 15L2 16L3 16L3 17L4 17L4 18L2 18L2 19L7 19L7 20L6 20L6 21L7 21L7 22L6 22L6 23L5 23L5 24L4 24L4 22L5 22L5 20L2 20L2 22L1 22L1 23L0 23L0 24L1 24L1 25L3 25L3 26L2 26L2 27L1 27L1 26L0 26L0 27L1 27L1 28L0 28L0 29L4 29L4 28L5 28L5 27L7 27L7 28L6 28L6 29L8 29L8 31L10 31L10 30L12 30L12 31L11 31L11 32L10 32L10 33L8 33L8 34L10 34L10 35L8 35L8 37L10 37L10 35L11 35L11 34L10 34L10 33L13 33L13 34L12 34L12 37L15 37L15 33L18 33L18 34L17 34L17 35L19 35L19 36L16 36L16 37L19 37L19 36L20 36L20 34L21 34L21 37L27 37L27 34L28 34L28 37L29 37L29 34L30 34L30 33L32 33L32 34L31 34L31 36L32 36L32 37L34 37L34 35L37 35L37 33L36 33L36 31L37 31L37 29L35 29L35 28L34 28L34 27L36 27L36 28L37 28L37 22L35 22L35 20L36 20L36 21L37 21L37 16L34 16L34 15L35 15L35 14L36 14L36 15L37 15L37 13L36 13L36 12L37 12L37 9L36 9L36 8L34 8L34 9L35 9L35 11L36 11L36 12L35 12L35 13L33 13L33 14L32 14L32 13L31 13L31 12L30 12L30 11L29 11L29 10L31 10L31 11L33 11L33 10L31 10L31 9L33 9L33 8L30 8L30 9L29 9L29 8L28 8L28 7L29 7L29 5L28 5L28 3L29 3L29 1L27 1L27 0L23 0L23 1L22 1L22 3L23 3L23 4L22 4L22 5L21 5L21 3L19 3L19 4L17 4L17 6L16 6L16 3L18 3L18 0L17 0L17 1L14 1L14 2L16 2L16 3L14 3L14 5L15 5L15 6L14 6L14 8L10 8L10 7L11 7L11 6L10 6L10 5L9 5L9 4L11 4L11 5L12 5L12 4L13 4L13 3L12 3L12 2L13 2L13 0L12 0L12 1L11 1L11 0ZM19 0L19 1L21 1L21 0ZM9 1L9 2L11 2L11 1ZM24 1L24 2L23 2L23 3L24 3L24 4L26 4L26 3L28 3L28 2L27 2L27 1ZM24 2L24 3L25 3L25 2ZM11 3L11 4L12 4L12 3ZM19 4L19 5L20 5L20 4ZM22 5L22 6L21 6L21 7L20 7L20 6L19 6L19 7L18 7L18 6L17 6L17 7L18 7L18 8L16 8L16 6L15 6L15 10L14 10L14 11L15 11L15 12L14 12L14 13L13 13L13 11L12 11L12 10L13 10L13 9L11 9L11 12L10 12L10 11L8 11L8 9L10 9L10 8L8 8L8 9L6 9L6 10L7 10L7 11L6 11L6 12L7 12L7 11L8 11L8 12L10 12L10 13L9 13L9 14L8 14L8 13L6 13L6 14L4 14L4 15L3 15L3 16L4 16L4 15L6 15L6 16L5 16L5 17L6 17L6 18L8 18L8 19L10 19L10 20L11 20L11 22L10 22L10 21L9 21L9 20L7 20L7 21L9 21L9 23L8 23L8 24L7 24L7 23L6 23L6 24L7 24L7 25L5 25L5 26L4 26L4 27L2 27L2 28L4 28L4 27L5 27L5 26L7 26L7 25L9 25L9 23L12 23L12 24L10 24L10 26L13 26L13 23L14 23L14 22L15 22L15 25L16 25L16 26L14 26L14 28L13 28L13 27L12 27L12 30L13 30L13 29L14 29L14 28L15 28L15 31L12 31L12 32L13 32L13 33L14 33L14 32L15 32L15 31L16 31L16 32L17 32L17 31L16 31L16 30L18 30L18 29L17 29L17 27L16 27L16 26L17 26L17 24L18 24L18 22L16 22L16 20L15 20L15 19L17 19L17 18L18 18L18 17L17 17L17 16L16 16L16 17L15 17L15 16L13 16L13 15L16 15L16 14L18 14L18 13L15 13L15 12L16 12L16 9L17 9L17 12L18 12L18 8L19 8L19 7L20 7L20 8L21 8L21 7L22 7L22 6L23 6L23 10L22 10L22 12L23 12L23 13L22 13L22 14L21 14L21 12L19 12L19 13L20 13L20 14L19 14L19 15L18 15L18 16L19 16L19 15L23 15L23 14L24 14L24 16L22 16L22 17L21 17L21 16L20 16L20 17L19 17L19 19L20 19L20 20L21 20L21 19L22 19L22 20L23 20L23 19L24 19L24 18L23 18L23 17L24 17L24 16L25 16L25 20L24 20L24 21L23 21L23 22L21 22L21 21L19 21L19 22L20 22L20 23L22 23L22 24L23 24L23 25L22 25L22 26L21 26L21 24L19 24L19 25L20 25L20 26L18 26L18 27L20 27L20 29L19 29L19 32L18 32L18 33L20 33L20 29L21 29L21 31L22 31L22 32L26 32L26 34L25 34L25 33L23 33L23 34L22 34L22 36L24 36L24 34L25 34L25 35L26 35L26 34L27 34L27 33L28 33L28 32L26 32L26 31L27 31L27 30L25 30L25 31L24 31L24 28L22 28L22 29L21 29L21 27L22 27L22 26L24 26L24 24L25 24L25 22L24 22L24 21L25 21L25 20L26 20L26 17L27 17L27 20L29 20L29 22L28 22L28 21L27 21L27 23L26 23L26 25L25 25L25 27L26 27L26 25L27 25L27 24L31 24L31 26L33 26L33 27L32 27L32 28L33 28L33 29L34 29L34 30L33 30L33 31L35 31L35 29L34 29L34 28L33 28L33 27L34 27L34 24L35 24L35 25L36 25L36 23L35 23L35 22L34 22L34 23L29 23L29 22L30 22L30 20L29 20L29 18L30 18L30 19L31 19L31 21L32 21L32 22L33 22L33 21L34 21L34 18L36 18L36 17L34 17L34 16L33 16L33 15L32 15L32 16L33 16L33 17L34 17L34 18L32 18L32 17L31 17L31 18L30 18L30 17L29 17L29 18L28 18L28 16L31 16L31 15L30 15L30 14L29 14L29 12L26 12L26 13L24 13L24 12L25 12L25 11L28 11L28 8L27 8L27 9L25 9L25 8L26 8L26 6L27 6L27 7L28 7L28 6L27 6L27 5L26 5L26 6L25 6L25 5ZM9 6L9 7L10 7L10 6ZM12 6L12 7L13 7L13 6ZM24 6L24 7L25 7L25 6ZM0 8L0 9L1 9L1 10L0 10L0 11L1 11L1 13L2 13L2 11L3 11L3 10L4 10L4 8L3 8L3 10L2 10L2 8ZM19 9L19 10L21 10L21 9ZM1 10L1 11L2 11L2 10ZM24 10L24 11L23 11L23 12L24 12L24 11L25 11L25 10ZM11 12L11 13L12 13L12 12ZM26 13L26 14L25 14L25 16L26 16L26 14L27 14L27 13ZM6 14L6 15L8 15L8 14ZM11 14L11 15L10 15L10 16L11 16L11 18L10 18L10 17L9 17L9 16L6 16L6 17L9 17L9 18L10 18L10 19L11 19L11 20L12 20L12 21L13 21L13 22L14 22L14 20L13 20L13 18L12 18L12 15L13 15L13 14ZM14 17L14 18L15 18L15 17ZM16 17L16 18L17 18L17 17ZM20 17L20 19L21 19L21 17ZM11 18L11 19L12 19L12 18ZM0 20L0 21L1 21L1 20ZM17 20L17 21L18 21L18 20ZM32 20L32 21L33 21L33 20ZM3 21L3 22L2 22L2 23L1 23L1 24L2 24L2 23L3 23L3 22L4 22L4 21ZM16 23L16 24L17 24L17 23ZM28 25L28 26L27 26L27 28L25 28L25 29L28 29L28 28L31 28L31 27L30 27L30 26L29 26L29 25ZM20 26L20 27L21 27L21 26ZM28 26L28 27L29 27L29 26ZM9 27L9 28L8 28L8 29L9 29L9 30L10 30L10 29L9 29L9 28L10 28L10 27ZM29 29L29 32L32 32L32 29ZM30 30L30 31L31 31L31 30ZM34 32L34 33L35 33L35 32ZM13 34L13 35L14 35L14 34ZM33 34L33 35L32 35L32 36L33 36L33 35L34 35L34 34ZM35 36L35 37L37 37L37 36ZM0 0L0 7L7 7L7 0ZM1 1L1 6L6 6L6 1ZM2 2L2 5L5 5L5 2ZM30 0L30 7L37 7L37 0ZM31 1L31 6L36 6L36 1ZM32 2L32 5L35 5L35 2ZM0 30L0 37L7 37L7 30ZM1 31L1 36L6 36L6 31ZM2 32L2 35L5 35L5 32Z" fill="#000000"/></g></g></svg>
