<?xml version="1.0" encoding="UTF-8"?>
<svg xmlns="http://www.w3.org/2000/svg" version="1.1" width="200" height="200" viewBox="0 0 200 200"><rect x="0" y="0" width="200" height="200" fill="#ffffff"/><g transform="scale(4.082)"><g transform="translate(0,0)"><path fill-rule="evenodd" d="M8 0L8 1L9 1L9 3L11 3L11 5L10 5L10 4L9 4L9 5L10 5L10 9L14 9L14 7L15 7L15 8L16 8L16 9L15 9L15 11L14 11L14 10L13 10L13 11L12 11L12 10L9 10L9 9L8 9L8 10L6 10L6 11L8 11L8 12L6 12L6 13L8 13L8 14L4 14L4 13L5 13L5 8L3 8L3 9L4 9L4 11L3 11L3 10L2 10L2 8L0 8L0 9L1 9L1 10L0 10L0 14L1 14L1 13L2 13L2 15L0 15L0 17L3 17L3 18L0 18L0 19L2 19L2 20L5 20L5 21L7 21L7 20L8 20L8 22L4 22L4 21L2 21L2 22L1 22L1 20L0 20L0 22L1 22L1 23L0 23L0 24L1 24L1 26L0 26L0 27L1 27L1 29L0 29L0 30L2 30L2 29L3 29L3 28L2 28L2 25L3 25L3 26L4 26L4 33L3 33L3 36L2 36L2 32L3 32L3 31L2 31L2 32L1 32L1 31L0 31L0 33L1 33L1 34L0 34L0 35L1 35L1 40L0 40L0 41L3 41L3 40L4 40L4 39L2 39L2 38L4 38L4 37L3 37L3 36L4 36L4 35L7 35L7 36L5 36L5 37L7 37L7 38L5 38L5 39L8 39L8 36L9 36L9 35L10 35L10 36L11 36L11 38L10 38L10 37L9 37L9 39L11 39L11 40L10 40L10 41L11 41L11 40L12 40L12 39L11 39L11 38L12 38L12 37L14 37L14 38L13 38L13 41L12 41L12 42L13 42L13 41L14 41L14 42L15 42L15 40L16 40L16 43L15 43L15 44L14 44L14 43L13 43L13 44L12 44L12 43L11 43L11 44L10 44L10 42L9 42L9 40L6 40L6 41L8 41L8 42L9 42L9 44L8 44L8 46L9 46L9 47L8 47L8 49L10 49L10 48L11 48L11 49L12 49L12 48L13 48L13 47L14 47L14 46L15 46L15 44L16 44L16 46L17 46L17 45L18 45L18 47L19 47L19 48L17 48L17 47L16 47L16 48L17 48L17 49L19 49L19 48L21 48L21 49L26 49L26 48L24 48L24 47L25 47L25 46L24 46L24 45L26 45L26 47L27 47L27 48L28 48L28 49L30 49L30 48L32 48L32 49L33 49L33 47L34 47L34 49L35 49L35 46L36 46L36 47L37 47L37 48L36 48L36 49L37 49L37 48L40 48L40 49L42 49L42 48L43 48L43 49L44 49L44 47L45 47L45 48L46 48L46 49L47 49L47 48L48 48L48 49L49 49L49 47L48 47L48 46L47 46L47 44L46 44L46 43L49 43L49 42L48 42L48 41L49 41L49 40L48 40L48 39L49 39L49 38L48 38L48 37L49 37L49 33L46 33L46 34L48 34L48 35L46 35L46 36L45 36L45 37L44 37L44 35L45 35L45 31L46 31L46 30L47 30L47 32L48 32L48 31L49 31L49 30L48 30L48 29L49 29L49 26L46 26L46 24L47 24L47 25L49 25L49 24L48 24L48 23L49 23L49 21L48 21L48 19L49 19L49 18L48 18L48 19L47 19L47 22L48 22L48 23L46 23L46 17L47 17L47 15L49 15L49 14L46 14L46 15L45 15L45 14L44 14L44 13L46 13L46 12L48 12L48 13L49 13L49 10L48 10L48 11L45 11L45 10L47 10L47 9L43 9L43 8L42 8L42 10L43 10L43 11L42 11L42 12L41 12L41 11L40 11L40 10L41 10L41 9L39 9L39 8L40 8L40 7L41 7L41 6L40 6L40 7L39 7L39 5L38 5L38 2L39 2L39 4L40 4L40 3L41 3L41 0L40 0L40 1L38 1L38 0L36 0L36 1L37 1L37 3L36 3L36 4L37 4L37 5L38 5L38 7L37 7L37 6L36 6L36 7L37 7L37 8L35 8L35 5L34 5L34 7L33 7L33 6L32 6L32 7L33 7L33 8L35 8L35 9L32 9L32 8L29 8L29 6L30 6L30 7L31 7L31 6L30 6L30 5L31 5L31 4L33 4L33 3L34 3L34 4L35 4L35 0L34 0L34 2L33 2L33 0L28 0L28 1L31 1L31 2L29 2L29 3L26 3L26 4L25 4L25 3L24 3L24 2L26 2L26 1L27 1L27 0L26 0L26 1L25 1L25 0L24 0L24 1L23 1L23 0L19 0L19 1L18 1L18 2L17 2L17 0L15 0L15 1L14 1L14 0L13 0L13 1L12 1L12 0L11 0L11 1L10 1L10 0ZM11 1L11 2L12 2L12 5L11 5L11 8L12 8L12 5L13 5L13 7L14 7L14 6L15 6L15 7L16 7L16 6L17 6L17 7L18 7L18 8L17 8L17 9L18 9L18 10L16 10L16 11L15 11L15 12L14 12L14 11L13 11L13 13L12 13L12 14L11 14L11 15L9 15L9 16L8 16L8 18L7 18L7 17L6 17L6 16L7 16L7 15L6 15L6 16L5 16L5 15L4 15L4 16L3 16L3 17L4 17L4 18L5 18L5 20L7 20L7 19L8 19L8 20L11 20L11 21L9 21L9 22L10 22L10 24L9 24L9 25L10 25L10 27L9 27L9 28L8 28L8 27L5 27L5 28L8 28L8 29L10 29L10 30L8 30L8 31L9 31L9 32L7 32L7 31L6 31L6 32L5 32L5 34L8 34L8 33L9 33L9 34L13 34L13 35L11 35L11 36L13 36L13 35L14 35L14 36L15 36L15 35L16 35L16 33L17 33L17 34L19 34L19 35L20 35L20 36L21 36L21 35L23 35L23 34L24 34L24 35L25 35L25 36L26 36L26 39L24 39L24 38L23 38L23 39L22 39L22 37L24 37L24 36L22 36L22 37L19 37L19 38L18 38L18 39L17 39L17 38L16 38L16 40L19 40L19 38L21 38L21 39L20 39L20 40L27 40L27 42L30 42L30 43L29 43L29 44L30 44L30 45L32 45L32 47L33 47L33 43L34 43L34 44L38 44L38 45L39 45L39 46L37 46L37 47L39 47L39 46L40 46L40 48L42 48L42 47L43 47L43 46L44 46L44 45L43 45L43 46L42 46L42 45L40 45L40 44L39 44L39 42L40 42L40 41L38 41L38 40L37 40L37 39L36 39L36 38L35 38L35 37L36 37L36 36L38 36L38 37L37 37L37 38L38 38L38 39L39 39L39 38L38 38L38 37L39 37L39 35L42 35L42 34L43 34L43 35L44 35L44 33L42 33L42 32L44 32L44 31L42 31L42 32L40 32L40 33L39 33L39 32L38 32L38 31L40 31L40 30L41 30L41 29L43 29L43 30L46 30L46 29L45 29L45 28L44 28L44 27L41 27L41 28L40 28L40 29L39 29L39 27L38 27L38 25L35 25L35 23L36 23L36 24L37 24L37 23L36 23L36 21L35 21L35 23L34 23L34 24L33 24L33 25L32 25L32 26L34 26L34 27L33 27L33 29L31 29L31 30L30 30L30 27L28 27L28 26L27 26L27 27L25 27L25 28L24 28L24 27L23 27L23 28L22 28L22 25L21 25L21 24L19 24L19 25L18 25L18 27L17 27L17 28L16 28L16 27L14 27L14 22L12 22L12 24L11 24L11 21L12 21L12 20L11 20L11 19L13 19L13 20L14 20L14 21L15 21L15 20L17 20L17 21L16 21L16 22L17 22L17 21L18 21L18 20L17 20L17 19L15 19L15 20L14 20L14 19L13 19L13 18L14 18L14 14L13 14L13 13L15 13L15 18L16 18L16 14L17 14L17 16L20 16L20 17L17 17L17 18L20 18L20 19L21 19L21 20L20 20L20 22L19 22L19 23L22 23L22 21L23 21L23 22L24 22L24 20L26 20L26 21L27 21L27 22L28 22L28 23L27 23L27 25L28 25L28 24L29 24L29 21L31 21L31 22L30 22L30 23L31 23L31 24L32 24L32 21L33 21L33 19L32 19L32 20L30 20L30 19L31 19L31 18L33 18L33 17L32 17L32 16L35 16L35 17L36 17L36 18L37 18L37 17L36 17L36 14L37 14L37 13L38 13L38 12L39 12L39 13L40 13L40 16L39 16L39 15L38 15L38 19L39 19L39 20L40 20L40 21L41 21L41 22L42 22L42 20L44 20L44 21L43 21L43 22L45 22L45 19L43 19L43 18L45 18L45 17L44 17L44 16L45 16L45 15L44 15L44 16L43 16L43 14L42 14L42 13L41 13L41 12L40 12L40 11L39 11L39 10L35 10L35 11L36 11L36 12L34 12L34 11L33 11L33 13L34 13L34 15L32 15L32 16L31 16L31 14L32 14L32 12L31 12L31 11L32 11L32 10L30 10L30 9L28 9L28 5L30 5L30 4L31 4L31 3L32 3L32 2L31 2L31 3L29 3L29 4L27 4L27 10L25 10L25 11L24 11L24 9L22 9L22 10L20 10L20 8L21 8L21 7L22 7L22 5L21 5L21 4L24 4L24 3L23 3L23 2L22 2L22 1L19 1L19 2L20 2L20 3L19 3L19 4L20 4L20 5L19 5L19 7L18 7L18 6L17 6L17 5L18 5L18 3L17 3L17 2L16 2L16 1L15 1L15 2L12 2L12 1ZM15 2L15 3L14 3L14 4L13 4L13 5L15 5L15 3L16 3L16 5L17 5L17 3L16 3L16 2ZM21 2L21 3L20 3L20 4L21 4L21 3L22 3L22 2ZM20 5L20 7L21 7L21 5ZM23 5L23 8L26 8L26 5ZM8 6L8 8L9 8L9 6ZM24 6L24 7L25 7L25 6ZM6 8L6 9L7 9L7 8ZM18 8L18 9L19 9L19 8ZM48 8L48 9L49 9L49 8ZM27 10L27 11L25 11L25 12L23 12L23 11L22 11L22 12L23 12L23 13L26 13L26 16L24 16L24 17L23 17L23 14L21 14L21 11L20 11L20 13L18 13L18 14L21 14L21 15L20 15L20 16L21 16L21 15L22 15L22 18L21 18L21 19L23 19L23 20L24 20L24 19L26 19L26 20L27 20L27 19L26 19L26 18L25 18L25 17L27 17L27 18L28 18L28 19L30 19L30 18L31 18L31 16L30 16L30 14L31 14L31 13L29 13L29 12L28 12L28 13L29 13L29 14L28 14L28 15L27 15L27 13L26 13L26 12L27 12L27 11L28 11L28 10ZM29 10L29 11L30 11L30 10ZM10 11L10 13L11 13L11 12L12 12L12 11ZM17 11L17 12L16 12L16 13L17 13L17 12L18 12L18 11ZM37 11L37 12L36 12L36 13L37 13L37 12L38 12L38 11ZM3 12L3 13L4 13L4 12ZM8 12L8 13L9 13L9 12ZM12 14L12 16L11 16L11 17L10 17L10 16L9 16L9 17L10 17L10 18L8 18L8 19L10 19L10 18L11 18L11 17L13 17L13 14ZM24 14L24 15L25 15L25 14ZM28 15L28 16L27 16L27 17L29 17L29 15ZM42 16L42 17L39 17L39 19L40 19L40 18L41 18L41 20L42 20L42 18L43 18L43 16ZM48 16L48 17L49 17L49 16ZM6 18L6 19L7 19L7 18ZM23 18L23 19L24 19L24 18ZM34 18L34 19L35 19L35 18ZM36 19L36 20L37 20L37 19ZM28 20L28 21L29 21L29 20ZM37 21L37 22L38 22L38 24L39 24L39 26L40 26L40 22L38 22L38 21ZM2 22L2 24L3 24L3 22ZM5 23L5 26L8 26L8 23ZM16 23L16 24L15 24L15 26L17 26L17 23ZM23 23L23 26L26 26L26 23ZM41 23L41 26L44 26L44 23ZM45 23L45 24L46 24L46 23ZM6 24L6 25L7 25L7 24ZM10 24L10 25L11 25L11 24ZM12 24L12 27L11 27L11 29L12 29L12 28L13 28L13 29L14 29L14 28L13 28L13 24ZM24 24L24 25L25 25L25 24ZM42 24L42 25L43 25L43 24ZM19 25L19 27L20 27L20 28L19 28L19 29L16 29L16 31L19 31L19 32L18 32L18 33L19 33L19 32L20 32L20 35L21 35L21 33L24 33L24 34L26 34L26 36L27 36L27 37L28 37L28 38L27 38L27 39L29 39L29 40L30 40L30 42L31 42L31 41L33 41L33 42L32 42L32 43L31 43L31 44L32 44L32 43L33 43L33 42L34 42L34 43L38 43L38 41L37 41L37 40L35 40L35 41L34 41L34 40L31 40L31 39L29 39L29 38L32 38L32 39L33 39L33 38L34 38L34 37L35 37L35 36L36 36L36 35L38 35L38 34L39 34L39 33L37 33L37 32L36 32L36 31L35 31L35 32L33 32L33 33L32 33L32 32L31 32L31 31L33 31L33 30L36 30L36 29L37 29L37 28L36 28L36 29L33 29L33 30L31 30L31 31L30 31L30 32L31 32L31 33L29 33L29 31L28 31L28 33L24 33L24 32L25 32L25 31L27 31L27 29L28 29L28 30L29 30L29 29L28 29L28 28L26 28L26 30L25 30L25 29L24 29L24 32L22 32L22 31L23 31L23 29L22 29L22 31L21 31L21 30L20 30L20 31L19 31L19 29L21 29L21 27L20 27L20 26L21 26L21 25ZM34 27L34 28L35 28L35 27ZM47 27L47 29L48 29L48 27ZM5 29L5 30L7 30L7 29ZM11 30L11 33L13 33L13 32L14 32L14 31L15 31L15 30L14 30L14 31L13 31L13 32L12 32L12 30ZM37 30L37 31L38 31L38 30ZM6 32L6 33L7 33L7 32ZM35 32L35 34L37 34L37 33L36 33L36 32ZM31 33L31 34L30 34L30 35L31 35L31 36L29 36L29 35L27 35L27 36L29 36L29 37L31 37L31 36L32 36L32 35L31 35L31 34L32 34L32 33ZM33 33L33 34L34 34L34 33ZM40 33L40 34L41 34L41 33ZM14 34L14 35L15 35L15 34ZM17 35L17 36L18 36L18 35ZM33 35L33 37L32 37L32 38L33 38L33 37L34 37L34 36L35 36L35 35ZM42 36L42 37L40 37L40 38L41 38L41 39L40 39L40 40L41 40L41 39L42 39L42 40L44 40L44 39L42 39L42 37L43 37L43 36ZM46 36L46 37L45 37L45 38L46 38L46 39L45 39L45 40L46 40L46 39L47 39L47 38L46 38L46 37L47 37L47 36ZM14 38L14 39L15 39L15 38ZM47 40L47 41L48 41L48 40ZM17 41L17 43L16 43L16 44L18 44L18 45L19 45L19 46L20 46L20 45L22 45L22 47L21 47L21 48L22 48L22 47L23 47L23 45L22 45L22 43L21 43L21 44L20 44L20 42L21 42L21 41L20 41L20 42L19 42L19 41ZM23 41L23 44L26 44L26 41ZM35 41L35 42L37 42L37 41ZM41 41L41 44L44 44L44 41ZM45 41L45 42L46 42L46 41ZM24 42L24 43L25 43L25 42ZM42 42L42 43L43 43L43 42ZM27 43L27 44L28 44L28 43ZM9 44L9 45L10 45L10 44ZM13 44L13 46L14 46L14 44ZM19 44L19 45L20 45L20 44ZM48 44L48 45L49 45L49 44ZM11 45L11 46L10 46L10 47L12 47L12 45ZM45 45L45 46L46 46L46 45ZM29 46L29 47L28 47L28 48L30 48L30 47L31 47L31 46ZM14 48L14 49L15 49L15 48ZM0 0L0 7L7 7L7 0ZM1 1L1 6L6 6L6 1ZM2 2L2 5L5 5L5 2ZM42 0L42 7L49 7L49 0ZM43 1L43 6L48 6L48 1ZM44 2L44 5L47 5L47 2ZM0 42L0 49L7 49L7 42ZM1 43L1 48L6 48L6 43ZM2 44L2 47L5 47L5 44Z" fill="#000000"/></g></g></svg>
