<?xml version="1.0" encoding="UTF-8"?>
<svg xmlns="http://www.w3.org/2000/svg" version="1.1" width="200" height="200" viewBox="0 0 200 200"><rect x="0" y="0" width="200" height="200" fill="#ffffff"/><g transform="scale(4.878)"><g transform="translate(0,0)"><path fill-rule="evenodd" d="M8 0L8 4L9 4L9 5L8 5L8 7L9 7L9 9L8 9L8 10L6 10L6 9L7 9L7 8L4 8L4 10L2 10L2 11L0 11L0 12L1 12L1 13L3 13L3 14L5 14L5 15L4 15L4 16L2 16L2 14L0 14L0 15L1 15L1 16L0 16L0 17L1 17L1 18L2 18L2 19L4 19L4 20L1 20L1 21L0 21L0 22L1 22L1 21L2 21L2 22L3 22L3 24L2 24L2 25L3 25L3 26L6 26L6 27L7 27L7 28L4 28L4 27L3 27L3 28L4 28L4 30L6 30L6 31L7 31L7 30L8 30L8 31L9 31L9 32L10 32L10 33L8 33L8 34L9 34L9 35L8 35L8 37L9 37L9 36L10 36L10 39L8 39L8 41L9 41L9 40L10 40L10 41L11 41L11 40L12 40L12 39L13 39L13 38L14 38L14 39L15 39L15 40L14 40L14 41L15 41L15 40L16 40L16 41L20 41L20 39L19 39L19 38L18 38L18 37L17 37L17 36L18 36L18 34L19 34L19 32L20 32L20 33L23 33L23 34L22 34L22 35L20 35L20 36L19 36L19 37L20 37L20 38L21 38L21 41L24 41L24 40L25 40L25 41L26 41L26 40L25 40L25 39L24 39L24 38L27 38L27 39L28 39L28 40L27 40L27 41L31 41L31 40L30 40L30 39L29 39L29 38L28 38L28 36L29 36L29 37L31 37L31 39L32 39L32 41L33 41L33 39L34 39L34 38L33 38L33 37L37 37L37 40L36 40L36 41L37 41L37 40L38 40L38 41L40 41L40 40L41 40L41 39L40 39L40 38L39 38L39 37L38 37L38 35L37 35L37 30L38 30L38 27L39 27L39 30L40 30L40 32L41 32L41 28L40 28L40 27L41 27L41 24L40 24L40 25L39 25L39 26L38 26L38 27L37 27L37 29L36 29L36 30L35 30L35 29L34 29L34 28L36 28L36 26L37 26L37 24L36 24L36 23L38 23L38 18L39 18L39 19L40 19L40 20L39 20L39 21L40 21L40 22L39 22L39 23L41 23L41 21L40 21L40 20L41 20L41 17L38 17L38 18L37 18L37 15L38 15L38 14L40 14L40 15L39 15L39 16L40 16L40 15L41 15L41 14L40 14L40 12L39 12L39 13L38 13L38 11L41 11L41 8L37 8L37 9L36 9L36 8L35 8L35 9L34 9L34 10L33 10L33 11L32 11L32 12L33 12L33 16L31 16L31 17L33 17L33 18L32 18L32 19L30 19L30 18L29 18L29 17L30 17L30 15L31 15L31 14L32 14L32 13L30 13L30 11L31 11L31 9L33 9L33 5L31 5L31 6L30 6L30 7L29 7L29 6L28 6L28 7L27 7L27 5L28 5L28 2L26 2L26 1L29 1L29 3L30 3L30 4L32 4L32 3L31 3L31 2L32 2L32 1L31 1L31 0L23 0L23 1L22 1L22 2L21 2L21 0L20 0L20 1L17 1L17 0L16 0L16 2L17 2L17 3L18 3L18 5L17 5L17 6L16 6L16 7L15 7L15 6L14 6L14 5L16 5L16 3L15 3L15 1L14 1L14 0L12 0L12 1L9 1L9 0ZM12 1L12 5L13 5L13 3L14 3L14 4L15 4L15 3L14 3L14 2L13 2L13 1ZM23 1L23 2L24 2L24 5L22 5L22 4L23 4L23 3L21 3L21 2L20 2L20 3L19 3L19 2L18 2L18 3L19 3L19 5L22 5L22 6L21 6L21 7L20 7L20 6L19 6L19 7L18 7L18 6L17 6L17 7L18 7L18 8L19 8L19 7L20 7L20 8L21 8L21 7L22 7L22 6L23 6L23 8L22 8L22 9L21 9L21 10L20 10L20 9L18 9L18 10L17 10L17 9L16 9L16 8L15 8L15 7L14 7L14 6L13 6L13 7L12 7L12 6L11 6L11 7L12 7L12 9L11 9L11 10L10 10L10 9L9 9L9 10L8 10L8 12L7 12L7 11L6 11L6 10L5 10L5 13L6 13L6 14L8 14L8 15L10 15L10 12L12 12L12 9L13 9L13 13L11 13L11 16L9 16L9 18L10 18L10 19L9 19L9 20L11 20L11 22L10 22L10 21L9 21L9 22L8 22L8 23L11 23L11 22L12 22L12 21L14 21L14 23L12 23L12 24L9 24L9 25L13 25L13 26L12 26L12 27L11 27L11 28L10 28L10 26L7 26L7 25L6 25L6 24L7 24L7 23L5 23L5 22L7 22L7 21L8 21L8 19L6 19L6 18L8 18L8 17L4 17L4 19L6 19L6 20L4 20L4 21L3 21L3 22L4 22L4 24L3 24L3 25L4 25L4 24L5 24L5 25L6 25L6 26L7 26L7 27L8 27L8 28L7 28L7 29L6 29L6 30L7 30L7 29L8 29L8 28L10 28L10 29L11 29L11 31L10 31L10 32L12 32L12 33L13 33L13 34L15 34L15 33L16 33L16 34L17 34L17 33L16 33L16 32L17 32L17 31L16 31L16 32L15 32L15 30L14 30L14 29L11 29L11 28L14 28L14 26L15 26L15 25L16 25L16 27L17 27L17 26L18 26L18 28L21 28L21 27L22 27L22 28L23 28L23 30L22 30L22 29L21 29L21 30L20 30L20 29L19 29L19 31L20 31L20 32L21 32L21 30L22 30L22 31L23 31L23 33L24 33L24 36L23 36L23 35L22 35L22 37L21 37L21 36L20 36L20 37L21 37L21 38L23 38L23 37L24 37L24 36L25 36L25 37L26 37L26 36L28 36L28 35L27 35L27 34L26 34L26 35L25 35L25 33L26 33L26 31L27 31L27 33L28 33L28 34L29 34L29 35L30 35L30 36L32 36L32 35L31 35L31 34L30 34L30 33L29 33L29 32L28 32L28 31L27 31L27 30L28 30L28 27L27 27L27 26L28 26L28 25L29 25L29 24L28 24L28 23L27 23L27 21L26 21L26 19L27 19L27 18L26 18L26 17L29 17L29 15L30 15L30 14L29 14L29 10L30 10L30 9L31 9L31 8L32 8L32 6L31 6L31 8L30 8L30 9L29 9L29 10L28 10L28 12L27 12L27 11L26 11L26 9L28 9L28 8L26 8L26 6L25 6L25 5L26 5L26 4L27 4L27 3L26 3L26 2L25 2L25 1ZM30 1L30 2L31 2L31 1ZM10 2L10 3L9 3L9 4L11 4L11 2ZM20 3L20 4L21 4L21 3ZM25 3L25 4L26 4L26 3ZM9 5L9 7L10 7L10 5ZM24 6L24 8L23 8L23 12L22 12L22 10L21 10L21 14L20 14L20 15L21 15L21 17L20 17L20 16L18 16L18 14L16 14L16 13L15 13L15 11L16 11L16 12L17 12L17 13L18 13L18 12L20 12L20 11L19 11L19 10L18 10L18 11L17 11L17 10L16 10L16 9L15 9L15 8L14 8L14 9L15 9L15 11L14 11L14 13L13 13L13 14L15 14L15 15L14 15L14 17L12 17L12 16L13 16L13 15L12 15L12 16L11 16L11 17L10 17L10 18L11 18L11 20L13 20L13 19L14 19L14 17L15 17L15 24L14 24L14 25L15 25L15 24L16 24L16 23L17 23L17 25L20 25L20 27L21 27L21 26L22 26L22 25L23 25L23 28L24 28L24 27L25 27L25 26L24 26L24 25L25 25L25 24L24 24L24 20L25 20L25 18L24 18L24 17L25 17L25 16L24 16L24 17L23 17L23 19L22 19L22 18L21 18L21 17L22 17L22 16L23 16L23 15L24 15L24 13L25 13L25 15L26 15L26 16L28 16L28 15L29 15L29 14L28 14L28 13L27 13L27 12L26 12L26 13L25 13L25 11L24 11L24 9L25 9L25 6ZM0 8L0 10L1 10L1 9L2 9L2 8ZM35 9L35 10L36 10L36 11L34 11L34 14L36 14L36 15L34 15L34 16L33 16L33 17L36 17L36 15L37 15L37 14L38 14L38 13L37 13L37 11L38 11L38 9L37 9L37 10L36 10L36 9ZM9 10L9 12L10 12L10 10ZM6 12L6 13L7 13L7 12ZM26 13L26 15L27 15L27 13ZM36 13L36 14L37 14L37 13ZM22 14L22 15L23 15L23 14ZM6 15L6 16L7 16L7 15ZM15 15L15 16L16 16L16 15ZM16 17L16 20L17 20L17 19L18 19L18 20L19 20L19 19L20 19L20 20L21 20L21 18L20 18L20 17L18 17L18 18L17 18L17 17ZM33 18L33 19L32 19L32 20L33 20L33 19L34 19L34 21L33 21L33 22L32 22L32 21L31 21L31 20L30 20L30 21L29 21L29 19L28 19L28 22L30 22L30 21L31 21L31 23L30 23L30 25L31 25L31 23L32 23L32 24L33 24L33 25L32 25L32 26L31 26L31 27L30 27L30 28L31 28L31 27L32 27L32 29L31 29L31 31L32 31L32 30L34 30L34 29L33 29L33 28L34 28L34 27L33 27L33 25L36 25L36 24L35 24L35 22L36 22L36 21L37 21L37 20L35 20L35 19L37 19L37 18L35 18L35 19L34 19L34 18ZM23 19L23 20L24 20L24 19ZM6 20L6 21L7 21L7 20ZM16 21L16 22L17 22L17 23L18 23L18 24L19 24L19 23L20 23L20 24L21 24L21 25L22 25L22 24L21 24L21 23L22 23L22 22L23 22L23 21L20 21L20 22L18 22L18 21ZM34 21L34 22L33 22L33 24L34 24L34 22L35 22L35 21ZM26 23L26 24L27 24L27 23ZM23 24L23 25L24 25L24 24ZM0 25L0 30L2 30L2 32L0 32L0 33L7 33L7 32L5 32L5 31L4 31L4 32L3 32L3 30L2 30L2 26L1 26L1 25ZM26 25L26 26L27 26L27 25ZM26 27L26 29L25 29L25 30L27 30L27 27ZM15 28L15 29L17 29L17 30L18 30L18 29L17 29L17 28ZM29 29L29 30L30 30L30 29ZM13 30L13 31L12 31L12 32L13 32L13 31L14 31L14 30ZM23 30L23 31L24 31L24 30ZM34 31L34 32L35 32L35 31ZM14 32L14 33L15 33L15 32ZM24 32L24 33L25 33L25 32ZM31 32L31 33L32 33L32 32ZM10 33L10 35L11 35L11 33ZM33 33L33 36L36 36L36 33ZM38 33L38 34L39 34L39 36L40 36L40 37L41 37L41 33L40 33L40 34L39 34L39 33ZM34 34L34 35L35 35L35 34ZM12 35L12 36L11 36L11 38L12 38L12 37L13 37L13 35ZM14 35L14 37L16 37L16 36L15 36L15 35ZM16 38L16 39L17 39L17 38ZM35 38L35 39L36 39L36 38ZM10 39L10 40L11 40L11 39ZM22 39L22 40L23 40L23 39ZM38 39L38 40L39 40L39 39ZM0 0L0 7L7 7L7 0ZM1 1L1 6L6 6L6 1ZM2 2L2 5L5 5L5 2ZM34 0L34 7L41 7L41 0ZM35 1L35 6L40 6L40 1ZM36 2L36 5L39 5L39 2ZM0 34L0 41L7 41L7 34ZM1 35L1 40L6 40L6 35ZM2 36L2 39L5 39L5 36Z" fill="#000000"/></g></g></svg>
