<?xml version="1.0" encoding="UTF-8"?>
<svg xmlns="http://www.w3.org/2000/svg" version="1.1" width="200" height="200" viewBox="0 0 200 200"><rect x="0" y="0" width="200" height="200" fill="#ffffff"/><g transform="scale(4.444)"><g transform="translate(0,0)"><path fill-rule="evenodd" d="M8 0L8 4L9 4L9 5L8 5L8 7L9 7L9 8L10 8L10 9L11 9L11 10L10 10L10 11L7 11L7 10L9 10L9 9L7 9L7 8L4 8L4 10L5 10L5 12L4 12L4 13L5 13L5 14L4 14L4 16L2 16L2 17L1 17L1 16L0 16L0 18L1 18L1 19L0 19L0 20L1 20L1 21L2 21L2 22L4 22L4 25L3 25L3 23L1 23L1 22L0 22L0 23L1 23L1 25L0 25L0 27L2 27L2 28L1 28L1 29L0 29L0 34L4 34L4 35L1 35L1 36L0 36L0 37L1 37L1 36L3 36L3 37L5 37L5 34L6 34L6 35L7 35L7 36L6 36L6 37L7 37L7 36L8 36L8 38L9 38L9 39L8 39L8 41L10 41L10 43L8 43L8 45L10 45L10 43L11 43L11 45L12 45L12 43L11 43L11 41L12 41L12 42L15 42L15 44L13 44L13 45L17 45L17 44L18 44L18 45L21 45L21 43L22 43L22 41L23 41L23 42L24 42L24 43L23 43L23 44L24 44L24 45L25 45L25 42L24 42L24 41L26 41L26 43L27 43L27 44L28 44L28 43L27 43L27 41L28 41L28 39L29 39L29 43L31 43L31 42L32 42L32 45L34 45L34 44L35 44L35 45L38 45L38 44L37 44L37 43L33 43L33 42L32 42L32 41L33 41L33 40L34 40L34 41L35 41L35 40L36 40L36 41L41 41L41 40L42 40L42 39L41 39L41 37L42 37L42 38L43 38L43 37L42 37L42 35L44 35L44 36L45 36L45 35L44 35L44 34L43 34L43 33L44 33L44 32L45 32L45 31L44 31L44 32L43 32L43 33L42 33L42 34L41 34L41 35L40 35L40 34L39 34L39 36L38 36L38 33L41 33L41 32L40 32L40 31L42 31L42 30L43 30L43 29L44 29L44 28L45 28L45 27L43 27L43 26L44 26L44 25L45 25L45 23L44 23L44 24L43 24L43 25L41 25L41 23L43 23L43 22L42 22L42 18L43 18L43 19L44 19L44 20L43 20L43 21L45 21L45 19L44 19L44 18L45 18L45 15L43 15L43 17L41 17L41 18L40 18L40 20L39 20L39 17L38 17L38 16L40 16L40 14L44 14L44 13L45 13L45 11L44 11L44 9L45 9L45 8L41 8L41 9L40 9L40 8L39 8L39 9L35 9L35 10L37 10L37 11L34 11L34 8L36 8L36 7L37 7L37 6L36 6L36 7L35 7L35 6L34 6L34 8L33 8L33 5L37 5L37 3L36 3L36 1L37 1L37 0L36 0L36 1L35 1L35 4L34 4L34 2L32 2L32 3L33 3L33 5L32 5L32 4L30 4L30 3L28 3L28 2L29 2L29 1L32 1L32 0L28 0L28 1L27 1L27 0L25 0L25 1L23 1L23 0L20 0L20 1L18 1L18 2L19 2L19 3L20 3L20 5L15 5L15 6L14 6L14 8L18 8L18 9L13 9L13 10L15 10L15 11L16 11L16 10L17 10L17 12L13 12L13 13L17 13L17 14L15 14L15 16L14 16L14 15L12 15L12 13L11 13L11 12L12 12L12 9L11 9L11 8L10 8L10 7L11 7L11 6L12 6L12 7L13 7L13 6L12 6L12 5L11 5L11 2L12 2L12 4L13 4L13 3L14 3L14 2L13 2L13 1L11 1L11 0ZM14 0L14 1L15 1L15 4L16 4L16 3L17 3L17 4L18 4L18 3L17 3L17 2L16 2L16 1L15 1L15 0ZM33 0L33 1L34 1L34 0ZM22 1L22 2L20 2L20 3L22 3L22 4L23 4L23 3L24 3L24 4L25 4L25 5L26 5L26 6L25 6L25 8L27 8L27 7L28 7L28 9L30 9L30 8L31 8L31 11L30 11L30 10L26 10L26 9L25 9L25 10L24 10L24 9L23 9L23 10L22 10L22 9L21 9L21 11L20 11L20 12L19 12L19 13L18 13L18 12L17 12L17 13L18 13L18 14L19 14L19 13L20 13L20 12L22 12L22 11L25 11L25 10L26 10L26 12L28 12L28 13L27 13L27 14L29 14L29 15L28 15L28 17L27 17L27 19L26 19L26 17L24 17L24 16L27 16L27 15L25 15L25 14L26 14L26 13L24 13L24 12L23 12L23 13L24 13L24 14L23 14L23 18L24 18L24 19L26 19L26 20L25 20L25 22L26 22L26 20L28 20L28 21L27 21L27 22L28 22L28 21L29 21L29 22L30 22L30 20L32 20L32 19L33 19L33 21L32 21L32 22L31 22L31 24L30 24L30 23L27 23L27 24L28 24L28 28L27 28L27 27L26 27L26 28L27 28L27 31L26 31L26 29L25 29L25 27L23 27L23 26L26 26L26 23L25 23L25 25L23 25L23 26L22 26L22 25L18 25L18 24L19 24L19 23L20 23L20 22L19 22L19 21L18 21L18 20L17 20L17 21L15 21L15 24L14 24L14 23L13 23L13 25L18 25L18 27L19 27L19 28L20 28L20 27L21 27L21 28L22 28L22 29L21 29L21 30L20 30L20 29L18 29L18 28L17 28L17 26L16 26L16 27L15 27L15 26L14 26L14 27L13 27L13 26L12 26L12 25L11 25L11 26L10 26L10 25L4 25L4 26L3 26L3 25L2 25L2 26L3 26L3 28L2 28L2 29L1 29L1 30L3 30L3 28L4 28L4 30L5 30L5 27L4 27L4 26L8 26L8 27L9 27L9 26L10 26L10 27L12 27L12 29L10 29L10 28L7 28L7 27L6 27L6 28L7 28L7 29L6 29L6 30L7 30L7 31L5 31L5 32L2 32L2 31L1 31L1 33L4 33L4 34L5 34L5 32L7 32L7 33L6 33L6 34L7 34L7 35L8 35L8 30L7 30L7 29L10 29L10 30L9 30L9 31L10 31L10 32L11 32L11 33L10 33L10 35L9 35L9 38L10 38L10 39L9 39L9 40L10 40L10 41L11 41L11 38L12 38L12 37L13 37L13 38L16 38L16 39L17 39L17 41L16 41L16 43L17 43L17 42L18 42L18 44L20 44L20 43L19 43L19 42L21 42L21 41L18 41L18 40L20 40L20 39L17 39L17 37L18 37L18 38L19 38L19 37L18 37L18 36L17 36L17 35L16 35L16 34L18 34L18 35L20 35L20 36L21 36L21 34L22 34L22 36L25 36L25 38L26 38L26 37L27 37L27 38L28 38L28 37L29 37L29 39L30 39L30 41L31 41L31 40L32 40L32 39L30 39L30 37L31 37L31 36L32 36L32 35L33 35L33 37L34 37L34 39L36 39L36 36L34 36L34 35L35 35L35 34L36 34L36 35L37 35L37 34L36 34L36 33L37 33L37 32L38 32L38 31L40 31L40 30L41 30L41 27L42 27L42 29L43 29L43 27L42 27L42 26L41 26L41 25L40 25L40 26L41 26L41 27L40 27L40 28L39 28L39 29L40 29L40 30L38 30L38 29L37 29L37 28L38 28L38 27L39 27L39 26L37 26L37 25L36 25L36 24L34 24L34 23L36 23L36 22L35 22L35 21L36 21L36 19L37 19L37 18L36 18L36 19L35 19L35 17L37 17L37 16L38 16L38 14L37 14L37 16L36 16L36 14L35 14L35 12L33 12L33 10L32 10L32 6L31 6L31 5L30 5L30 4L29 4L29 5L28 5L28 3L27 3L27 5L26 5L26 4L25 4L25 3L24 3L24 2L23 2L23 1ZM26 1L26 2L27 2L27 1ZM9 2L9 3L10 3L10 2ZM22 2L22 3L23 3L23 2ZM9 5L9 7L10 7L10 5ZM21 5L21 8L24 8L24 5ZM15 6L15 7L16 7L16 6ZM17 6L17 7L18 7L18 8L20 8L20 6L19 6L19 7L18 7L18 6ZM22 6L22 7L23 7L23 6ZM26 6L26 7L27 7L27 6ZM28 6L28 7L29 7L29 6ZM30 6L30 7L31 7L31 6ZM0 8L0 9L1 9L1 10L0 10L0 12L1 12L1 14L2 14L2 15L3 15L3 12L1 12L1 11L3 11L3 10L2 10L2 8ZM6 9L6 10L7 10L7 9ZM18 9L18 11L19 11L19 10L20 10L20 9ZM39 9L39 10L40 10L40 9ZM42 9L42 10L43 10L43 9ZM6 11L6 12L5 12L5 13L6 13L6 14L7 14L7 15L5 15L5 16L4 16L4 17L5 17L5 19L4 19L4 18L3 18L3 17L2 17L2 18L3 18L3 20L7 20L7 19L6 19L6 18L7 18L7 17L8 17L8 18L11 18L11 19L8 19L8 20L9 20L9 24L10 24L10 23L11 23L11 24L12 24L12 22L14 22L14 20L15 20L15 19L16 19L16 18L19 18L19 17L20 17L20 16L21 16L21 18L20 18L20 20L21 20L21 19L22 19L22 13L21 13L21 15L20 15L20 16L19 16L19 17L18 17L18 16L16 16L16 17L15 17L15 18L14 18L14 17L13 17L13 18L11 18L11 17L12 17L12 15L10 15L10 14L9 14L9 15L10 15L10 17L9 17L9 16L8 16L8 14L7 14L7 13L8 13L8 12L7 12L7 11ZM29 11L29 12L30 12L30 15L29 15L29 16L30 16L30 15L31 15L31 14L32 14L32 13L33 13L33 14L34 14L34 15L35 15L35 14L34 14L34 13L33 13L33 12L32 12L32 11L31 11L31 12L30 12L30 11ZM37 11L37 12L36 12L36 13L37 13L37 12L38 12L38 13L39 13L39 14L40 14L40 13L41 13L41 11L40 11L40 12L39 12L39 11ZM42 11L42 13L44 13L44 11ZM6 12L6 13L7 13L7 12ZM9 12L9 13L10 13L10 12ZM31 12L31 13L32 13L32 12ZM32 15L32 18L31 18L31 17L29 17L29 18L28 18L28 20L29 20L29 19L32 19L32 18L34 18L34 17L35 17L35 16L34 16L34 17L33 17L33 15ZM6 16L6 17L7 17L7 16ZM43 17L43 18L44 18L44 17ZM13 18L13 19L12 19L12 20L10 20L10 21L11 21L11 22L12 22L12 20L13 20L13 19L14 19L14 18ZM1 19L1 20L2 20L2 19ZM34 19L34 20L35 20L35 19ZM5 21L5 24L8 24L8 21ZM21 21L21 24L24 24L24 21ZM33 21L33 22L32 22L32 25L30 25L30 24L29 24L29 25L30 25L30 26L29 26L29 27L30 27L30 31L29 31L29 32L30 32L30 33L29 33L29 34L28 34L28 32L27 32L27 33L26 33L26 32L25 32L25 33L24 33L24 35L25 35L25 36L28 36L28 35L29 35L29 37L30 37L30 34L32 34L32 33L34 33L34 32L35 32L35 31L36 31L36 32L37 32L37 31L36 31L36 30L37 30L37 29L35 29L35 28L33 28L33 27L34 27L34 25L33 25L33 23L34 23L34 21ZM37 21L37 24L40 24L40 21ZM6 22L6 23L7 23L7 22ZM16 22L16 23L17 23L17 24L18 24L18 22ZM22 22L22 23L23 23L23 22ZM38 22L38 23L39 23L39 22ZM36 27L36 28L37 28L37 27ZM13 28L13 29L12 29L12 30L13 30L13 29L15 29L15 28ZM16 28L16 29L17 29L17 30L16 30L16 32L17 32L17 31L18 31L18 33L19 33L19 34L20 34L20 33L21 33L21 32L22 32L22 31L23 31L23 32L24 32L24 31L25 31L25 29L24 29L24 31L23 31L23 29L22 29L22 30L21 30L21 32L19 32L19 31L18 31L18 29L17 29L17 28ZM32 29L32 30L31 30L31 31L30 31L30 32L31 32L31 33L32 33L32 32L34 32L34 31L35 31L35 29L34 29L34 30L33 30L33 29ZM13 31L13 32L12 32L12 33L11 33L11 35L12 35L12 36L10 36L10 38L11 38L11 37L12 37L12 36L13 36L13 37L17 37L17 36L13 36L13 34L12 34L12 33L14 33L14 34L15 34L15 32L14 32L14 31ZM22 33L22 34L23 34L23 33ZM25 33L25 34L26 34L26 33ZM33 34L33 35L34 35L34 34ZM21 37L21 40L24 40L24 37ZM37 37L37 40L40 40L40 37ZM22 38L22 39L23 39L23 38ZM38 38L38 39L39 39L39 38ZM13 39L13 41L15 41L15 40L14 40L14 39ZM26 39L26 41L27 41L27 39ZM43 39L43 42L44 42L44 43L45 43L45 40L44 40L44 39ZM40 42L40 43L39 43L39 44L41 44L41 45L42 45L42 43L41 43L41 42ZM29 44L29 45L31 45L31 44ZM44 44L44 45L45 45L45 44ZM0 0L0 7L7 7L7 0ZM1 1L1 6L6 6L6 1ZM2 2L2 5L5 5L5 2ZM38 0L38 7L45 7L45 0ZM39 1L39 6L44 6L44 1ZM40 2L40 5L43 5L43 2ZM0 38L0 45L7 45L7 38ZM1 39L1 44L6 44L6 39ZM2 40L2 43L5 43L5 40Z" fill="#000000"/></g></g></svg>
