<?xml version="1.0" encoding="UTF-8"?>
<svg xmlns="http://www.w3.org/2000/svg" version="1.1" width="200" height="200" viewBox="0 0 200 200"><rect x="0" y="0" width="200" height="200" fill="#ffffff"/><g transform="scale(4.082)"><g transform="translate(0,0)"><path fill-rule="evenodd" d="M10 0L10 1L8 1L8 2L11 2L11 4L10 4L10 3L8 3L8 4L10 4L10 5L8 5L8 7L9 7L9 8L6 8L6 9L5 9L5 8L0 8L0 9L1 9L1 10L2 10L2 11L1 11L1 12L0 12L0 13L1 13L1 14L0 14L0 15L1 15L1 16L2 16L2 17L0 17L0 19L2 19L2 21L3 21L3 22L2 22L2 24L1 24L1 23L0 23L0 24L1 24L1 25L0 25L0 27L1 27L1 26L2 26L2 27L3 27L3 28L4 28L4 31L5 31L5 30L6 30L6 31L7 31L7 30L9 30L9 31L8 31L8 32L6 32L6 33L5 33L5 32L2 32L2 33L3 33L3 34L1 34L1 33L0 33L0 38L1 38L1 40L0 40L0 41L3 41L3 40L4 40L4 39L2 39L2 38L5 38L5 39L7 39L7 40L6 40L6 41L8 41L8 43L10 43L10 42L12 42L12 43L11 43L11 44L8 44L8 49L9 49L9 48L10 48L10 49L11 49L11 48L10 48L10 47L12 47L12 48L13 48L13 49L14 49L14 47L13 47L13 45L15 45L15 46L16 46L16 45L15 45L15 44L17 44L17 45L18 45L18 46L17 46L17 47L18 47L18 46L19 46L19 47L20 47L20 46L19 46L19 45L20 45L20 44L19 44L19 45L18 45L18 44L17 44L17 43L18 43L18 42L17 42L17 43L15 43L15 42L16 42L16 41L17 41L17 38L18 38L18 39L19 39L19 40L18 40L18 41L21 41L21 38L25 38L25 37L24 37L24 36L25 36L25 35L24 35L24 36L23 36L23 35L22 35L22 34L23 34L23 33L24 33L24 34L26 34L26 33L24 33L24 31L25 31L25 30L26 30L26 29L25 29L25 28L27 28L27 31L26 31L26 32L27 32L27 35L26 35L26 36L27 36L27 37L26 37L26 38L27 38L27 39L24 39L24 40L22 40L22 42L19 42L19 43L22 43L22 45L21 45L21 46L22 46L22 47L23 47L23 46L22 46L22 45L26 45L26 46L24 46L24 47L26 47L26 46L27 46L27 48L26 48L26 49L27 49L27 48L29 48L29 47L30 47L30 46L32 46L32 44L34 44L34 45L35 45L35 46L33 46L33 47L31 47L31 49L32 49L32 48L34 48L34 47L35 47L35 49L39 49L39 47L40 47L40 48L44 48L44 49L49 49L49 47L48 47L48 48L46 48L46 47L47 47L47 46L49 46L49 45L48 45L48 43L49 43L49 42L48 42L48 39L49 39L49 38L48 38L48 37L49 37L49 36L48 36L48 37L47 37L47 36L46 36L46 35L45 35L45 38L44 38L44 35L43 35L43 34L41 34L41 35L42 35L42 36L43 36L43 37L41 37L41 38L42 38L42 39L40 39L40 38L39 38L39 39L40 39L40 40L39 40L39 42L38 42L38 41L37 41L37 40L38 40L38 39L37 39L37 40L36 40L36 41L35 41L35 42L36 42L36 43L37 43L37 44L34 44L34 43L32 43L32 42L31 42L31 41L32 41L32 40L33 40L33 41L34 41L34 40L35 40L35 39L36 39L36 37L37 37L37 38L38 38L38 37L40 37L40 36L38 36L38 37L37 37L37 36L36 36L36 35L39 35L39 34L40 34L40 33L41 33L41 32L42 32L42 33L43 33L43 32L42 32L42 31L43 31L43 29L42 29L42 28L41 28L41 29L40 29L40 28L39 28L39 27L46 27L46 26L45 26L45 25L47 25L47 27L48 27L48 29L49 29L49 24L48 24L48 25L47 25L47 24L45 24L45 22L46 22L46 21L47 21L47 23L49 23L49 18L47 18L47 17L49 17L49 16L45 16L45 15L46 15L46 14L45 14L45 13L48 13L48 11L49 11L49 10L48 10L48 8L47 8L47 12L45 12L45 11L42 11L42 10L43 10L43 9L44 9L44 8L43 8L43 9L42 9L42 8L40 8L40 9L42 9L42 10L41 10L41 12L40 12L40 10L38 10L38 9L39 9L39 8L38 8L38 9L37 9L37 8L35 8L35 5L36 5L36 7L37 7L37 5L38 5L38 7L39 7L39 5L38 5L38 3L36 3L36 4L35 4L35 5L33 5L33 6L32 6L32 8L33 8L33 6L34 6L34 9L35 9L35 10L33 10L33 9L32 9L32 10L33 10L33 11L32 11L32 12L33 12L33 13L31 13L31 11L29 11L29 13L27 13L27 12L28 12L28 11L27 11L27 10L28 10L28 9L27 9L27 8L30 8L30 10L31 10L31 8L30 8L30 7L31 7L31 6L30 6L30 7L29 7L29 6L28 6L28 7L27 7L27 5L28 5L28 4L26 4L26 3L25 3L25 2L27 2L27 3L30 3L30 4L29 4L29 5L31 5L31 4L32 4L32 2L33 2L33 4L34 4L34 2L35 2L35 1L37 1L37 0L35 0L35 1L32 1L32 0L30 0L30 1L32 1L32 2L27 2L27 1L28 1L28 0L27 0L27 1L24 1L24 2L23 2L23 1L22 1L22 0L21 0L21 1L20 1L20 3L21 3L21 4L19 4L19 1L18 1L18 0L17 0L17 1L18 1L18 2L17 2L17 3L18 3L18 4L16 4L16 2L15 2L15 4L16 4L16 5L14 5L14 4L13 4L13 3L14 3L14 2L12 2L12 1L14 1L14 0L12 0L12 1L11 1L11 0ZM40 0L40 1L38 1L38 2L39 2L39 4L40 4L40 3L41 3L41 0ZM21 1L21 3L22 3L22 1ZM23 3L23 4L24 4L24 3ZM12 4L12 5L10 5L10 6L9 6L9 7L10 7L10 8L11 8L11 9L9 9L9 10L10 10L10 11L11 11L11 13L10 13L10 12L9 12L9 11L8 11L8 10L7 10L7 9L6 9L6 10L4 10L4 9L3 9L3 11L6 11L6 12L9 12L9 13L6 13L6 14L8 14L8 16L11 16L11 17L8 17L8 18L7 18L7 17L6 17L6 16L7 16L7 15L6 15L6 16L5 16L5 12L4 12L4 15L2 15L2 14L1 14L1 15L2 15L2 16L3 16L3 17L2 17L2 19L3 19L3 17L4 17L4 18L5 18L5 19L4 19L4 20L5 20L5 22L11 22L11 23L12 23L12 25L13 25L13 26L14 26L14 25L16 25L16 26L17 26L17 25L18 25L18 27L16 27L16 28L15 28L15 29L13 29L13 28L14 28L14 27L12 27L12 26L11 26L11 25L10 25L10 27L9 27L9 28L8 28L8 27L6 27L6 28L5 28L5 29L6 29L6 30L7 30L7 29L6 29L6 28L8 28L8 29L9 29L9 30L13 30L13 31L10 31L10 32L8 32L8 33L6 33L6 34L5 34L5 33L4 33L4 34L3 34L3 35L4 35L4 34L5 34L5 36L2 36L2 35L1 35L1 38L2 38L2 37L5 37L5 36L7 36L7 35L6 35L6 34L8 34L8 37L9 37L9 35L10 35L10 37L12 37L12 38L9 38L9 40L8 40L8 41L9 41L9 40L11 40L11 41L13 41L13 42L14 42L14 41L16 41L16 39L15 39L15 38L16 38L16 37L18 37L18 36L17 36L17 35L18 35L18 34L19 34L19 37L21 37L21 31L23 31L23 30L24 30L24 27L22 27L22 30L21 30L21 26L22 26L22 24L21 24L21 25L18 25L18 24L19 24L19 23L20 23L20 22L17 22L17 25L16 25L16 23L12 23L12 22L13 22L13 21L14 21L14 22L16 22L16 21L18 21L18 20L16 20L16 21L15 21L15 19L18 19L18 18L20 18L20 19L19 19L19 21L21 21L21 23L22 23L22 20L23 20L23 22L27 22L27 25L28 25L28 26L29 26L29 28L28 28L28 29L30 29L30 28L32 28L32 29L31 29L31 30L28 30L28 31L29 31L29 32L28 32L28 35L31 35L31 34L32 34L32 35L33 35L33 32L31 32L31 30L32 30L32 31L33 31L33 29L34 29L34 30L37 30L37 31L36 31L36 32L35 32L35 31L34 31L34 34L35 34L35 35L34 35L34 37L33 37L33 36L32 36L32 37L31 37L31 38L29 38L29 36L28 36L28 37L27 37L27 38L28 38L28 39L30 39L30 41L31 41L31 40L32 40L32 39L31 39L31 38L32 38L32 37L33 37L33 39L35 39L35 35L36 35L36 34L37 34L37 33L36 33L36 32L37 32L37 31L38 31L38 34L39 34L39 32L40 32L40 31L42 31L42 29L41 29L41 30L39 30L39 29L38 29L38 27L37 27L37 25L38 25L38 26L39 26L39 25L40 25L40 24L39 24L39 23L40 23L40 22L42 22L42 20L43 20L43 22L44 22L44 21L45 21L45 20L48 20L48 19L45 19L45 18L46 18L46 17L45 17L45 16L44 16L44 13L45 13L45 12L43 12L43 14L42 14L42 12L41 12L41 13L40 13L40 12L39 12L39 11L38 11L38 10L36 10L36 11L33 11L33 12L34 12L34 13L33 13L33 14L28 14L28 15L26 15L26 14L27 14L27 13L26 13L26 11L24 11L24 10L23 10L23 9L18 9L18 6L17 6L17 9L16 9L16 6L15 6L15 8L14 8L14 5L13 5L13 4ZM21 4L21 7L22 7L22 4ZM12 5L12 7L11 7L11 6L10 6L10 7L11 7L11 8L12 8L12 9L11 9L11 11L12 11L12 10L13 10L13 11L14 11L14 12L13 12L13 13L15 13L15 14L16 14L16 13L15 13L15 12L16 12L16 11L18 11L18 9L17 9L17 10L16 10L16 9L14 9L14 10L13 10L13 5ZM19 5L19 7L20 7L20 5ZM23 5L23 8L26 8L26 5ZM24 6L24 7L25 7L25 6ZM40 6L40 7L41 7L41 6ZM45 8L45 9L46 9L46 8ZM26 9L26 10L27 10L27 9ZM6 10L6 11L7 11L7 10ZM19 10L19 13L18 13L18 12L17 12L17 13L18 13L18 15L20 15L20 14L19 14L19 13L20 13L20 10ZM21 11L21 14L22 14L22 13L23 13L23 12L24 12L24 16L23 16L23 17L22 17L22 18L23 18L23 20L24 20L24 21L25 21L25 20L24 20L24 18L23 18L23 17L24 17L24 16L26 16L26 15L25 15L25 12L24 12L24 11L23 11L23 12L22 12L22 11ZM37 11L37 12L35 12L35 13L38 13L38 11ZM11 13L11 14L10 14L10 15L12 15L12 17L11 17L11 18L10 18L10 19L9 19L9 18L8 18L8 20L10 20L10 21L11 21L11 22L12 22L12 21L13 21L13 20L14 20L14 19L12 19L12 18L13 18L13 14L12 14L12 13ZM33 14L33 15L30 15L30 17L29 17L29 18L30 18L30 19L31 19L31 20L29 20L29 19L28 19L28 18L26 18L26 17L25 17L25 18L26 18L26 19L27 19L27 22L28 22L28 23L29 23L29 26L31 26L31 24L30 24L30 22L31 22L31 23L32 23L32 24L33 24L33 21L32 21L32 20L33 20L33 19L34 19L34 21L35 21L35 22L34 22L34 25L32 25L32 28L34 28L34 29L37 29L37 28L34 28L34 27L35 27L35 26L34 26L34 25L35 25L35 22L36 22L36 23L37 23L37 24L36 24L36 25L37 25L37 24L38 24L38 23L39 23L39 22L37 22L37 20L35 20L35 18L33 18L33 19L31 19L31 16L33 16L33 17L37 17L37 18L36 18L36 19L37 19L37 18L38 18L38 19L39 19L39 20L38 20L38 21L41 21L41 20L42 20L42 19L41 19L41 18L38 18L38 17L39 17L39 15L40 15L40 16L41 16L41 17L42 17L42 18L43 18L43 20L45 20L45 19L44 19L44 18L43 18L43 15L41 15L41 14L38 14L38 15L36 15L36 14ZM47 14L47 15L49 15L49 14ZM14 15L14 16L16 16L16 17L14 17L14 18L16 18L16 17L17 17L17 18L18 18L18 17L21 17L21 16L22 16L22 15L21 15L21 16L18 16L18 17L17 17L17 16L16 16L16 15ZM28 15L28 16L29 16L29 15ZM35 15L35 16L36 16L36 15ZM5 17L5 18L6 18L6 19L5 19L5 20L6 20L6 21L7 21L7 20L6 20L6 19L7 19L7 18L6 18L6 17ZM10 19L10 20L11 20L11 21L12 21L12 19ZM21 19L21 20L22 20L22 19ZM40 19L40 20L41 20L41 19ZM28 20L28 22L29 22L29 20ZM3 22L3 23L4 23L4 22ZM5 23L5 26L8 26L8 23ZM9 23L9 24L10 24L10 23ZM23 23L23 26L26 26L26 23ZM41 23L41 26L44 26L44 23ZM2 24L2 26L3 26L3 24ZM6 24L6 25L7 25L7 24ZM24 24L24 25L25 25L25 24ZM42 24L42 25L43 25L43 24ZM11 27L11 28L12 28L12 27ZM19 27L19 29L18 29L18 28L17 28L17 29L18 29L18 30L17 30L17 32L16 32L16 31L14 31L14 32L13 32L13 34L14 34L14 32L16 32L16 33L15 33L15 35L17 35L17 34L18 34L18 33L19 33L19 34L20 34L20 32L19 32L19 31L20 31L20 30L19 30L19 29L20 29L20 27ZM1 28L1 29L0 29L0 31L2 31L2 30L1 30L1 29L2 29L2 28ZM44 28L44 29L46 29L46 30L44 30L44 31L45 31L45 32L44 32L44 33L45 33L45 34L46 34L46 33L47 33L47 32L48 32L48 31L49 31L49 30L48 30L48 31L47 31L47 32L46 32L46 30L47 30L47 28ZM15 29L15 30L16 30L16 29ZM38 30L38 31L39 31L39 30ZM11 32L11 34L10 34L10 33L8 33L8 34L10 34L10 35L11 35L11 34L12 34L12 32ZM17 32L17 33L16 33L16 34L17 34L17 33L18 33L18 32ZM22 32L22 33L23 33L23 32ZM29 32L29 34L31 34L31 32ZM48 34L48 35L49 35L49 34ZM13 35L13 36L12 36L12 37L13 37L13 39L14 39L14 40L13 40L13 41L14 41L14 40L15 40L15 39L14 39L14 37L13 37L13 36L14 36L14 35ZM15 36L15 37L16 37L16 36ZM22 36L22 37L23 37L23 36ZM6 37L6 38L7 38L7 39L8 39L8 38L7 38L7 37ZM46 37L46 38L47 38L47 37ZM19 38L19 39L20 39L20 38ZM43 38L43 39L42 39L42 40L45 40L45 41L46 41L46 43L45 43L45 44L46 44L46 45L47 45L47 41L46 41L46 40L47 40L47 39L46 39L46 40L45 40L45 39L44 39L44 38ZM11 39L11 40L12 40L12 39ZM28 40L28 41L27 41L27 43L28 43L28 41L29 41L29 40ZM23 41L23 44L26 44L26 41ZM36 41L36 42L37 42L37 43L38 43L38 44L39 44L39 45L38 45L38 46L35 46L35 47L36 47L36 48L37 48L37 47L38 47L38 46L39 46L39 45L40 45L40 43L38 43L38 42L37 42L37 41ZM41 41L41 44L44 44L44 41ZM24 42L24 43L25 43L25 42ZM29 42L29 44L27 44L27 45L29 45L29 44L32 44L32 43L31 43L31 42ZM42 42L42 43L43 43L43 42ZM12 43L12 44L14 44L14 43ZM11 45L11 46L12 46L12 45ZM41 45L41 46L40 46L40 47L41 47L41 46L42 46L42 47L43 47L43 46L44 46L44 48L45 48L45 45L43 45L43 46L42 46L42 45ZM9 46L9 47L10 47L10 46ZM28 46L28 47L29 47L29 46ZM15 47L15 48L16 48L16 49L17 49L17 48L16 48L16 47ZM18 48L18 49L22 49L22 48ZM0 0L0 7L7 7L7 0ZM1 1L1 6L6 6L6 1ZM2 2L2 5L5 5L5 2ZM42 0L42 7L49 7L49 0ZM43 1L43 6L48 6L48 1ZM44 2L44 5L47 5L47 2ZM0 42L0 49L7 49L7 42ZM1 43L1 48L6 48L6 43ZM2 44L2 47L5 47L5 44Z" fill="#000000"/></g></g></svg>
